<?xml version="1.0" standalone="no"?>
<!DOCTYPE svg PUBLIC "-//W3C//DTD SVG 20010904//EN"
 "http://www.w3.org/TR/2001/REC-SVG-20010904/DTD/svg10.dtd">
<svg version="1.0" xmlns="http://www.w3.org/2000/svg"
 width="900.000000pt" height="900.000000pt" viewBox="0 0 900.000000 900.000000"
 preserveAspectRatio="xMidYMid meet">
<metadata>
Created by potrace 1.10, written by Peter Selinger 2001-2011
</metadata>
<g transform="translate(0.000000,900.000000) scale(0.100000,-0.100000)"
fill="#002387" stroke="none">
<path d="M4600 8719 c-30 -4 -100 -12 -155 -18 -272 -29 -313 -37 -470 -96
-38 -15 -90 -33 -114 -41 -86 -28 -290 -134 -339 -176 -28 -24 -75 -61 -106
-83 -58 -42 -165 -144 -204 -195 -13 -16 -28 -30 -33 -30 -11 0 -129 -117
-129 -128 0 -4 -24 -32 -52 -62 -29 -30 -71 -78 -93 -105 -22 -28 -55 -67 -74
-88 -19 -21 -46 -55 -60 -75 -13 -20 -37 -56 -53 -79 -15 -23 -28 -44 -28 -46
0 -3 -47 -85 -105 -181 -58 -97 -105 -181 -105 -187 0 -6 -31 -76 -70 -155
-38 -79 -70 -149 -70 -156 0 -7 -23 -53 -51 -103 -28 -50 -53 -108 -56 -130
-6 -51 -20 -89 -55 -146 -15 -25 -28 -53 -28 -61 0 -8 -11 -37 -25 -64 -14
-27 -41 -94 -61 -149 -20 -55 -40 -109 -45 -120 -20 -46 -49 -141 -49 -160 0
-11 -14 -63 -30 -115 -17 -52 -37 -147 -45 -210 -20 -162 -35 -503 -25 -570 5
-30 12 -77 15 -105 9 -72 53 -242 78 -297 12 -26 31 -51 42 -56 12 -6 26 -25
31 -43 7 -22 16 -33 26 -31 18 3 42 -30 52 -73 4 -16 13 -43 21 -60 30 -64 74
-183 88 -237 11 -43 13 -76 6 -140 -10 -94 -15 -113 -57 -218 -40 -100 -51
-184 -27 -210 10 -11 24 -20 32 -20 7 0 21 -4 31 -9 9 -5 25 -12 35 -15 12 -4
17 -16 17 -45 0 -56 24 -68 61 -30 28 29 69 31 69 2 0 -8 7 -27 15 -43 15 -29
15 -30 -10 -30 -35 0 -42 -24 -20 -68 12 -24 19 -62 20 -107 0 -38 7 -81 15
-95 15 -28 31 -97 33 -150 2 -29 -2 -36 -20 -38 -13 -2 -23 -8 -23 -13 0 -5
-9 -9 -20 -9 -15 0 -20 7 -20 24 0 14 -6 31 -13 38 -8 7 -17 27 -21 43 l-8 30
-19 -39 c-18 -37 -16 -76 3 -42 12 22 25 20 31 -4 3 -13 -2 -25 -15 -34 -24
-17 -16 -56 12 -56 10 0 20 -9 23 -21 8 -30 29 -19 40 20 8 34 29 38 36 5 2
-10 8 -22 14 -25 5 -4 9 -20 9 -35 -3 -104 0 -167 10 -227 6 -37 9 -70 5 -73
-8 -8 -44 31 -52 58 -4 12 -13 29 -19 37 -6 8 -13 55 -16 105 -5 85 -6 91 -27
94 -30 4 -30 -26 -2 -122 34 -118 57 -156 140 -238 44 -43 79 -84 79 -92 0 -8
-12 -19 -27 -25 -16 -6 -50 -25 -78 -41 -65 -40 -122 -66 -165 -75 -48 -10
-123 -49 -195 -100 -62 -44 -282 -265 -312 -313 -9 -15 -29 -40 -44 -57 -24
-25 -139 -208 -139 -220 0 -2 -17 -30 -38 -62 -92 -140 -184 -329 -216 -443
-10 -36 -31 -101 -47 -145 -16 -44 -36 -108 -44 -143 -8 -34 -22 -90 -31 -124
-8 -34 -18 -107 -21 -162 -5 -92 -10 -113 -59 -237 -30 -76 -54 -140 -54 -143
0 -3 1708 -6 3795 -6 l3794 0 -27 48 c-15 26 -42 78 -60 116 -18 38 -53 95
-77 126 -25 32 -65 102 -91 156 -62 135 -80 169 -120 239 -19 33 -39 69 -44
80 -10 21 -17 33 -62 103 -16 24 -28 45 -28 48 0 10 -91 144 -154 229 -154
205 -188 242 -651 695 -230 224 -333 332 -390 404 -45 57 -51 73 -33 94 8 9
18 30 22 46 6 26 9 28 44 21 20 -4 47 -18 61 -31 13 -13 28 -24 32 -24 12 0
12 37 0 44 -5 3 -12 27 -15 53 -4 27 -11 62 -17 79 -5 17 -11 87 -13 155 -2
102 -7 137 -28 199 -50 145 -57 181 -48 239 5 30 7 58 4 63 -11 18 -5 199 10
271 19 92 22 101 52 159 40 76 117 309 158 478 33 134 45 420 20 479 -9 22
-13 50 -9 71 3 21 -2 65 -14 110 -11 41 -25 131 -31 200 -11 135 -18 182 -51
335 -12 55 -27 129 -33 165 -14 69 -70 238 -118 355 -16 39 -47 124 -68 190
-22 66 -46 131 -53 145 -8 14 -20 50 -27 80 -13 54 -68 216 -114 335 -102 261
-171 436 -186 470 -10 22 -29 67 -43 100 -40 93 -334 675 -351 693 -8 10 -21
36 -29 58 -23 68 -188 314 -210 314 -7 0 -18 9 -25 20 -7 11 -35 34 -62 51
-27 16 -52 38 -55 49 -3 10 -21 25 -40 35 -19 9 -35 19 -35 24 0 4 -14 6 -30
3 -21 -3 -40 3 -63 20 -30 23 -87 45 -216 82 -29 9 -59 16 -66 16 -6 0 -25 6
-41 14 -16 8 -51 20 -79 27 -27 6 -58 15 -68 21 -10 5 -22 6 -27 3 -5 -3 -17
-1 -27 5 -10 6 -43 19 -73 29 -42 13 -56 23 -60 42 -4 17 -19 28 -55 41 -28
10 -55 24 -61 32 -6 9 -15 11 -24 6 -7 -4 -23 -5 -34 -1 -37 14 -99 18 -156
10z m1238 -558 c3 -8 -1 -12 -9 -9 -7 2 -15 10 -17 17 -3 8 1 12 9 9 7 -2 15
-10 17 -17z m-2243 -230 c14 -29 14 -30 -16 -55 -17 -15 -47 -45 -66 -69 -19
-23 -64 -73 -99 -110 -72 -77 -87 -115 -33 -87 15 8 19 7 19 -4 0 -7 -7 -16
-15 -20 -8 -3 -15 -12 -15 -21 0 -8 -4 -15 -9 -15 -9 0 -61 -77 -86 -125 -25
-50 -51 -85 -62 -85 -7 0 -21 -17 -32 -38 -11 -21 -31 -50 -45 -63 -14 -13
-26 -33 -26 -45 0 -11 -13 -34 -30 -50 -16 -16 -30 -34 -30 -40 0 -6 -7 -17
-15 -24 -8 -7 -15 -18 -15 -26 0 -7 -11 -24 -23 -37 -18 -17 -28 -20 -40 -13
-17 11 -49 -9 -45 -28 3 -12 -9 -29 -57 -80 -16 -17 -28 -37 -27 -43 2 -7 -6
-13 -16 -13 -11 0 -36 -24 -63 -61 -57 -80 -66 -52 -10 31 23 33 41 63 41 67
0 5 14 28 30 53 16 25 30 52 30 61 0 9 6 22 14 28 15 13 40 100 31 109 -3 3
-8 -3 -11 -15 -3 -12 -13 -24 -22 -27 -10 -3 -23 -9 -31 -12 -19 -9 -4 36 20
59 12 11 19 32 19 52 0 19 4 35 9 35 5 0 13 10 17 23 9 30 76 130 134 198 16
20 30 41 30 46 0 5 18 24 40 42 22 17 40 39 40 48 0 16 44 63 60 63 11 0 70
75 70 89 0 6 -4 11 -10 11 -5 0 -10 5 -10 11 0 8 4 8 14 0 12 -10 17 -9 24 6
6 10 32 29 59 43 26 14 50 28 51 33 2 4 12 7 23 7 10 0 19 7 19 15 0 8 9 15
19 15 10 0 21 7 25 15 3 8 12 15 21 15 8 0 15 5 15 10 0 6 7 10 15 10 8 0 23
9 32 20 10 11 19 20 20 20 1 0 9 -13 18 -29z m-289 -78 c-25 -27 -49 -56 -52
-65 -7 -22 -18 -23 -33 -4 -15 18 12 66 38 66 9 0 27 12 40 25 13 14 30 25 38
25 9 0 -3 -19 -31 -47z m-213 -43 c9 0 17 -3 17 -7 0 -9 -48 -33 -66 -33 -6 0
-24 -25 -39 -55 -25 -49 -27 -57 -13 -72 19 -23 12 -53 -13 -53 -10 0 -19 5
-19 10 0 14 -37 12 -44 -2 -3 -7 -3 9 1 35 4 36 14 58 39 85 19 20 34 40 34
43 0 4 10 19 21 33 16 20 28 26 43 22 11 -3 29 -6 39 -6z m97 -70 c0 -6 -12
-22 -26 -35 -22 -21 -25 -27 -14 -40 11 -13 8 -15 -14 -15 -15 0 -29 -7 -32
-15 -11 -28 -20 -15 -18 28 0 23 2 45 3 49 1 10 61 36 84 37 9 1 17 -4 17 -9z
m198 -262 c-13 -16 -28 -37 -33 -46 -16 -27 -49 -62 -57 -62 -5 0 -8 10 -8 23
0 14 13 31 35 46 19 13 35 27 35 32 0 15 33 48 42 43 5 -3 -2 -19 -14 -36z
m142 -13 c0 -8 5 -15 10 -15 19 0 10 -32 -15 -52 -23 -18 -34 -48 -17 -48 4 0
18 10 32 23 14 12 41 34 60 49 40 29 100 46 100 28 0 -10 -158 -170 -168 -170
-2 0 -20 -12 -39 -27 -44 -33 -133 -166 -133 -198 0 -12 -7 -28 -16 -35 -8 -8
-27 -34 -41 -59 -15 -25 -39 -61 -55 -79 -15 -18 -28 -41 -28 -52 0 -10 -5
-22 -11 -26 -6 -3 -19 -25 -29 -48 -10 -24 -30 -55 -44 -71 -14 -15 -26 -33
-26 -39 0 -6 -10 -29 -22 -51 -11 -22 -26 -60 -33 -85 -14 -57 -39 -64 -59
-17 -7 19 -19 38 -25 41 -14 9 -5 47 27 113 23 48 24 57 15 114 -9 55 -8 64 8
80 11 11 30 19 44 19 18 0 25 5 25 20 0 23 -31 41 -38 22 -6 -20 -22 -3 -22
23 0 14 18 45 43 74 60 71 86 115 76 133 -5 8 -2 26 7 42 7 16 14 37 14 47 0
11 7 22 15 25 8 4 15 16 15 28 0 22 57 96 74 96 5 0 14 -7 20 -16 10 -13 18
-10 56 26 32 29 51 39 66 35 21 -5 70 24 87 52 11 18 27 16 27 -2z m-664 -31
c-3 -9 -6 -18 -6 -20 0 -2 -4 -4 -9 -4 -5 0 -7 9 -4 20 3 11 10 20 15 20 6 0
7 -7 4 -16z m1914 -324 c31 -29 61 -48 70 -45 8 2 43 -14 78 -36 49 -31 62
-45 62 -65 0 -36 17 -63 46 -74 21 -8 24 -16 26 -62 3 -87 -2 -131 -18 -149
-13 -14 -12 -18 8 -32 15 -10 19 -19 12 -24 -5 -4 -21 -16 -33 -25 -31 -22
-21 -48 17 -48 25 0 33 -7 55 -52 20 -40 23 -56 15 -71 -8 -16 -5 -24 15 -41
30 -25 62 -88 70 -136 5 -35 4 -35 -48 -53 -36 -12 -66 -15 -94 -11 -27 4 -60
1 -94 -9 -28 -9 -125 -21 -214 -27 -186 -12 -260 -33 -250 -71 6 -22 -26 -109
-40 -109 -4 0 -22 -13 -39 -29 -17 -16 -48 -38 -70 -49 -54 -28 -108 -89 -122
-137 -30 -107 -53 -294 -51 -415 1 -36 1 -112 0 -169 -1 -78 2 -110 14 -127
19 -29 19 -109 1 -160 -22 -63 -91 -158 -135 -187 -45 -30 -47 -35 -27 -63 13
-17 28 -19 148 -20 130 -1 183 -9 263 -37 22 -8 54 -12 70 -10 21 3 38 -2 55
-16 l25 -21 -39 -34 c-43 -37 -82 -48 -186 -52 -95 -3 -172 -19 -185 -38 -8
-10 -27 -16 -49 -16 -20 0 -48 -7 -62 -16 -30 -20 -141 -15 -194 9 -35 15 -52
19 -160 38 -64 11 -208 24 -263 23 -89 0 -86 -59 8 -151 75 -75 96 -80 93 -24
-2 53 36 115 66 107 11 -3 57 -8 101 -11 81 -6 227 -36 300 -61 29 -10 64 -12
115 -8 87 7 126 -4 140 -41 13 -34 23 -32 15 4 -6 29 -5 30 40 37 54 8 65 -1
65 -53 0 -34 14 -44 23 -19 8 19 65 49 81 43 7 -3 16 -24 20 -48 l7 -43 30 33
c24 27 34 31 58 26 23 -5 32 -1 48 21 14 18 26 25 37 21 20 -8 21 -50 1 -67
-8 -7 -15 -19 -15 -26 0 -16 -16 -19 -25 -4 -12 19 -45 10 -55 -14 -5 -14 -18
-29 -28 -35 -16 -9 -23 -6 -34 11 -14 21 -15 20 -47 -21 -38 -48 -57 -51 -97
-15 -15 15 -29 23 -31 18 -8 -23 -25 -38 -29 -28 -3 7 -18 -1 -37 -19 -18 -16
-47 -36 -65 -44 -39 -16 -34 -33 10 -33 25 0 89 -16 106 -26 12 -7 -69 -66
-103 -75 -22 -6 -56 -17 -75 -25 -19 -7 -48 -15 -63 -16 -15 -2 -26 -7 -25
-13 3 -11 19 -12 103 -1 77 10 116 9 129 -4 5 -5 17 -10 27 -10 9 0 28 -9 42
-20 23 -18 26 -28 25 -73 -2 -77 20 -125 69 -147 l41 -18 30 31 c16 18 32 40
35 50 4 9 18 22 32 29 13 6 27 20 31 30 3 11 19 39 35 63 16 24 29 48 29 53 0
6 6 23 14 39 8 15 24 51 37 78 12 28 51 87 85 132 79 103 99 164 38 118 -22
-16 -50 -19 -58 -6 -4 5 30 39 74 75 61 51 87 66 111 66 29 0 31 2 26 29 -6
31 8 41 61 41 12 0 30 8 41 19 15 15 26 17 57 11 89 -17 134 -49 134 -94 0
-38 -52 -171 -79 -201 -26 -30 -101 -144 -118 -179 -28 -60 -44 -86 -53 -86
-5 0 -28 -25 -51 -56 -23 -30 -59 -64 -80 -75 -21 -10 -49 -30 -63 -44 -23
-23 -76 -120 -76 -140 0 -4 -11 -22 -24 -39 -12 -17 -30 -44 -39 -61 -15 -30
-112 -131 -199 -211 -25 -23 -49 -51 -52 -62 -4 -11 -28 -37 -54 -58 -26 -20
-51 -42 -57 -48 -18 -20 -149 -79 -195 -88 -173 -33 -257 -34 -479 -2 -34 5
-42 3 -39 -7 3 -8 15 -16 29 -17 13 -2 33 -11 44 -21 24 -21 90 -51 111 -51 8
0 19 -12 25 -27 28 -75 72 -153 90 -158 23 -8 42 -50 34 -75 -3 -10 -1 -21 4
-24 5 -4 13 -38 17 -77 6 -61 10 -72 30 -81 13 -6 23 -18 22 -27 -2 -13 7 -16
45 -17 26 0 53 -6 59 -12 7 -7 21 -12 32 -12 19 -1 19 -1 4 -11 -25 -14 -23
-49 2 -49 11 0 23 7 27 16 3 8 12 13 19 10 21 -8 35 26 18 45 -14 16 -10 49 7
49 5 0 19 10 31 22 11 11 32 23 45 25 12 2 33 6 45 8 13 3 38 8 56 11 29 6 33
10 29 30 -5 27 26 63 38 44 9 -15 96 60 119 103 22 41 104 98 143 101 15 2 41
9 57 16 25 13 30 12 42 -5 12 -16 18 -18 34 -7 28 17 79 15 87 -4 3 -8 1 -26
-5 -39 -10 -22 -9 -24 21 -27 20 -2 33 -9 33 -18 1 -8 2 -21 3 -27 0 -7 9 -13
19 -13 10 0 24 6 31 13 11 10 13 9 8 -5 -7 -19 21 -41 45 -36 15 4 26 -60 27
-149 l1 -63 30 0 c38 0 51 -28 38 -84 -5 -21 -6 -58 -2 -81 4 -27 1 -51 -7
-66 -13 -26 -30 -93 -30 -122 0 -10 -7 -26 -15 -35 -9 -9 -60 -73 -115 -142
-56 -69 -126 -156 -157 -194 -122 -147 -143 -172 -169 -207 -16 -20 -34 -45
-40 -55 -58 -87 -107 -143 -272 -313 -160 -166 -200 -201 -257 -231 -38 -19
-103 -58 -145 -87 -79 -53 -139 -83 -168 -83 -21 0 -72 -26 -134 -68 -27 -18
-57 -32 -67 -32 -11 0 -27 -11 -36 -25 -10 -15 -26 -25 -40 -25 -14 0 -27 -7
-30 -15 -11 -27 -39 -17 -53 20 -9 26 -9 39 -1 56 7 12 10 32 7 45 -6 31 7 39
28 17 13 -12 16 -27 12 -57 -3 -22 -11 -42 -16 -44 -6 -2 -11 -7 -11 -12 0 -5
14 -2 30 7 27 13 30 19 25 46 -18 105 -23 170 -14 200 13 44 11 115 -2 119 -9
3 -9 20 0 69 6 36 11 78 11 93 0 16 6 42 14 59 7 18 20 55 29 82 28 90 45 129
56 133 6 2 11 -9 11 -27 0 -35 6 -38 29 -16 9 9 34 29 55 46 l40 30 18 -33 19
-33 -5 80 c-3 44 -8 96 -10 115 -3 19 -7 81 -10 138 -3 56 -7 105 -8 110 0 4
3 16 7 26 6 13 3 23 -8 31 -10 7 -14 20 -10 33 6 25 23 30 23 7 0 -9 9 -15 25
-15 17 0 29 -9 39 -28 8 -15 30 -36 48 -46 19 -10 45 -34 58 -53 21 -31 28
-34 56 -30 22 4 37 1 45 -9 7 -9 21 -13 31 -11 11 3 22 -2 28 -14 15 -27 44
-24 92 11 22 16 47 30 53 30 24 0 27 49 5 77 -20 26 -27 63 -12 63 5 0 21 18
35 41 24 37 26 45 17 80 -10 35 -14 39 -44 39 -19 0 -49 -6 -67 -14 -25 -10
-37 -11 -51 -3 -13 9 -21 8 -30 -1 -9 -9 -16 -8 -30 5 -12 11 -22 13 -28 7
-14 -14 -173 19 -179 37 -2 8 -13 20 -23 28 -11 7 -17 20 -14 28 4 8 -4 29
-16 46 -26 36 -44 65 -54 87 -34 73 -44 102 -44 123 0 13 -9 36 -20 50 -11 14
-20 32 -20 40 0 9 -4 18 -9 21 -10 7 -25 91 -22 123 1 13 -11 39 -27 60 -17
21 -38 65 -47 98 -10 33 -21 70 -26 83 -5 12 -13 32 -18 45 -4 12 -18 43 -30
68 -11 25 -21 52 -21 58 0 7 -10 27 -23 44 -13 18 -34 54 -48 80 -13 27 -51
73 -85 103 -33 30 -80 81 -104 114 -24 33 -47 60 -52 60 -4 0 -8 5 -8 11 0 5
-20 40 -43 77 -24 37 -51 81 -59 97 -65 128 -146 283 -156 300 -6 11 -28 54
-48 95 -19 41 -46 95 -59 120 -13 25 -24 53 -24 62 -1 9 -12 25 -25 36 -13 10
-24 25 -23 33 2 20 -11 78 -40 189 -14 52 -29 111 -32 130 -4 19 -13 45 -19
57 -7 12 -12 35 -12 51 0 16 -7 49 -15 72 -8 23 -15 55 -15 71 0 15 -7 54 -15
86 -35 133 -4 348 70 498 31 63 154 206 201 235 19 12 58 42 86 66 31 26 66
46 87 50 20 3 48 14 63 25 15 10 33 19 40 19 9 1 8 4 -3 13 -25 19 -41 57 -35
82 8 30 112 103 127 88 8 -8 8 -20 0 -43 -7 -22 -8 -45 -1 -77 6 -25 8 -54 4
-65 -9 -30 10 -37 97 -31 56 4 79 2 79 -6 0 -6 -7 -11 -15 -11 -17 0 -20 -16
-6 -25 5 -3 16 1 24 9 8 8 19 11 26 6 7 -4 35 -8 63 -9 27 0 54 -3 59 -7 12
-7 79 23 79 35 0 19 -28 29 -84 30 -33 0 -62 3 -65 6 -3 3 1 20 8 38 7 18 16
45 18 60 6 32 28 46 46 28 17 -17 27 -13 27 9 0 11 7 23 15 26 9 4 15 19 15
35 0 26 4 29 30 29 25 0 32 6 45 36 21 50 19 58 -15 98 -27 30 -40 36 -122 51
-51 9 -109 25 -130 36 -41 21 -98 25 -114 9 -8 -8 -19 -7 -39 0 -17 6 -32 7
-39 1 -6 -5 -27 -9 -47 -8 l-36 1 2 55 c1 61 6 71 71 170 54 82 87 116 142
142 56 28 79 61 64 94 -16 35 -3 62 63 133 88 95 283 182 334 150 17 -10 27
-9 65 10 40 19 47 20 60 6 13 -12 20 -13 38 -3 13 7 77 27 143 45 66 18 161
44 210 59 50 15 122 31 160 36 39 5 75 11 80 13 6 3 26 5 45 5 29 1 45 -8 90
-49z m-1411 -941 c69 -11 138 -35 128 -46 -7 -6 -52 -14 -180 -33 -40 -6 -82
-20 -105 -34 -44 -29 -142 -46 -142 -24 0 20 39 90 68 121 23 24 32 27 96 27
39 0 100 -5 135 -11z m1686 -138 c78 -13 104 -26 98 -50 -5 -19 -13 -21 -72
-21 -37 0 -72 5 -78 11 -7 7 -60 13 -125 16 -62 2 -120 6 -128 9 -48 17 152
64 215 52 22 -5 63 -12 90 -17z m-1670 -121 c0 -31 -3 -35 -25 -35 -29 0 -40
36 -19 61 21 26 44 12 44 -26z m1430 -32 c-21 -70 -23 -113 -4 -150 19 -38 13
-55 -16 -44 -21 8 -45 -4 -45 -21 0 -11 8 -14 30 -11 22 3 31 0 36 -14 6 -21
13 -22 51 -7 21 8 30 7 38 -4 5 -8 30 -16 55 -19 49 -5 120 -35 120 -49 0 -5
-12 -14 -27 -20 -22 -8 -24 -12 -13 -19 8 -6 26 -10 41 -10 14 0 30 -5 36 -11
6 -6 39 -12 73 -12 53 -2 65 2 80 20 22 28 41 12 33 -28 -8 -41 19 -48 58 -15
53 45 151 29 177 -29 19 -41 15 -47 -30 -43 -39 2 -43 0 -46 -22 -6 -39 -50
-92 -72 -85 -28 9 -34 -11 -31 -98 1 -47 -3 -84 -9 -92 -7 -8 -13 -42 -15 -77
-2 -48 -8 -66 -23 -79 -17 -13 -19 -22 -13 -51 5 -20 11 -40 15 -46 3 -5 -1
-15 -9 -22 -9 -8 -13 -21 -9 -32 4 -14 0 -21 -15 -25 -11 -3 -30 -21 -41 -41
-17 -28 -20 -45 -15 -81 6 -42 4 -49 -26 -79 -17 -18 -39 -31 -48 -30 -10 2
-15 -3 -13 -14 6 -35 -122 44 -204 126 -50 50 -110 130 -129 173 -5 12 -59 74
-120 138 -60 64 -114 123 -118 131 -5 9 -20 19 -34 25 -20 7 -24 14 -19 37 18
90 26 194 17 206 -6 7 -14 34 -17 60 -7 45 -6 46 25 57 27 9 31 16 31 45 0 29
5 37 35 51 28 13 35 23 35 45 0 22 8 32 40 50 22 13 40 26 40 30 0 4 -15 15
-32 23 -66 32 -78 40 -78 51 0 7 11 15 25 18 14 4 32 18 42 32 20 31 100 84
127 84 14 0 17 -5 11 -22z m60 -57 c11 -36 -26 -74 -55 -56 -11 7 -14 58 -3
68 14 14 52 7 58 -12z m641 -272 c45 -28 43 -39 -9 -39 -32 0 -45 5 -56 21
-11 18 -11 23 1 30 19 13 27 11 64 -12z m542 -1429 c9 0 11 -7 7 -20 -6 -18
-3 -20 19 -14 41 10 32 -18 -16 -50 -32 -21 -43 -24 -49 -14 -5 7 -9 17 -9 21
0 4 -8 7 -17 5 -24 -4 -28 26 -7 57 13 19 23 25 38 21 12 -3 27 -6 34 -6z
m-3491 -1432 c6 -7 13 -25 17 -40 3 -16 11 -28 16 -28 6 0 10 -11 10 -25 0
-17 6 -25 17 -25 40 0 83 -76 53 -95 -5 -3 -22 -33 -37 -65 -15 -33 -30 -60
-34 -60 -18 0 -66 58 -78 94 -18 53 -21 194 -4 229 15 30 25 34 40 15z m1689
-835 c7 -10 14 -26 14 -35 0 -15 -3 -15 -27 -3 -25 13 -43 32 -43 48 0 14 43
7 56 -10z"/>
<path d="M2963 7263 c-4 -9 -15 -25 -25 -35 -22 -22 -14 -46 8 -27 8 6 14 17
14 24 0 7 7 18 15 25 17 14 20 30 5 30 -6 0 -14 -8 -17 -17z"/>
<path d="M3326 7303 c-11 -11 -6 -23 9 -23 8 0 15 4 15 9 0 13 -16 22 -24 14z"/>
<path d="M3260 7205 c0 -8 5 -15 10 -15 6 0 10 7 10 15 0 8 -4 15 -10 15 -5 0
-10 -7 -10 -15z"/>
<path d="M3469 4862 c-122 -92 -164 -125 -242 -192 -88 -74 -104 -100 -93
-142 12 -46 22 -53 49 -36 30 20 208 199 263 264 56 67 90 135 67 134 -5 -1
-24 -13 -44 -28z"/>
<path d="M3680 4110 c0 -5 7 -10 15 -10 8 0 15 5 15 10 0 6 -7 10 -15 10 -8 0
-15 -4 -15 -10z"/>
<path d="M3793 4103 c-18 -7 -16 -30 3 -37 28 -11 54 -6 54 9 0 12 -31 37 -42
34 -2 0 -9 -3 -15 -6z"/>
<path d="M4036 4034 c-9 -24 -5 -25 60 -22 l59 3 -52 18 c-63 21 -59 21 -67 1z"/>
<path d="M3945 4020 c3 -5 15 -10 26 -10 10 0 19 5 19 10 0 6 -12 10 -26 10
-14 0 -23 -4 -19 -10z"/>
<path d="M4416 2464 c-8 -21 2 -37 20 -30 7 3 16 0 20 -6 4 -7 10 -5 16 6 11
20 1 39 -18 32 -8 -3 -14 -1 -14 4 0 16 -17 11 -24 -6z"/>
<path d="M4271 2241 c-20 -13 -6 -41 21 -41 16 0 19 3 11 11 -6 6 -9 18 -6 25
6 16 -5 18 -26 5z"/>
<path d="M3865 1299 c-5 -37 -4 -54 5 -59 8 -5 11 -19 7 -37 -6 -29 5 -99 18
-111 3 -4 10 0 15 8 11 18 6 120 -6 128 -5 4 -9 31 -9 61 0 72 -21 79 -30 10z"/>
<path d="M3897 1073 c-11 -10 -8 -51 3 -58 6 -4 10 8 10 29 0 37 -2 41 -13 29z"/>
<path d="M3870 815 c0 -8 5 -15 10 -15 6 0 10 7 10 15 0 8 -4 15 -10 15 -5 0
-10 -7 -10 -15z"/>
<path d="M3654 655 c-3 -8 -3 -19 1 -25 11 -18 25 -11 25 15 0 27 -17 34 -26
10z"/>
<path d="M2600 2483 c1 -18 18 -35 24 -24 4 6 4 16 1 21 -7 12 -25 13 -25 3z"/>
<path d="M2240 3166 c0 -14 5 -28 10 -31 6 -4 10 7 10 24 0 17 -4 31 -10 31
-5 0 -10 -11 -10 -24z"/>
</g>
</svg>
