<?xml version="1.0" standalone="no"?>
<!DOCTYPE svg PUBLIC "-//W3C//DTD SVG 20010904//EN"
 "http://www.w3.org/TR/2001/REC-SVG-20010904/DTD/svg10.dtd">
<svg version="1.0" xmlns="http://www.w3.org/2000/svg"
 width="300.000000pt" height="279.000000pt" viewBox="0 0 300.000000 279.000000"
 preserveAspectRatio="xMidYMid meet">
<metadata>
Created by potrace 1.10, written by Peter Selinger 2001-2011
</metadata>
<g transform="translate(0.000000,279.000000) scale(0.100000,-0.100000)"
fill="#0000ff" stroke="none">
<path d="M1280 2639 c-103 -37 -145 -47 -153 -36 -5 8 -7 5 -5 -8 2 -11 -2
-20 -9 -20 -7 0 -22 -8 -33 -18 -12 -10 -25 -15 -30 -12 -6 3 -7 -1 -4 -9 4
-11 0 -16 -11 -16 -9 0 -33 -16 -52 -35 -19 -19 -38 -35 -42 -36 -3 0 -17 -14
-30 -31 l-25 -30 25 6 c13 3 18 3 12 0 -15 -7 -18 -34 -4 -34 5 0 12 14 16 30
4 17 20 40 35 52 16 12 27 25 24 29 -2 4 6 11 18 15 13 4 36 18 52 31 49 41
145 84 220 98 80 15 163 8 256 -21 30 -10 61 -19 68 -20 28 -5 122 -69 164
-110 44 -45 64 -55 54 -29 -3 8 0 14 6 12 6 -1 13 5 15 13 3 9 1 11 -4 5 -7
-10 -22 -12 -48 -6 -5 1 -1 7 10 12 19 9 19 9 -2 5 -24 -4 -59 26 -48 43 3 7
0 8 -9 5 -9 -3 -16 -1 -16 5 0 6 -6 11 -14 11 -7 0 -24 8 -37 19 -13 10 -52
27 -86 37 -34 10 -59 22 -57 26 3 4 -1 5 -9 2 -8 -3 -34 2 -58 10 -48 17 -149
19 -189 5z"/>
<path d="M1300 2587 c0 -5 9 -11 19 -14 11 -3 22 -11 25 -18 3 -8 18 -14 33
-13 15 0 50 -5 77 -11 27 -7 51 -9 54 -6 3 3 -2 5 -11 5 -9 0 -17 4 -17 9 0 5
-9 13 -20 16 -11 4 -18 10 -15 15 3 5 0 12 -6 16 -8 4 -9 3 -5 -4 9 -15 -6
-16 -20 -2 -13 13 -114 19 -114 7z m80 -10 c11 3 20 0 20 -6 0 -6 6 -11 14
-11 8 0 17 -4 20 -9 5 -8 -13 -4 -82 15 -8 2 -10 9 -6 16 5 8 9 9 11 1 2 -6
13 -9 23 -6z"/>
<path d="M1460 2591 c0 -10 27 -41 36 -41 7 0 -15 38 -26 45 -6 3 -10 2 -10
-4z"/>
<path d="M1270 2583 c0 -8 -14 -13 -37 -13 -53 0 -34 -10 28 -15 33 -3 49 -1
40 4 -7 5 -17 15 -22 22 -6 10 -9 11 -9 2z"/>
<path d="M1523 2566 c9 -7 17 -16 17 -19 0 -4 -8 -3 -17 0 -16 6 -16 5 -4 -10
11 -15 15 -15 25 -3 6 7 17 15 24 17 7 2 -5 9 -25 16 -31 9 -35 9 -20 -1z"/>
<path d="M1566 2526 c-18 -15 -36 -22 -54 -19 -24 4 -24 3 6 -11 18 -9 31 -20
27 -26 -3 -5 0 -8 7 -5 14 5 84 -33 76 -41 -3 -2 -18 2 -34 11 -17 9 -53 14
-89 14 -44 -1 -53 -3 -35 -9 14 -4 37 -5 52 -3 31 6 110 -26 101 -40 -3 -6 -1
-7 5 -3 6 4 22 2 34 -5 19 -9 21 -9 11 2 -18 18 -16 34 2 19 8 -7 15 -19 15
-26 0 -17 17 -19 22 -3 3 8 10 6 20 -5 10 -10 19 -12 23 -6 3 5 1 10 -5 10 -6
0 -9 4 -6 8 2 4 0 14 -6 22 -8 12 -9 12 -4 -2 3 -10 1 -18 -4 -18 -6 0 -10 5
-10 12 0 6 -3 8 -7 5 -3 -4 -14 0 -24 9 -14 12 -22 13 -38 5 -16 -9 -19 -9
-15 2 6 17 -50 67 -74 67 -15 0 -15 1 0 16 15 15 19 14 47 -17 18 -20 31 -28
31 -20 0 10 13 2 35 -19 19 -19 35 -29 35 -23 0 7 -7 18 -15 26 -8 8 -11 18
-7 22 4 5 2 5 -4 2 -6 -4 -20 3 -30 14 -10 11 -24 17 -32 14 -8 -3 -12 0 -10
7 6 18 24 20 39 5 8 -7 22 -16 32 -20 11 -4 21 -16 24 -28 5 -16 8 -18 15 -7
6 9 7 6 3 -9 -3 -13 -2 -23 3 -23 5 0 12 8 14 18 4 13 -9 28 -46 54 -70 48
-97 53 -130 24z m44 4 c0 -5 -4 -10 -10 -10 -5 0 -10 5 -10 10 0 6 5 10 10 10
6 0 10 -4 10 -10z m30 -40 c0 -5 -4 -10 -10 -10 -5 0 -10 5 -10 10 0 6 5 10
10 10 6 0 10 -4 10 -10z"/>
<path d="M1157 2530 c-52 -9 -65 -16 -53 -27 4 -4 16 -2 26 5 11 7 20 8 20 2
0 -14 -35 -30 -68 -30 -16 0 -35 -7 -42 -15 -11 -14 -10 -14 15 -5 53 20 36 2
-30 -31 -36 -18 -61 -36 -55 -39 7 -4 6 -11 -5 -20 -9 -7 -13 -21 -10 -31 6
-18 -4 -24 -28 -20 -5 1 -6 -3 -3 -8 4 -5 0 -12 -6 -14 -10 -4 -10 -6 0 -6 6
-1 12 -6 12 -12 0 -6 -7 -9 -14 -6 -10 4 -13 1 -9 -9 7 -18 11 -18 30 2 11 11
13 18 5 23 -6 4 12 21 44 41 29 19 54 41 54 48 0 6 5 12 11 12 5 0 7 -4 4 -10
-14 -23 15 -7 56 30 34 30 40 39 25 40 -11 0 -16 -3 -13 -7 11 -10 -55 -46
-93 -50 l-35 -3 30 19 c22 15 31 17 37 8 7 -11 12 -3 9 16 0 4 5 7 13 7 8 0
16 4 18 8 5 12 74 52 89 52 8 0 4 -8 -10 -19 -14 -10 -26 -27 -27 -36 -4 -29
-56 -75 -124 -110 -36 -18 -64 -38 -62 -45 2 -7 -4 -20 -13 -30 -15 -16 -14
-17 10 -17 19 0 23 3 15 12 -9 11 -4 25 10 25 18 0 0 -41 -31 -70 -18 -18 -26
-30 -16 -27 25 9 21 -8 -5 -20 -21 -9 -21 -10 -3 -17 11 -4 16 -4 13 0 -4 3 5
17 20 30 21 18 24 26 14 32 -11 7 -9 10 7 15 13 3 21 13 21 26 0 33 39 84 79
105 l36 18 -19 -21 -20 -22 35 6 c18 3 38 10 44 16 5 5 14 9 19 9 6 0 0 -7
-12 -16 -12 -8 -20 -20 -17 -25 4 -5 -1 -9 -10 -9 -9 0 -13 -4 -10 -10 3 -5 2
-10 -4 -10 -5 0 -11 6 -14 13 -3 9 -9 9 -26 -1 -12 -7 -21 -8 -21 -2 0 21 -18
9 -26 -17 -15 -53 -13 -64 10 -57 18 6 19 5 7 -9 -7 -9 -16 -15 -20 -13 -9 6
-46 -23 -38 -30 4 -4 13 -1 22 6 8 7 15 9 15 4 1 -5 14 6 29 24 34 39 98 55
122 30 7 -8 23 -13 34 -10 21 4 98 82 89 91 -2 3 -23 -14 -44 -37 -22 -23 -45
-42 -51 -42 -8 0 -8 5 1 15 8 9 9 15 2 15 -6 0 -14 -4 -17 -10 -3 -5 -11 -10
-17 -10 -6 0 -1 11 12 25 22 24 23 27 7 42 -15 15 -16 15 -12 -9 4 -20 0 -27
-18 -32 -45 -12 -52 -6 -23 19 16 14 23 25 16 25 -7 0 -1 9 14 21 15 12 26 30
26 45 0 15 6 24 15 24 9 0 15 7 13 16 -4 19 75 43 123 38 19 -2 28 0 23 7 -9
15 -104 8 -137 -10 -16 -9 -25 -21 -22 -29 3 -10 0 -12 -10 -9 -8 4 -17 2 -20
-4 -4 -5 -12 -6 -18 -2 -7 3 -4 -3 6 -14 16 -19 16 -21 2 -27 -24 -9 -25 -8
-18 12 6 15 5 15 -10 3 -9 -7 -15 -17 -12 -21 3 -5 1 -11 -4 -14 -5 -3 -11 1
-15 9 -3 9 8 30 27 52 18 20 30 37 27 39 -3 1 -1 6 4 11 5 5 6 2 1 -6 -6 -10
-2 -12 16 -6 13 4 31 13 40 21 8 7 48 17 88 20 76 7 77 17 2 27 -29 4 -40 2
-30 -4 10 -6 5 -9 -18 -9 -17 0 -33 -4 -35 -8 -1 -5 -23 -3 -48 4 l-45 12 35
1 c19 1 42 6 50 11 18 12 -11 12 -83 0z m63 -50 c0 -5 -7 -10 -16 -10 -8 0
-12 5 -9 10 3 6 10 10 16 10 5 0 9 -4 9 -10z m-215 -120 c-39 -26 -53 -26 -30
0 10 11 28 20 39 20 18 0 17 -3 -9 -20z m19 -49 c-10 -10 -23 -16 -27 -14 -5
3 0 11 10 19 27 20 39 17 17 -5z m84 -37 c-1 -5 -10 -9 -18 -9 -8 0 -14 -7
-14 -16 1 -11 -5 -15 -17 -12 -15 4 -16 8 -6 24 14 23 64 34 55 13z"/>
<path d="M1260 2530 c0 -5 5 -10 11 -10 5 0 7 5 4 10 -3 6 -8 10 -11 10 -2 0
-4 -4 -4 -10z"/>
<path d="M1418 2513 c7 -3 16 -2 19 1 4 3 -2 6 -13 5 -11 0 -14 -3 -6 -6z"/>
<path d="M1405 2490 c-15 -6 -11 -8 17 -6 20 1 40 5 44 9 10 10 -36 8 -61 -3z"/>
<path d="M1402 2464 c-12 -8 -26 -13 -31 -10 -5 3 -11 -1 -14 -9 -5 -10 -19
-13 -57 -10 -45 3 -49 2 -34 -12 8 -9 13 -22 10 -30 -4 -10 -1 -11 12 -5 9 5
43 21 74 36 31 16 62 34 69 42 15 19 -1 18 -29 -2z m-82 -44 c0 -5 -7 -10 -16
-10 -8 0 -12 5 -9 10 3 6 10 10 16 10 5 0 9 -4 9 -10z"/>
<path d="M1485 2470 c-13 -5 -14 -9 -5 -9 8 0 24 4 35 9 13 5 14 9 5 9 -8 0
-24 -4 -35 -9z"/>
<path d="M1414 2435 c-10 -8 -14 -15 -8 -15 6 0 17 7 24 15 16 19 9 19 -16 0z"/>
<path d="M1762 2429 c2 -14 17 -34 36 -47 37 -26 40 -32 12 -25 -11 3 -20 9
-20 14 0 5 -4 9 -10 9 -22 0 -8 -17 35 -40 26 -14 49 -36 56 -52 6 -16 17 -32
24 -36 6 -4 17 -16 23 -27 7 -13 11 -15 12 -6 0 8 -10 25 -22 38 -12 13 -18
26 -15 30 4 3 17 -4 29 -17 20 -21 22 -35 24 -164 1 -78 5 -157 9 -176 5 -19
8 -76 8 -126 0 -76 -4 -99 -26 -148 -15 -32 -27 -64 -27 -70 0 -17 -37 -37
-55 -30 -10 4 -13 13 -10 24 3 10 2 21 -4 24 -5 3 -8 -8 -6 -27 7 -89 -63
-378 -125 -513 -17 -38 -47 -110 -65 -161 -19 -51 -40 -102 -47 -115 -7 -13
-14 -30 -15 -38 -3 -23 -28 -89 -37 -97 -5 -5 -5 3 -1 16 5 17 4 21 -5 16 -7
-4 -9 -17 -5 -33 4 -18 -17 -83 -79 -241 -47 -119 -101 -259 -121 -311 l-35
-95 5 120 c3 66 7 146 9 178 1 31 -1 57 -6 57 -4 0 -8 -12 -8 -27 -1 -16 -3
-66 -6 -113 -13 -229 -13 -216 7 -217 11 -1 19 4 19 10 0 7 4 6 11 -3 8 -12 9
-11 5 5 -3 11 2 34 10 50 8 17 12 22 9 12 -3 -11 -1 -15 6 -12 5 4 7 16 4 26
-4 11 -2 25 3 32 5 7 15 33 22 59 7 26 16 45 20 43 5 -3 6 4 3 15 -6 22 12 28
21 8 3 -7 3 0 -1 15 -3 16 -1 38 5 50 20 44 40 93 52 132 20 62 46 116 53 109
3 -4 5 2 5 12 -2 31 22 104 34 104 7 0 6 -5 -2 -15 -9 -11 -9 -15 -1 -15 7 0
9 -5 5 -12 -4 -6 -3 -8 3 -5 11 7 11 43 0 53 -11 11 -8 26 3 19 6 -4 7 1 3 11
-5 13 -3 15 7 9 9 -5 11 -4 6 4 -4 6 -4 17 2 24 5 7 15 33 22 60 7 26 17 50
21 53 13 8 11 -20 -3 -34 -6 -6 -9 -15 -5 -18 3 -4 12 5 18 19 9 20 9 30 0 40
-9 11 -8 17 4 27 9 7 14 19 11 27 -3 8 1 16 9 19 8 4 13 10 10 14 -5 8 41 128
57 148 6 6 7 12 4 12 -4 0 0 12 8 28 8 15 17 35 20 45 3 10 9 16 13 14 5 -3 9
20 10 51 2 65 12 122 22 122 3 0 6 15 5 32 -1 18 4 52 11 75 7 23 10 44 7 47
-3 4 4 6 15 6 26 0 47 24 73 82 11 26 25 50 31 53 5 4 7 16 4 26 -4 11 -1 26
5 34 7 9 9 27 5 47 -5 24 -3 29 4 18 8 -11 9 3 7 49 -3 35 -9 67 -16 71 -6 3
-8 14 -5 22 4 9 2 19 -4 23 -6 3 -11 11 -11 17 0 6 10 3 22 -8 21 -19 21 -18
-1 12 -23 32 -24 38 -17 222 0 23 -2 42 -5 42 -4 0 -9 8 -13 18 -3 9 -8 22
-11 28 -3 6 5 16 17 23 15 7 16 10 4 6 -23 -7 -47 22 -41 50 3 11 2 15 -1 8
-7 -15 -44 5 -44 23 0 20 -27 37 -36 23 -4 -8 9 -26 37 -50 24 -20 41 -40 38
-43 -3 -4 -12 0 -19 9 -7 8 -17 15 -23 15 -5 0 0 -9 13 -20 12 -11 27 -17 33
-13 6 3 7 1 3 -6 -4 -6 -15 -10 -24 -9 -17 3 -52 39 -52 55 -1 16 -40 54 -50
48 -5 -3 -7 0 -4 8 3 8 -2 20 -11 27 -13 11 -15 9 -13 -11z"/>
<path d="M1899 2423 c-13 -16 -12 -17 4 -4 9 7 17 15 17 17 0 8 -8 3 -21 -13z"/>
<path d="M1447 2399 c4 -15 9 -16 29 -7 27 13 23 23 -10 23 -17 1 -22 -4 -19
-16z"/>
<path d="M1533 2413 c9 -2 23 -2 30 0 6 3 -1 5 -18 5 -16 0 -22 -2 -12 -5z"/>
<path d="M1240 2400 c-8 -5 -11 -12 -7 -16 4 -4 15 0 24 9 18 18 8 23 -17 7z"/>
<path d="M1414 2397 c1 -7 5 -18 10 -25 6 -10 3 -12 -10 -10 -11 2 -18 -2 -17
-9 2 -6 -6 -15 -17 -18 -11 -4 -20 -11 -20 -16 0 -12 83 36 88 51 2 5 -5 10
-15 10 -14 0 -15 2 -5 9 11 7 11 9 -1 14 -8 3 -14 0 -13 -6z"/>
<path d="M1327 2380 c-31 -10 -66 -16 -77 -13 -32 8 -23 -11 10 -24 17 -6 28
-8 25 -3 -8 13 24 20 50 10 19 -7 25 -6 25 5 0 7 9 17 20 20 11 3 20 11 20 16
0 11 -3 11 -73 -11z"/>
<path d="M1564 2384 c9 -8 16 -25 17 -37 l0 -22 9 23 c5 12 14 22 20 22 6 0 8
5 4 11 -5 8 -8 8 -14 0 -5 -9 -10 -8 -20 4 -7 8 -17 15 -22 15 -5 0 -2 -7 6
-16z"/>
<path d="M1519 2373 c27 -11 32 -18 28 -38 -2 -14 0 -25 4 -25 14 0 11 50 -3
64 -7 6 -24 12 -38 13 -22 1 -21 -1 9 -14z"/>
<path d="M877 2304 c-20 -102 -43 -166 -50 -138 -4 15 -5 14 -5 -6 -1 -14 5
-43 13 -65 8 -22 15 -62 15 -90 1 -34 4 -44 9 -30 8 21 6 80 -4 131 -4 18 0
53 10 85 36 119 45 161 36 176 -6 11 -13 -7 -24 -63z"/>
<path d="M1440 2340 c-33 -29 -33 -30 -10 -30 13 0 20 3 17 7 -4 3 1 12 11 19
23 18 37 17 22 -1 -7 -9 -11 -18 -8 -21 3 -2 12 6 21 20 15 22 15 25 1 30 -19
7 -13 10 -54 -24z"/>
<path d="M1653 2364 c9 -3 17 -12 17 -19 0 -8 4 -17 10 -20 6 -4 7 2 1 17 -4
13 -17 24 -27 25 -16 2 -16 1 -1 -3z"/>
<path d="M1710 2360 c0 -6 -4 -8 -10 -5 -10 6 42 -154 60 -187 6 -10 6 -18 0
-20 -13 -4 8 -78 22 -78 5 0 8 7 4 15 -6 17 9 21 19 4 4 -6 0 -16 -9 -22 -14
-10 -15 -20 -6 -66 5 -29 10 -72 10 -95 0 -31 5 -44 22 -55 19 -12 23 -11 39
10 10 13 19 29 19 34 0 6 -5 3 -11 -5 -9 -12 -10 -11 -6 8 3 12 1 20 -4 16 -5
-3 -9 6 -9 20 0 15 -5 25 -12 24 -9 -2 -13 14 -13 55 -1 58 8 74 20 36 4 -11
9 -18 11 -16 6 6 -17 58 -33 75 -7 7 -13 19 -13 26 0 8 -7 19 -15 26 -8 7 -15
23 -15 36 0 13 -4 24 -9 24 -5 0 -9 6 -8 13 1 39 -6 59 -29 82 -14 14 -24 29
-21 32 3 3 20 -10 36 -28 22 -24 31 -29 31 -17 0 9 -5 20 -10 23 -6 4 -7 12
-4 18 4 7 3 9 -1 4 -5 -4 -19 0 -32 8 -14 9 -23 11 -23 5z m130 -493 c-10 -10
-12 -8 -7 6 4 9 2 17 -4 17 -6 0 -8 7 -5 16 3 8 2 12 -4 9 -6 -3 -10 -2 -10 4
0 5 6 11 13 14 18 6 34 -51 17 -66z"/>
<path d="M1511 2332 c-6 -11 -7 -22 -4 -26 3 -3 -8 -6 -26 -6 -19 0 -30 -4
-26 -10 3 -5 20 -10 36 -10 23 0 30 4 27 18 -1 9 1 23 6 30 4 7 6 16 3 19 -3
2 -10 -4 -16 -15z"/>
<path d="M1610 2343 c8 -4 21 -12 28 -20 7 -7 19 -13 25 -12 9 0 8 2 0 6 -7 2
-13 11 -13 19 0 9 -10 14 -27 13 -17 0 -22 -3 -13 -6z"/>
<path d="M1225 2329 c-4 -6 -5 -13 -2 -16 7 -7 27 6 27 18 0 12 -17 12 -25 -2z"/>
<path d="M1065 2320 c3 -5 11 -10 16 -10 6 0 7 5 4 10 -3 6 -11 10 -16 10 -6
0 -7 -4 -4 -10z"/>
<path d="M1335 2320 c3 -5 8 -10 11 -10 2 0 4 5 4 10 0 6 -5 10 -11 10 -5 0
-7 -4 -4 -10z"/>
<path d="M1798 2325 c-7 -8 13 -66 30 -83 6 -7 12 -25 12 -40 0 -18 3 -23 10
-16 8 8 6 24 -4 55 l-15 44 20 -24 c10 -13 19 -19 19 -14 0 14 -65 84 -72 78z"/>
<path d="M1250 2310 c-8 -5 -11 -12 -8 -16 4 -3 14 1 23 10 18 17 9 21 -15 6z"/>
<path d="M1610 2306 c0 -2 7 -9 15 -16 13 -11 14 -10 9 4 -5 14 -24 23 -24 12z"/>
<path d="M1365 2293 c-22 -6 -85 -63 -68 -63 5 0 20 9 33 20 13 11 35 23 49
26 14 3 35 9 46 14 17 7 15 9 -10 8 -16 0 -39 -3 -50 -5z"/>
<path d="M1540 2289 c0 -6 -9 -24 -20 -39 -13 -18 -16 -31 -10 -35 16 -10 12
-25 -7 -25 -15 0 -16 -2 -3 -10 19 -12 31 7 23 37 -3 13 -1 23 4 23 6 0 15 11
21 25 15 32 15 35 2 35 -5 0 -10 -5 -10 -11z"/>
<path d="M1565 2251 c-8 -17 -11 -32 -7 -35 4 -2 12 11 18 30 13 42 9 44 -11
5z"/>
<path d="M1603 2243 c2 -23 11 -49 20 -58 15 -15 19 -15 32 -1 8 8 15 21 15
28 -1 8 -6 6 -15 -6 -15 -20 -15 -20 -29 0 -8 10 -11 21 -6 24 5 3 2 16 -6 30
-14 24 -14 24 -11 -17z"/>
<path d="M1681 2264 c0 -11 3 -14 6 -6 3 7 2 16 -1 19 -3 4 -6 -2 -5 -13z"/>
<path d="M1395 2255 c-41 -18 -7 -19 36 0 23 10 28 14 14 14 -11 0 -33 -6 -50
-14z"/>
<path d="M1483 2263 c-15 -6 -17 -33 -3 -33 6 0 10 6 10 14 0 8 6 17 13 19 6
3 8 5 2 5 -5 0 -16 -2 -22 -5z"/>
<path d="M1700 2245 c0 -5 5 -17 10 -25 5 -8 10 -10 10 -5 0 6 -5 17 -10 25
-5 8 -10 11 -10 5z"/>
<path d="M896 2208 c-11 -18 -15 -30 -11 -26 4 4 15 2 23 -5 13 -10 14 -8 8
11 -4 12 -3 22 2 22 5 0 9 7 9 15 0 24 -11 18 -31 -17z"/>
<path d="M1663 2227 c10 -6 21 -26 26 -42 l9 -30 1 27 c1 27 -21 58 -42 58 -6
0 -3 -6 6 -13z"/>
<path d="M1785 2230 c3 -5 8 -10 11 -10 2 0 4 5 4 10 0 6 -5 10 -11 10 -5 0
-7 -4 -4 -10z"/>
<path d="M1891 2234 c-1 -6 4 -25 10 -43 12 -33 29 -42 29 -14 0 9 -3 13 -7 9
-4 -4 -13 8 -19 26 -7 18 -13 28 -13 22z"/>
<path d="M1866 2215 c4 -8 8 -15 10 -15 2 0 4 7 4 15 0 8 -4 15 -10 15 -5 0
-7 -7 -4 -15z"/>
<path d="M1981 2204 c0 -11 3 -14 6 -6 3 7 2 16 -1 19 -3 4 -6 -2 -5 -13z"/>
<path d="M1265 2200 c-3 -5 -1 -10 4 -10 6 0 11 5 11 10 0 6 -2 10 -4 10 -3 0
-8 -4 -11 -10z"/>
<path d="M1797 2203 c-3 -5 -2 -15 2 -22 7 -10 10 -10 16 -1 4 6 3 16 -3 22
-5 5 -12 6 -15 1z"/>
<path d="M1405 2190 c-3 -5 1 -10 9 -10 9 0 16 5 16 10 0 6 -4 10 -9 10 -6 0
-13 -4 -16 -10z"/>
<path d="M1570 2190 c0 -5 5 -10 10 -10 6 0 10 5 10 10 0 6 -4 10 -10 10 -5 0
-10 -4 -10 -10z"/>
<path d="M1440 2179 c0 -5 5 -7 10 -4 6 3 10 8 10 11 0 2 -4 4 -10 4 -5 0 -10
-5 -10 -11z"/>
<path d="M1277 2161 c-4 -17 -3 -21 5 -13 5 5 8 16 6 23 -3 8 -7 3 -11 -10z"/>
<path d="M1850 2165 c-7 -8 -16 -13 -20 -10 -5 3 -6 -5 -3 -16 l6 -22 17 23
18 23 11 -21 c6 -11 8 -29 4 -39 -4 -14 -3 -15 6 -7 9 8 10 21 4 44 -10 39
-25 47 -43 25z"/>
<path d="M884 2161 c4 -5 1 -11 -5 -13 -8 -3 -8 -20 0 -63 6 -32 11 -77 11
-100 0 -22 4 -45 9 -50 17 -19 22 -70 8 -88 -11 -16 -13 -14 -14 22 -1 23 -7
49 -12 58 -9 14 -10 9 -5 -22 3 -22 6 -103 7 -181 2 -150 7 -167 52 -178 18
-5 26 -15 31 -44 10 -53 44 -142 55 -142 5 0 9 -16 9 -36 0 -19 5 -54 11 -78
16 -65 -2 -122 -41 -131 -17 -4 -30 -11 -30 -16 0 -5 -3 -8 -7 -7 -7 2 -113
-21 -193 -42 -19 -5 -61 -12 -92 -16 -32 -4 -55 -11 -52 -16 3 -4 9 -6 13 -4
4 3 41 8 82 12 41 3 75 10 77 15 2 5 21 9 41 9 21 0 41 3 45 7 11 11 50 10 57
0 4 -5 21 5 39 22 18 17 37 31 41 31 14 0 10 -17 -6 -34 -17 -16 -21 -41 -5
-31 6 4 10 -22 10 -72 0 -93 -9 -155 -21 -147 -5 3 -9 -7 -9 -23 -1 -15 -7
-45 -14 -65 -8 -21 -10 -35 -5 -33 4 3 4 -8 -2 -25 -5 -16 -13 -44 -19 -61 -5
-17 -14 -64 -19 -104 -13 -94 -28 -135 -42 -115 -9 13 -10 13 -6 0 2 -8 10
-14 17 -12 9 2 11 -5 6 -25 -4 -15 -11 -82 -17 -148 -6 -66 -14 -123 -18 -127
-9 -11 -1 -88 10 -88 5 0 9 12 10 28 2 123 51 440 103 680 8 35 12 72 9 83 -3
10 0 19 6 19 17 0 25 -51 12 -74 -10 -17 -9 -17 9 3 22 26 26 17 10 -25 -9
-24 -9 -25 5 -14 26 22 18 -14 -15 -67 -25 -39 -30 -55 -25 -83 3 -20 1 -49
-5 -65 -17 -44 -70 -249 -65 -253 2 -2 9 16 15 39 6 24 19 71 29 104 10 33 24
79 31 102 7 23 10 55 7 72 -5 23 0 40 20 71 15 22 30 40 35 40 15 0 8 -26 -12
-50 -22 -25 -23 -29 -20 -78 1 -18 -8 -61 -19 -95 -31 -91 -60 -227 -54 -245
4 -9 2 -13 -4 -9 -6 4 -13 -15 -17 -49 -3 -31 -13 -69 -21 -84 -8 -16 -15 -35
-15 -42 1 -35 62 117 65 164 8 90 17 138 27 132 6 -4 9 -3 5 2 -6 11 15 110
30 140 6 10 11 45 12 78 2 46 8 64 26 84 14 14 28 23 32 18 4 -4 3 -10 -3 -14
-26 -17 -56 -162 -33 -162 5 0 9 20 9 44 0 52 10 82 39 115 12 13 21 38 21 55
1 17 7 44 14 61 10 24 10 35 0 54 -7 13 -10 29 -8 36 5 13 34 16 34 3 0 -5 11
-1 25 8 14 9 23 19 21 22 -3 3 -12 -1 -20 -7 -10 -8 -21 -9 -32 -3 -14 8 -11
13 17 35 19 15 29 27 23 27 -5 0 -15 -5 -22 -12 -16 -16 -23 -8 -76 97 -25 50
-46 83 -46 75 0 -8 14 -42 30 -75 16 -33 30 -65 30 -72 0 -6 9 -18 21 -26 14
-11 17 -17 8 -22 -17 -11 -69 -130 -69 -159 0 -14 9 -34 21 -45 11 -10 16 -22
11 -25 -16 -10 -41 28 -56 84 -16 64 -22 396 -7 446 6 21 4 48 -5 85 -8 29
-14 69 -14 88 0 19 -6 42 -13 50 -24 28 -57 137 -59 192 -1 37 -2 44 -5 21 -4
-29 -8 -33 -30 -30 -25 3 -25 3 -29 125 -5 114 -4 124 16 151 l22 30 -19 43
c-14 30 -19 64 -18 107 1 35 -2 57 -7 50 -5 -8 -8 1 -8 24 0 20 5 40 10 43 12
7 4 25 -11 25 -6 0 -8 -4 -5 -9z m259 -1394 c3 -8 2 -20 -3 -26 -5 -9 -7 -4
-7 13 0 29 2 32 10 13z m-21 -58 c-11 -4 -12 -8 -4 -13 14 -8 16 -26 3 -26
-12 0 -22 45 -15 64 6 15 8 15 19 -1 11 -15 11 -19 -3 -24z"/>
<path d="M985 2160 c3 -5 1 -10 -5 -10 -6 0 -18 -7 -26 -15 -20 -20 -11 -19
31 4 27 14 32 20 19 25 -22 8 -26 8 -19 -4z"/>
<path d="M1067 2155 c3 -8 9 -12 14 -9 12 7 11 11 -5 17 -10 4 -13 1 -9 -8z"/>
<path d="M1455 2150 c-3 -6 1 -7 9 -4 18 7 21 14 7 14 -6 0 -13 -4 -16 -10z"/>
<path d="M910 2126 c0 -9 5 -16 10 -16 6 0 10 4 10 9 0 6 -4 13 -10 16 -5 3
-10 -1 -10 -9z"/>
<path d="M1702 2121 c-11 -7 -11 -9 2 -14 10 -4 16 -1 16 8 0 17 -1 17 -18 6z"/>
<path d="M1910 2123 c0 -4 5 -15 10 -23 8 -13 10 -13 10 2 0 9 -4 20 -10 23
-5 3 -10 3 -10 -2z"/>
<path d="M997 2103 c3 -7 11 -13 18 -13 7 0 15 6 18 13 3 7 -4 12 -18 12 -14
0 -21 -5 -18 -12z"/>
<path d="M1076 2111 c-4 -5 -2 -12 3 -15 5 -4 12 -2 15 3 4 5 2 12 -3 15 -5 4
-12 2 -15 -3z"/>
<path d="M1861 2104 c0 -11 3 -14 6 -6 3 7 2 16 -1 19 -3 4 -6 -2 -5 -13z"/>
<path d="M960 2108 c0 -2 -7 -21 -15 -43 -15 -39 -16 -39 -12 -7 2 17 -1 32
-6 32 -6 0 -7 -16 -4 -37 26 -165 28 -183 17 -204 -11 -19 -10 -20 9 -9 12 6
21 12 21 13 2 42 22 172 28 181 22 28 20 43 -9 60 -16 9 -29 16 -29 14z m29
-44 c-13 -16 -22 -12 -25 10 -1 9 5 12 17 9 15 -4 17 -8 8 -19z m-19 -53 c0
-12 -20 -25 -27 -18 -7 7 6 27 18 27 5 0 9 -4 9 -9z"/>
<path d="M1530 2079 c0 -5 -5 -7 -12 -3 -7 4 -8 3 -4 -4 4 -6 2 -21 -4 -32
-14 -26 -2 -26 26 1 12 12 20 27 17 35 -6 16 -23 19 -23 3z"/>
<path d="M1570 2067 c0 -22 4 -26 30 -25 17 1 30 5 30 10 0 4 15 8 33 9 17 0
26 3 19 6 -6 2 -10 9 -6 14 3 5 -4 9 -14 9 -11 0 -22 -7 -26 -15 -7 -20 -25
-19 -48 2 -17 15 -18 15 -18 -10z"/>
<path d="M1906 2053 c9 -51 14 -54 14 -10 0 20 -5 39 -11 42 -7 5 -8 -5 -3
-32z"/>
<path d="M1235 2070 c3 -5 11 -10 16 -10 6 0 7 5 4 10 -3 6 -11 10 -16 10 -6
0 -7 -4 -4 -10z"/>
<path d="M1876 2036 c3 -27 2 -46 -3 -43 -5 3 -7 -8 -4 -26 3 -23 6 -27 9 -12
2 11 8 25 13 31 5 6 3 29 -6 55 l-15 44 6 -49z"/>
<path d="M1200 2062 c0 -4 -10 -12 -22 -17 -29 -13 -36 -35 -9 -28 12 3 21 8
21 12 0 4 16 5 35 3 43 -5 45 2 5 22 -16 8 -30 11 -30 8z"/>
<path d="M1045 2050 c3 -5 8 -10 11 -10 2 0 4 5 4 10 0 6 -5 10 -11 10 -5 0
-7 -4 -4 -10z"/>
<path d="M1470 2050 c0 -5 5 -10 10 -10 6 0 10 5 10 10 0 6 -4 10 -10 10 -5 0
-10 -4 -10 -10z"/>
<path d="M1090 2040 c0 -6 11 -10 25 -10 14 0 25 4 25 8 0 4 -11 9 -25 10 -14
1 -25 -3 -25 -8z"/>
<path d="M1664 2029 c0 -10 5 -15 10 -12 5 4 7 -1 4 -9 -5 -12 0 -14 20 -9 19
3 22 6 10 9 -10 2 -18 10 -18 19 0 12 6 14 27 8 16 -4 24 -3 20 1 -4 5 -23 9
-40 9 -25 1 -33 -3 -33 -16z"/>
<path d="M1282 2010 c3 -21 1 -27 -6 -20 -5 5 -22 10 -37 10 -15 0 -31 5 -35
11 -3 6 -9 7 -13 3 -3 -5 -24 -18 -46 -29 -22 -11 -40 -25 -40 -30 -1 -22 -27
-55 -43 -55 -15 0 -15 2 -2 10 9 6 10 10 3 10 -19 0 -27 -21 -12 -31 20 -13
26 -11 48 12 12 13 25 18 33 13 7 -4 10 -3 5 1 -8 9 20 45 35 45 5 0 8 -8 6
-17 -2 -14 4 -18 30 -18 19 -1 32 4 32 12 0 7 5 13 11 13 6 0 9 -8 7 -18 -4
-12 1 -18 14 -18 24 0 18 15 -15 40 -32 23 -92 24 -118 0 -11 -10 -19 -12 -19
-6 0 18 55 42 97 42 31 0 44 -6 66 -31 34 -40 34 -47 -4 -63 -19 -8 -27 -16
-20 -20 6 -4 24 2 40 14 21 14 32 17 37 9 4 -7 0 -18 -10 -24 -15 -12 -15 -13
4 -18 17 -4 20 0 20 24 0 16 -4 29 -8 29 -8 0 -36 60 -33 73 0 4 -4 7 -10 7
-7 0 -9 10 -5 25 4 16 2 25 -5 25 -7 0 -10 -12 -7 -30z m-62 -61 c0 -5 -4 -7
-10 -4 -5 3 -10 1 -10 -6 0 -7 -3 -10 -6 -6 -8 7 4 27 17 27 5 0 9 -5 9 -11z"/>
<path d="M1440 2032 c0 -5 7 -13 16 -16 10 -4 14 -1 12 6 -5 15 -28 23 -28 10z"/>
<path d="M1040 2010 c0 -11 4 -20 9 -20 5 0 7 9 4 20 -3 11 -7 20 -9 20 -2 0
-4 -9 -4 -20z"/>
<path d="M1070 2010 c0 -5 5 -10 10 -10 6 0 10 5 10 10 0 6 -4 10 -10 10 -5 0
-10 -4 -10 -10z"/>
<path d="M1104 2005 c-4 -8 -14 -15 -23 -16 -9 0 -11 -3 -4 -5 6 -3 24 1 39 9
22 11 24 15 10 20 -10 4 -19 1 -22 -8z"/>
<path d="M1530 2010 c-8 -5 -25 -10 -38 -10 -17 0 -27 -10 -38 -35 -14 -35
-12 -55 7 -55 5 0 9 11 9 25 0 19 10 29 51 49 58 27 97 23 130 -15 22 -26 17
-38 -7 -18 -13 11 -18 11 -21 2 -3 -7 -9 -13 -15 -13 -5 0 -6 9 -3 21 7 21 5
22 -35 16 -23 -3 -50 -13 -61 -23 -20 -18 -27 -40 -9 -29 6 3 15 3 21 -1 8 -4
4 -13 -12 -25 -17 -13 -19 -19 -9 -19 19 0 43 37 30 45 -13 8 -13 35 0 35 6 0
10 -6 10 -14 0 -9 7 -12 19 -9 10 3 28 0 40 -6 16 -9 21 -9 21 0 0 13 49 4 65
-12 7 -7 3 -8 -10 -3 -17 7 -18 6 -5 -8 8 -8 23 -13 33 -10 10 3 14 8 9 11 -5
3 -16 20 -25 36 -8 17 -24 39 -36 49 -24 22 -98 32 -121 16z m50 -50 c0 -5 -7
-10 -16 -10 -8 0 -12 5 -9 10 3 6 10 10 16 10 5 0 9 -4 9 -10z"/>
<path d="M1841 2004 c0 -11 3 -14 6 -6 3 7 2 16 -1 19 -3 4 -6 -2 -5 -13z"/>
<path d="M1907 1983 c-4 -3 -7 -17 -7 -30 0 -12 -5 -23 -10 -23 -6 0 -3 -11 7
-24 10 -13 21 -22 26 -19 11 7 8 -12 -4 -24 -8 -8 -7 -17 5 -34 9 -13 17 -33
17 -44 1 -13 4 -10 8 10 5 19 3 36 -5 45 -7 8 -10 27 -7 43 5 26 -3 33 -30 28
-5 -1 -7 4 -4 11 2 7 12 12 21 11 12 0 15 4 12 14 -3 8 -6 21 -6 29 0 15 -12
19 -23 7z"/>
<path d="M1709 1948 c4 -12 13 -23 20 -24 6 -1 7 0 1 3 -5 2 -10 13 -10 24 0
10 -4 19 -10 19 -5 0 -6 -9 -1 -22z"/>
<path d="M1010 1930 c0 -8 5 -22 10 -30 9 -13 10 -13 10 0 0 8 -5 22 -10 30
-9 13 -10 13 -10 0z"/>
<path d="M1153 1915 c0 -8 9 -15 20 -15 11 0 18 1 16 3 -2 1 -11 8 -20 15 -13
9 -16 9 -16 -3z"/>
<path d="M1584 1895 c-12 -9 -14 -14 -6 -15 7 0 20 7 28 15 20 19 4 20 -22 0z"/>
<path d="M1760 1891 c0 -5 5 -13 10 -16 6 -3 10 -2 10 4 0 5 -4 13 -10 16 -5
3 -10 2 -10 -4z"/>
<path d="M1180 1874 c-22 -12 -23 -13 -5 -13 24 -1 50 14 38 22 -4 3 -19 -1
-33 -9z"/>
<path d="M1011 1864 c0 -11 3 -14 6 -6 3 7 2 16 -1 19 -3 4 -6 -2 -5 -13z"/>
<path d="M1440 1860 c0 -5 5 -10 10 -10 6 0 10 5 10 10 0 6 -4 10 -10 10 -5 0
-10 -4 -10 -10z"/>
<path d="M1675 1860 c-3 -5 1 -10 10 -10 9 0 13 5 10 10 -3 6 -8 10 -10 10 -2
0 -7 -4 -10 -10z"/>
<path d="M1750 1861 c0 -6 14 -17 30 -26 17 -9 30 -14 30 -12 0 2 -13 13 -30
25 -16 13 -30 18 -30 13z"/>
<path d="M1870 1852 c0 -5 7 -13 16 -16 10 -4 14 -1 12 6 -5 15 -28 23 -28 10z"/>
<path d="M1055 1840 c-3 -6 1 -7 9 -4 18 7 21 14 7 14 -6 0 -13 -4 -16 -10z"/>
<path d="M1094 1842 c2 -4 19 -8 38 -9 30 -1 31 -1 8 7 -33 11 -52 12 -46 2z"/>
<path d="M1575 1840 c-3 -5 -1 -10 4 -10 6 0 11 5 11 10 0 6 -2 10 -4 10 -3 0
-8 -4 -11 -10z"/>
<path d="M987 1833 c-4 -3 -7 -17 -7 -29 0 -13 -4 -26 -10 -29 -5 -3 -10 -24
-10 -45 0 -28 4 -38 15 -36 21 3 31 16 12 16 -10 0 -15 8 -14 20 1 11 5 20 9
20 4 0 8 18 8 39 0 22 5 42 13 44 6 3 7 6 1 6 -6 1 -14 -2 -17 -6z"/>
<path d="M1190 1831 c0 -5 9 -7 20 -4 11 3 20 7 20 9 0 2 -9 4 -20 4 -11 0
-20 -4 -20 -9z"/>
<path d="M1281 1810 c-17 -17 -31 -36 -31 -44 0 -8 -7 -16 -15 -20 -17 -6 -21
-36 -5 -36 6 0 10 7 10 15 0 17 16 20 25 5 3 -5 13 -10 21 -10 14 0 13 2 0 16
-21 20 -20 40 2 56 16 11 37 48 28 48 -2 0 -17 -14 -35 -30z"/>
<path d="M1335 1830 c-3 -5 -1 -10 4 -10 6 0 11 5 11 10 0 6 -2 10 -4 10 -3 0
-8 -4 -11 -10z"/>
<path d="M1401 1831 c-7 -5 -9 -11 -5 -14 5 -3 15 1 22 9 14 16 5 18 -17 5z"/>
<path d="M1608 1833 c6 -2 18 -2 25 0 6 3 1 5 -13 5 -14 0 -19 -2 -12 -5z"/>
<path d="M1730 1819 c0 -11 4 -18 10 -14 5 3 7 12 3 20 -7 21 -13 19 -13 -6z"/>
<path d="M1480 1810 c6 -11 15 -20 20 -20 6 0 10 -11 10 -25 0 -28 -3 -29 -29
-15 -14 7 -24 5 -40 -9 -14 -12 -18 -22 -11 -26 5 -3 13 1 16 9 3 9 16 16 28
15 11 0 15 -3 9 -6 -7 -2 -13 -9 -13 -14 0 -17 41 11 52 37 10 21 8 28 -12 49
-28 30 -45 33 -30 5z"/>
<path d="M1847 1824 c-3 -4 2 -28 12 -55 16 -41 17 -50 5 -60 -16 -13 -19 -49
-4 -49 6 0 10 9 10 20 0 11 6 20 13 20 8 0 19 12 26 26 10 23 10 26 -4 20 -18
-7 -31 20 -34 72 -1 13 -14 16 -24 6z"/>
<path d="M935 1809 c-4 -5 -4 -21 -1 -35 4 -13 3 -24 -2 -24 -11 0 -7 -53 4
-57 5 -2 11 26 12 62 1 65 -1 75 -13 54z"/>
<path d="M1227 1813 c-4 -3 -7 -11 -7 -17 0 -6 5 -5 12 2 6 6 9 14 7 17 -3 3
-9 2 -12 -2z"/>
<path d="M1430 1809 c0 -5 5 -7 10 -4 6 3 10 8 10 11 0 2 -4 4 -10 4 -5 0 -10
-5 -10 -11z"/>
<path d="M1902 1807 c-9 -11 -10 -17 -2 -22 15 -9 23 -1 18 21 -3 15 -4 16
-16 1z"/>
<path d="M1781 1784 c0 -11 3 -14 6 -6 3 7 2 16 -1 19 -3 4 -6 -2 -5 -13z"/>
<path d="M1350 1778 c0 -9 5 -20 10 -23 13 -8 13 5 0 25 -8 13 -10 13 -10 -2z"/>
<path d="M1432 1775 c-7 -8 -9 -15 -4 -15 5 0 15 7 22 15 16 19 -1 19 -18 0z"/>
<path d="M1660 1780 c0 -5 5 -10 10 -10 6 0 10 5 10 10 0 6 -4 10 -10 10 -5 0
-10 -4 -10 -10z"/>
<path d="M1695 1771 c-3 -5 -1 -12 5 -16 5 -3 10 1 10 9 0 18 -6 21 -15 7z"/>
<path d="M1740 1771 c0 -6 5 -13 10 -16 6 -3 10 1 10 9 0 9 -4 16 -10 16 -5 0
-10 -4 -10 -9z"/>
<path d="M1121 1734 c0 -11 3 -14 6 -6 3 7 2 16 -1 19 -3 4 -6 -2 -5 -13z"/>
<path d="M1310 1741 c0 -6 6 -11 13 -11 6 0 25 -7 41 -15 33 -17 47 -12 25 10
-19 19 -79 31 -79 16z"/>
<path d="M1537 1733 c4 -10 17 -32 30 -50 15 -20 20 -34 13 -38 -7 -4 -5 -12
5 -22 9 -8 13 -23 10 -33 -3 -10 -1 -21 5 -25 5 -3 10 -14 10 -23 0 -15 -2
-15 -10 -2 -15 23 -12 -3 5 -55 12 -34 13 -50 5 -65 -6 -12 -8 -31 -4 -43 6
-18 4 -20 -7 -10 -11 9 -14 6 -15 -18 -1 -15 2 -26 7 -24 4 3 14 -4 22 -15 13
-18 16 -19 27 -5 7 9 10 19 6 22 -4 4 -11 1 -16 -7 -8 -13 -10 -12 -10 2 0 9
-3 18 -7 21 -5 2 -3 3 2 2 6 -2 11 44 12 118 2 103 0 124 -15 140 -11 13 -13
21 -5 24 17 6 -51 123 -71 123 -3 0 -2 -8 1 -17z"/>
<path d="M1040 1709 c0 -5 5 -7 10 -4 6 3 10 8 10 11 0 2 -4 4 -10 4 -5 0 -10
-5 -10 -11z"/>
<path d="M1200 1705 c0 -8 -12 -26 -27 -40 -16 -15 -22 -25 -14 -25 19 0 60
50 54 67 -7 17 -13 17 -13 -2z"/>
<path d="M1314 1697 c3 -12 5 -24 6 -27 1 -3 2 -12 1 -22 -2 -20 12 -30 32
-23 16 7 21 65 6 65 -6 0 -8 -3 -6 -7 3 -5 1 -17 -4 -28 -7 -17 -8 -18 -10 -2
-1 9 -2 23 -3 30 -1 6 2 15 7 18 5 3 -1 9 -12 12 -17 4 -20 1 -17 -16z"/>
<path d="M1708 1713 c7 -3 16 -2 19 1 4 3 -2 6 -13 5 -11 0 -14 -3 -6 -6z"/>
<path d="M1913 1683 c-1 -25 2 -32 8 -22 11 18 12 46 1 53 -4 3 -9 -11 -9 -31z"/>
<path d="M1256 1693 c-4 -8 -4 -19 0 -24 3 -5 0 -9 -5 -9 -6 0 -11 -6 -11 -14
0 -15 -29 -30 -39 -21 -3 3 1 10 9 15 8 6 11 10 5 9 -5 0 -23 -10 -39 -23 -24
-20 -29 -32 -30 -69 -1 -25 -3 -44 -6 -42 -3 2 -4 -12 -2 -31 5 -38 21 -47 23
-11 1 12 1 25 0 30 0 4 3 7 8 7 5 0 14 14 20 30 5 17 15 30 21 30 6 0 9 4 5 9
-3 6 0 13 8 18 7 4 18 21 25 36 7 15 16 26 21 23 13 -9 42 4 35 16 -3 5 -11 4
-20 -3 -9 -8 -14 -8 -14 -1 0 6 7 15 16 20 14 8 14 10 -4 14 -13 4 -23 0 -26
-9z m-42 -94 c-3 -5 -9 -7 -14 -4 -5 3 -12 -6 -16 -21 -6 -23 -8 -24 -16 -10
-7 13 -5 23 7 36 16 18 51 17 39 -1z m-49 -59 c3 -5 1 -10 -4 -10 -6 0 -11 5
-11 10 0 6 2 10 4 10 3 0 8 -4 11 -10z"/>
<path d="M1490 1700 c0 -5 5 -10 10 -10 6 0 10 5 10 10 0 6 -4 10 -10 10 -5 0
-10 -4 -10 -10z"/>
<path d="M1745 1701 c-3 -5 -1 -12 5 -16 5 -3 10 1 10 9 0 18 -6 21 -15 7z"/>
<path d="M1451 1684 c8 -10 9 -18 3 -22 -6 -4 -7 -18 -4 -32 l7 -25 12 28 c17
44 14 67 -10 67 -18 0 -20 -2 -8 -16z"/>
<path d="M1680 1696 c0 -4 7 -14 15 -22 8 -9 15 -11 15 -6 0 5 -7 15 -15 22
-8 7 -15 9 -15 6z"/>
<path d="M1420 1681 c0 -5 5 -13 10 -16 6 -3 10 -2 10 4 0 5 -4 13 -10 16 -5
3 -10 2 -10 -4z"/>
<path d="M956 1663 c12 -12 16 -12 28 0 12 12 10 14 -14 14 -24 0 -26 -2 -14
-14z"/>
<path d="M1050 1670 c0 -6 7 -10 15 -10 8 0 15 2 15 4 0 2 -7 6 -15 10 -8 3
-15 1 -15 -4z"/>
<path d="M1396 1651 c10 -17 23 -27 31 -24 18 7 17 12 -9 34 -33 27 -42 23
-22 -10z"/>
<path d="M1506 1665 c4 -10 13 -13 26 -9 13 4 18 2 14 -4 -9 -15 17 -69 32
-64 10 3 9 9 -5 24 -10 11 -18 27 -18 36 0 10 -7 16 -17 16 -10 -1 -18 2 -18
7 0 5 -4 9 -10 9 -5 0 -7 -7 -4 -15z"/>
<path d="M1025 1660 c3 -5 8 -10 11 -10 2 0 4 5 4 10 0 6 -5 10 -11 10 -5 0
-7 -4 -4 -10z"/>
<path d="M1125 1659 c-11 -16 -1 -19 13 -3 7 8 8 14 3 14 -5 0 -13 -5 -16 -11z"/>
<path d="M1840 1638 c0 -9 4 -19 9 -22 15 -9 41 5 41 21 0 13 -3 13 -16 2 -13
-10 -17 -10 -25 2 -7 12 -9 11 -9 -3z"/>
<path d="M1267 1633 c-4 -3 -7 -13 -7 -22 1 -13 3 -13 11 2 11 19 8 33 -4 20z"/>
<path d="M1290 1624 c0 -8 5 -12 10 -9 6 3 10 10 10 16 0 5 -4 9 -10 9 -5 0
-10 -7 -10 -16z"/>
<path d="M1480 1632 c0 -15 22 -30 36 -25 8 3 14 0 14 -6 0 -6 5 -11 10 -11
19 0 10 16 -19 33 -32 19 -41 21 -41 9z"/>
<path d="M1965 1629 c-4 -6 -5 -12 -2 -15 2 -3 7 2 10 11 7 17 1 20 -8 4z"/>
<path d="M1760 1601 c0 -6 4 -13 10 -16 6 -3 7 1 4 9 -7 18 -14 21 -14 7z"/>
<path d="M1078 1593 c7 -3 16 -2 19 1 4 3 -2 6 -13 5 -11 0 -14 -3 -6 -6z"/>
<path d="M1110 1590 c0 -5 5 -10 11 -10 5 0 7 5 4 10 -3 6 -8 10 -11 10 -2 0
-4 -4 -4 -10z"/>
<path d="M1420 1590 c-9 -6 -10 -10 -3 -10 6 0 15 5 18 10 8 12 4 12 -15 0z"/>
<path d="M1668 1593 c-10 -2 -18 -9 -18 -14 0 -6 8 -5 20 1 11 6 20 13 20 15
0 3 -1 4 -2 4 -2 -1 -11 -3 -20 -6z"/>
<path d="M1870 1589 c0 -5 5 -7 10 -4 6 3 10 8 10 11 0 2 -4 4 -10 4 -5 0 -10
-5 -10 -11z"/>
<path d="M1275 1580 c-3 -5 -3 -10 2 -11 4 0 -10 -6 -31 -12 -22 -7 -41 -17
-42 -22 -6 -20 48 -47 107 -52 33 -3 62 -10 66 -16 4 -6 0 -8 -11 -4 -10 4
-15 3 -11 -3 3 -6 1 -10 -6 -10 -7 0 -10 -3 -7 -6 9 -8 49 16 43 26 -5 8 86
25 115 22 8 -1 30 11 48 26 l34 29 -29 6 c-15 3 -36 9 -45 12 -13 5 -18 2 -18
-10 0 -12 6 -16 20 -12 11 3 20 2 20 -1 -1 -17 -17 -31 -35 -30 -11 0 -33 -2
-50 -6 -16 -4 -63 -7 -104 -7 -62 0 -78 4 -95 21 -18 18 -18 20 -3 20 9 0 17
-4 17 -10 0 -5 5 -10 10 -10 6 0 10 7 10 16 0 8 4 13 9 9 5 -3 13 0 17 6 5 9
11 7 21 -6 12 -17 13 -17 13 -2 0 27 25 20 37 -10 10 -26 11 -26 12 -5 1 26
31 31 31 5 0 -15 4 -13 20 7 11 14 20 19 20 13 0 -18 20 -16 20 2 0 12 -13 15
-56 15 -34 0 -53 4 -49 10 3 6 2 10 -4 10 -5 0 -13 -4 -16 -10 -3 -5 -22 -10
-41 -10 -21 0 -33 4 -29 10 3 6 4 10 1 10 -3 0 -8 -4 -11 -10z"/>
<path d="M1468 1583 c7 -3 16 -2 19 1 4 3 -2 6 -13 5 -11 0 -14 -3 -6 -6z"/>
<path d="M1080 1560 c0 -5 5 -10 10 -10 6 0 10 5 10 10 0 6 -4 10 -10 10 -5 0
-10 -4 -10 -10z"/>
<path d="M1790 1554 c0 -12 -3 -36 -6 -53 -4 -19 -2 -31 4 -31 6 0 10 13 10
29 -1 15 2 32 5 38 3 5 2 15 -4 23 -7 12 -9 11 -9 -6z"/>
<path d="M1671 1544 c0 -11 3 -14 6 -6 3 7 2 16 -1 19 -3 4 -6 -2 -5 -13z"/>
<path d="M1021 1525 c0 -5 6 -21 14 -35 8 -14 14 -20 14 -15 0 6 -6 21 -14 35
-8 14 -14 21 -14 15z"/>
<path d="M1693 1513 c9 -2 17 -9 17 -14 0 -6 5 -7 10 -4 19 12 10 25 -17 24
-17 -1 -21 -3 -10 -6z"/>
<path d="M1750 1499 c0 -5 5 -7 10 -4 6 3 10 8 10 11 0 2 -4 4 -10 4 -5 0 -10
-5 -10 -11z"/>
<path d="M1090 1492 c0 -7 7 -20 15 -28 19 -20 20 -4 0 22 -9 12 -14 14 -15 6z"/>
<path d="M1478 1473 c7 -3 16 -2 19 1 4 3 -2 6 -13 5 -11 0 -14 -3 -6 -6z"/>
<path d="M1258 1463 c6 -2 18 -2 25 0 6 3 1 5 -13 5 -14 0 -19 -2 -12 -5z"/>
<path d="M1293 1450 c-7 -10 -10 -27 -6 -36 4 -11 2 -15 -4 -11 -6 4 -16 0
-22 -7 -9 -10 -9 -16 -1 -21 17 -11 42 16 36 39 -3 11 2 28 11 38 9 10 12 18
7 18 -5 0 -15 -9 -21 -20z"/>
<path d="M1435 1461 c3 -5 -2 -12 -10 -14 -12 -4 -12 -5 1 -3 19 1 32 26 14
26 -6 0 -9 -4 -5 -9z"/>
<path d="M1510 1460 c-9 -6 -10 -10 -3 -10 6 0 15 5 18 10 8 12 4 12 -15 0z"/>
<path d="M1652 1455 c-1 -11 3 -27 8 -35 7 -11 10 -11 10 -2 0 7 4 11 9 7 5
-3 13 0 17 6 4 8 3 9 -4 5 -7 -4 -12 -1 -12 6 0 10 -2 10 -9 -1 -7 -11 -10 -9
-14 10 -3 19 -5 20 -5 4z"/>
<path d="M1181 1448 c-1 -9 -10 -19 -20 -23 -11 -3 -24 -12 -31 -20 -9 -11 -7
-12 9 -8 26 7 54 39 48 55 -4 9 -6 7 -6 -4z"/>
<path d="M1735 1449 c-4 -6 -5 -12 -2 -15 2 -3 7 2 10 11 7 17 1 20 -8 4z"/>
<path d="M1245 1440 c3 -5 8 -10 11 -10 2 0 4 5 4 10 0 6 -5 10 -11 10 -5 0
-7 -4 -4 -10z"/>
<path d="M1315 1419 c5 -14 -1 -28 -19 -46 -14 -14 -26 -31 -26 -37 0 -6 6 -4
13 5 7 9 17 14 23 12 6 -2 18 7 27 21 14 21 14 26 2 36 -8 7 -12 16 -9 21 3 5
0 9 -6 9 -7 0 -9 -8 -5 -21z"/>
<path d="M1764 1416 c-3 -14 -14 -32 -24 -41 -10 -9 -16 -23 -14 -30 3 -7 1
-16 -5 -20 -6 -3 -11 -11 -11 -18 0 -16 31 16 34 36 1 8 7 21 13 29 13 15 28
68 19 68 -3 0 -8 -11 -12 -24z"/>
<path d="M1447 1424 c-4 -4 2 -19 13 -34 11 -16 20 -34 20 -42 0 -11 2 -11 9
1 10 16 2 51 -15 69 -14 14 -18 15 -27 6z"/>
<path d="M1353 1407 c4 -10 2 -28 -5 -40 -6 -12 -13 -32 -14 -45 -2 -13 -8
-30 -15 -38 -9 -11 -9 -18 -1 -26 9 -9 12 -7 12 10 0 13 7 25 16 29 11 4 13
13 8 37 -6 28 -5 29 10 17 14 -12 19 -11 31 5 8 10 15 23 15 27 0 4 9 3 20 -3
16 -9 18 -8 14 5 -7 16 -51 32 -61 21 -3 -3 -13 0 -21 7 -13 10 -15 9 -9 -6z
m27 -37 c0 -5 -4 -10 -10 -10 -5 0 -10 5 -10 10 0 6 5 10 10 10 6 0 10 -4 10
-10z"/>
<path d="M1701 1399 c-13 -11 -22 -21 -20 -23 2 -3 15 4 28 15 13 11 22 21 20
23 -2 3 -15 -4 -28 -15z"/>
<path d="M1641 1394 c0 -11 3 -14 6 -6 3 7 2 16 -1 19 -3 4 -6 -2 -5 -13z"/>
<path d="M1181 1374 c10 -13 10 -17 -2 -26 -12 -8 -12 -9 1 -5 22 5 26 47 4
47 -14 0 -14 -2 -3 -16z"/>
<path d="M1530 1380 c0 -5 5 -10 10 -10 6 0 10 5 10 10 0 6 -4 10 -10 10 -5 0
-10 -4 -10 -10z"/>
<path d="M1067 1373 c-3 -5 -3 -23 2 -38 6 -23 9 -26 14 -12 7 20 -7 65 -16
50z"/>
<path d="M1131 1361 c-12 -22 -5 -27 19 -11 11 7 12 12 3 21 -8 8 -14 6 -22
-10z"/>
<path d="M1513 1342 c-1 -22 0 -24 9 -8 6 10 6 22 2 26 -5 5 -10 -3 -11 -18z"/>
<path d="M1640 1361 c0 -6 4 -13 10 -16 6 -3 7 1 4 9 -7 18 -14 21 -14 7z"/>
<path d="M1555 1350 c3 -5 2 -10 -3 -10 -18 0 -39 -74 -29 -103 5 -15 13 -27
18 -27 5 0 9 -9 9 -20 0 -28 -15 -25 -39 9 -16 22 -20 39 -16 70 3 24 1 41 -5
41 -5 0 -10 -8 -10 -17 0 -13 -3 -14 -12 -5 -14 14 -28 16 -28 3 0 -5 8 -11
19 -14 15 -4 18 -13 16 -53 -3 -36 -1 -42 5 -24 4 14 8 20 9 13 1 -6 8 -19 17
-27 19 -20 9 -42 -12 -25 -11 9 -14 8 -14 -2 0 -12 -2 -12 -9 0 -6 9 -11 10
-15 2 -4 -6 0 -18 8 -27 21 -21 21 -21 -14 -20 -26 1 -45 16 -20 16 6 0 10 5
10 10 0 19 -17 10 -29 -16 -11 -25 -11 -26 14 -20 14 4 34 2 45 -4 11 -6 20
-7 19 -3 -1 4 -1 16 0 26 1 15 4 16 23 6 18 -10 20 -9 15 5 -6 14 -3 15 14 5
17 -8 20 -8 14 1 -4 7 -2 16 5 20 10 6 7 19 -13 58 -24 46 -26 62 -6 62 4 0
10 -12 13 -26 4 -15 9 -24 12 -21 3 3 -1 20 -9 39 -12 29 -12 37 -1 53 17 23
18 35 3 35 -5 0 -7 -4 -4 -10z"/>
<path d="M1202 1329 c-17 -27 -14 -38 3 -15 14 19 15 19 15 -8 0 -16 -8 -35
-17 -42 -14 -10 -15 -15 -6 -25 10 -10 14 -7 22 12 5 13 10 17 10 9 1 -12 3
-12 15 0 18 20 32 65 17 56 -6 -4 -11 -16 -11 -27 0 -10 -5 -19 -11 -19 -7 0
-9 10 -5 25 4 16 1 31 -7 39 -11 12 -15 11 -25 -5z"/>
<path d="M1412 1337 c-7 -8 -7 -17 2 -29 11 -15 13 -13 23 13 9 23 8 29 -2 29
-7 0 -17 -6 -23 -13z"/>
<path d="M1750 1306 c-23 -48 -46 -73 -57 -62 -4 4 -1 12 7 17 13 9 13 10 0 6
-8 -2 -14 -14 -13 -25 2 -13 -6 -26 -19 -33 -12 -6 -32 -25 -46 -41 -13 -16
-27 -27 -29 -24 -3 3 -14 -5 -24 -17 -10 -12 -18 -18 -19 -14 0 4 -6 3 -12 -2
-62 -51 -80 -63 -86 -57 -3 4 0 12 8 17 13 9 13 10 0 6 -8 -2 -15 -10 -15 -18
-1 -24 -13 -37 -76 -74 -42 -26 -63 -34 -72 -27 -11 10 -18 12 -34 12 -13 0
-68 51 -68 63 0 7 -8 11 -18 9 -25 -4 -21 13 6 26 19 9 17 10 -16 6 -32 -3
-37 -1 -35 13 2 10 -3 18 -11 18 -8 0 -15 9 -17 19 -2 11 -5 31 -9 44 -3 14
-2 21 4 18 5 -4 7 3 3 16 -5 21 -6 21 -13 2 -15 -38 -9 -80 16 -115 37 -50
114 -116 162 -140 l43 -21 37 23 c21 12 68 45 106 73 37 28 71 51 75 51 9 0
94 69 158 128 23 21 50 44 59 51 9 7 19 27 21 45 2 18 6 37 9 42 4 5 4 9 1 9
-2 0 -14 -20 -26 -44z"/>
<path d="M1665 1330 c-7 -12 2 -30 16 -30 12 0 12 27 0 35 -5 3 -12 1 -16 -5z"/>
<path d="M1125 1320 c-6 -9 1 -14 18 -11 9 1 9 -11 -2 -27 -6 -10 -13 -7 -29
15 -12 15 -22 23 -22 16 0 -6 13 -25 29 -41 17 -16 33 -41 37 -56 9 -37 23
-33 21 7 0 17 3 41 8 52 8 19 8 19 -9 3 -23 -23 -29 -23 -16 1 16 30 12 51 -9
51 -11 0 -23 -4 -26 -10z"/>
<path d="M1302 1318 c-5 -7 -17 -28 -27 -47 -13 -26 -14 -36 -4 -45 9 -8 10
-8 5 1 -13 23 12 22 38 -2 15 -13 30 -24 34 -24 15 0 13 -33 -3 -51 -9 -10
-15 -25 -12 -32 2 -7 12 3 23 25 15 32 16 41 5 59 -11 18 -11 22 3 30 9 5 16
17 16 26 -1 15 -3 14 -16 -3 -15 -19 -15 -19 -9 10 5 27 4 28 -5 7 -5 -13 -8
-28 -4 -33 11 -18 -23 -9 -41 11 -18 20 -18 22 -1 50 17 30 17 40 -2 18z"/>
<path d="M1370 1303 c0 -3 6 -14 14 -22 24 -26 36 -98 20 -112 -8 -6 -14 -8
-14 -3 0 5 -7 -4 -15 -20 -17 -33 -18 -36 -6 -36 5 0 11 9 14 20 3 11 9 19 14
18 5 -2 19 7 32 19 16 15 21 27 16 42 -3 12 -11 21 -16 21 -5 0 -9 9 -9 20 0
11 -7 23 -15 26 -8 4 -15 12 -15 20 0 8 -4 14 -10 14 -5 0 -10 -3 -10 -7z m70
-114 c0 -6 -4 -7 -10 -4 -5 3 -10 11 -10 16 0 6 5 7 10 4 6 -3 10 -11 10 -16z"/>
<path d="M1560 1299 c0 -5 5 -7 10 -4 6 3 10 8 10 11 0 2 -4 4 -10 4 -5 0 -10
-5 -10 -11z"/>
<path d="M1816 1301 c-4 -6 2 -21 13 -33 12 -12 21 -25 21 -28 0 -4 20 -20 45
-35 24 -16 42 -32 39 -37 -3 -4 5 -8 18 -8 22 1 22 1 -4 18 -16 9 -28 24 -28
34 0 10 -6 15 -12 13 -17 -6 -55 26 -72 60 -8 15 -17 22 -20 16z"/>
<path d="M1604 1283 c13 -16 23 -20 35 -14 9 5 22 6 30 3 12 -4 12 -3 0 11
-12 13 -16 13 -30 1 -13 -12 -18 -11 -34 4 -19 17 -19 17 -1 -5z"/>
<path d="M1070 1270 c0 -5 5 -10 10 -10 6 0 10 5 10 10 0 6 -4 10 -10 10 -5 0
-10 -4 -10 -10z"/>
<path d="M1431 1254 c0 -11 3 -14 6 -6 3 7 2 16 -1 19 -3 4 -6 -2 -5 -13z"/>
<path d="M1600 1243 c0 -15 -2 -16 -10 -3 -8 12 -10 9 -10 -12 0 -16 6 -28 13
-28 8 0 7 -3 -3 -10 -12 -7 -12 -12 -2 -22 9 -9 12 -9 13 3 4 43 7 57 13 67 3
6 2 13 -4 17 -5 3 -10 -2 -10 -12z"/>
<path d="M1130 1224 c0 -16 -2 -17 -10 -4 -8 13 -10 13 -10 -2 0 -26 18 -31
25 -7 4 11 4 23 1 26 -3 4 -6 -2 -6 -13z"/>
<path d="M1668 1155 c-206 -201 -282 -285 -269 -298 8 -8 11 -8 9 -1 -2 6 31
45 72 86 41 42 112 114 157 161 45 47 84 82 87 79 3 -3 6 1 6 8 0 7 7 22 17
32 39 43 2 11 -79 -67z"/>
<path d="M1382 1205 c0 -16 2 -22 5 -12 2 9 2 23 0 30 -3 6 -5 -1 -5 -18z"/>
<path d="M1250 1215 c-1 -5 -2 -13 -2 -16 1 -3 -10 -11 -23 -17 -21 -10 -23
-9 -20 9 4 17 2 19 -10 9 -22 -18 -18 -29 10 -36 22 -5 23 -8 9 -21 -20 -21
-3 -39 23 -24 11 5 26 18 34 27 12 16 12 17 -2 12 -25 -9 -42 12 -22 27 9 6
13 18 10 26 -3 8 -6 10 -7 4z m0 -74 c0 -5 -7 -12 -16 -15 -24 -9 -28 -7 -14
9 14 17 30 20 30 6z"/>
<path d="M1296 1212 c-3 -6 -2 -13 4 -17 16 -10 12 -21 -17 -56 -26 -31 -26
-32 -6 -27 15 4 20 2 17 -7 -3 -7 0 -16 7 -21 9 -5 11 1 6 24 -4 18 -2 32 3
32 5 0 7 6 4 14 -3 9 1 13 12 13 9 -1 19 4 21 11 3 7 -1 10 -11 6 -11 -4 -19
1 -24 17 -5 13 -11 18 -16 11z"/>
<path d="M1270 1191 c0 -5 5 -13 10 -16 6 -3 10 -2 10 4 0 5 -4 13 -10 16 -5
3 -10 2 -10 -4z"/>
<path d="M753 1183 c9 -2 25 -2 35 0 9 3 1 5 -18 5 -19 0 -27 -2 -17 -5z"/>
<path d="M938 1183 c7 -3 16 -2 19 1 4 3 -2 6 -13 5 -11 0 -14 -3 -6 -6z"/>
<path d="M2230 1180 c-18 -12 -2 -12 25 0 13 6 15 9 5 9 -8 0 -22 -4 -30 -9z"/>
<path d="M1110 1158 c0 -9 5 -20 10 -23 13 -8 13 5 0 25 -8 13 -10 13 -10 -2z"/>
<path d="M1160 1150 c6 -11 15 -20 21 -20 6 0 6 7 -1 20 -6 11 -15 20 -21 20
-6 0 -6 -7 1 -20z"/>
<path d="M1980 1150 c0 -5 5 -10 11 -10 6 0 9 -7 6 -15 -4 -8 -1 -17 5 -21 7
-4 8 -3 4 5 -5 8 -1 11 16 8 12 -2 17 -2 10 0 -8 3 -11 11 -8 18 3 9 0 12 -10
8 -7 -3 -14 0 -14 6 0 6 -4 11 -10 11 -5 0 -10 -4 -10 -10z"/>
<path d="M1700 1128 c-7 -13 -72 -80 -144 -150 -72 -70 -133 -133 -134 -140
-2 -7 -1 -11 1 -8 3 3 62 60 131 128 126 123 187 192 169 192 -5 0 -16 -10
-23 -22z"/>
<path d="M2060 1135 c0 -18 31 -30 84 -32 68 -2 67 7 -1 18 -27 4 -56 10 -65
14 -10 4 -18 4 -18 0z"/>
<path d="M1152 1105 c15 -16 20 -17 30 -6 11 11 10 13 0 7 -7 -4 -21 -2 -30 5
-15 12 -15 11 0 -6z"/>
<path d="M2225 1090 c-3 -5 -1 -10 4 -10 6 0 11 5 11 10 0 6 -2 10 -4 10 -3 0
-8 -4 -11 -10z"/>
<path d="M2260 1086 c0 -2 7 -7 16 -10 8 -3 12 -2 9 4 -6 10 -25 14 -25 6z"/>
<path d="M1746 1065 c-9 -26 -7 -32 5 -12 6 10 9 21 6 23 -2 3 -7 -2 -11 -11z"/>
<path d="M1100 1054 c0 -4 11 -22 25 -40 14 -18 25 -36 25 -41 0 -4 12 -21 26
-38 35 -41 23 -7 -22 61 -35 52 -54 73 -54 58z"/>
<path d="M2240 1050 c0 -5 5 -10 11 -10 5 0 7 5 4 10 -3 6 -8 10 -11 10 -2 0
-4 -4 -4 -10z"/>
<path d="M1390 1040 c0 -5 5 -10 10 -10 6 0 10 5 10 10 0 6 -4 10 -10 10 -5 0
-10 -4 -10 -10z"/>
<path d="M1434 976 c-43 -41 -76 -77 -72 -81 8 -8 109 85 140 127 11 16 18 28
15 28 -2 0 -39 -33 -83 -74z"/>
<path d="M960 1029 c0 -5 5 -7 10 -4 6 3 10 8 10 11 0 2 -4 4 -10 4 -5 0 -10
-5 -10 -11z"/>
<path d="M1632 994 c-23 -24 -44 -44 -46 -44 -11 0 -127 -122 -124 -130 3 -11
160 140 166 159 2 6 7 9 12 6 8 -5 45 44 38 50 -2 2 -22 -17 -46 -41z"/>
<path d="M2358 1033 c7 -3 16 -2 19 1 4 3 -2 6 -13 5 -11 0 -14 -3 -6 -6z"/>
<path d="M523 1023 c9 -2 23 -2 30 0 6 3 -1 5 -18 5 -16 0 -22 -2 -12 -5z"/>
<path d="M1273 1015 c0 -8 4 -12 9 -9 4 3 8 9 8 15 0 5 -4 9 -8 9 -5 0 -9 -7
-9 -15z"/>
<path d="M1367 1019 c7 -7 15 -10 18 -7 3 3 -2 9 -12 12 -14 6 -15 5 -6 -5z"/>
<path d="M588 998 c9 -9 15 -9 24 0 9 9 7 12 -12 12 -19 0 -21 -3 -12 -12z"/>
<path d="M1340 1000 c-9 -6 -10 -10 -3 -10 6 0 15 5 18 10 8 12 4 12 -15 0z"/>
<path d="M428 993 c7 -3 16 -2 19 1 4 3 -2 6 -13 5 -11 0 -14 -3 -6 -6z"/>
<path d="M540 990 c0 -5 5 -10 10 -10 6 0 10 5 10 10 0 6 -4 10 -10 10 -5 0
-10 -4 -10 -10z"/>
<path d="M1290 991 c0 -5 7 -11 15 -15 8 -3 15 -1 15 3 0 5 -7 11 -15 15 -8 3
-15 1 -15 -3z"/>
<path d="M1071 970 c0 -8 11 -35 25 -60 21 -38 24 -40 19 -15 -4 16 -11 32
-15 35 -5 3 -13 17 -19 30 -5 14 -10 18 -10 10z"/>
<path d="M2071 964 c0 -11 3 -14 6 -6 3 7 2 16 -1 19 -3 4 -6 -2 -5 -13z"/>
<path d="M1206 956 c3 -8 13 -17 22 -21 13 -5 13 -2 -3 15 -21 24 -26 25 -19
6z"/>
<path d="M317 946 c-4 -10 -1 -13 8 -9 8 3 12 9 9 14 -7 12 -11 11 -17 -5z"/>
<path d="M395 942 c-6 -5 -36 -19 -68 -32 -32 -12 -56 -24 -55 -25 2 -1 17 -5
33 -9 18 -4 25 -3 17 2 -9 6 -6 11 10 19 92 42 111 53 93 53 -12 0 -25 -4 -30
-8z"/>
<path d="M1347 930 c-9 -11 -13 -20 -7 -20 5 0 14 9 20 20 6 11 9 20 8 20 -2
0 -11 -9 -21 -20z"/>
<path d="M2323 905 c0 -27 2 -38 4 -22 2 15 2 37 0 50 -2 12 -4 0 -4 -28z"/>
<path d="M2592 930 c0 -14 2 -19 5 -12 2 6 2 18 0 25 -3 6 -5 1 -5 -13z"/>
<path d="M2622 930 c0 -14 2 -19 5 -12 2 6 2 18 0 25 -3 6 -5 1 -5 -13z"/>
<path d="M268 923 c7 -3 16 -2 19 1 4 3 -2 6 -13 5 -11 0 -14 -3 -6 -6z"/>
<path d="M1244 915 c-17 -13 -17 -14 -1 -15 9 0 17 5 17 11 0 5 5 7 10 4 6 -3
10 -1 10 4 0 15 -13 14 -36 -4z"/>
<path d="M1553 856 c-71 -71 -104 -119 -42 -60 93 88 134 135 117 134 -2 0
-36 -33 -75 -74z"/>
<path d="M2648 923 c7 -3 16 -2 19 1 4 3 -2 6 -13 5 -11 0 -14 -3 -6 -6z"/>
<path d="M1290 900 c0 -5 7 -10 15 -10 8 0 15 -4 15 -10 0 -5 6 -10 14 -10 8
0 17 -7 20 -16 3 -9 11 -12 18 -8 8 5 9 2 5 -10 -5 -12 0 -19 18 -26 14 -5 25
-16 25 -25 0 -8 7 -15 15 -15 19 0 19 -14 -1 -70 -27 -77 -82 -332 -78 -357 3
-14 1 -22 -3 -20 -4 3 -9 -5 -10 -16 -3 -44 -22 -163 -29 -181 -5 -13 -4 -17
4 -12 11 6 28 90 24 113 -2 7 4 34 13 60 9 27 18 73 20 103 3 49 60 293 80
343 7 16 10 14 26 -13 11 -17 19 -38 19 -47 0 -12 3 -14 10 -7 8 8 7 20 0 39
-9 23 -8 30 4 37 22 12 86 81 86 93 0 5 -24 -14 -52 -42 l-53 -52 -88 85 c-80
77 -117 100 -117 74z"/>
<path d="M2710 895 c7 -8 19 -15 28 -15 13 0 13 -2 -1 -17 -8 -10 -18 -31 -21
-48 -5 -24 -5 -26 3 -10 6 11 19 31 31 45 19 23 21 24 33 8 10 -13 17 -14 25
-6 13 13 -26 37 -65 40 -12 1 -23 6 -23 10 0 4 -5 8 -11 8 -8 0 -8 -5 1 -15z"/>
<path d="M1260 890 c0 -5 5 -10 10 -10 6 0 10 5 10 10 0 6 -4 10 -10 10 -5 0
-10 -4 -10 -10z"/>
<path d="M358 883 c7 -3 16 -2 19 1 4 3 -2 6 -13 5 -11 0 -14 -3 -6 -6z"/>
<path d="M1225 880 c-3 -5 -1 -10 4 -10 6 0 11 5 11 10 0 6 -2 10 -4 10 -3 0
-8 -4 -11 -10z"/>
<path d="M1995 864 c-22 -13 -48 -27 -57 -30 -24 -8 -23 -24 0 -24 11 0 27 10
38 21 10 12 32 27 48 34 16 7 24 15 19 18 -5 3 -27 -5 -48 -19z"/>
<path d="M2071 874 c0 -11 3 -14 6 -6 3 7 2 16 -1 19 -3 4 -6 -2 -5 -13z"/>
<path d="M227 859 c-10 -11 -16 -24 -12 -27 3 -4 9 -1 13 5 4 6 20 15 37 19
26 6 27 8 10 15 -29 11 -29 11 -48 -12z"/>
<path d="M1070 873 c0 -17 19 -37 27 -29 4 5 2 11 -5 13 -6 3 -10 9 -6 14 3 5
0 9 -5 9 -6 0 -11 -3 -11 -7z"/>
<path d="M1280 870 c0 -5 7 -10 15 -10 8 0 15 -4 15 -10 0 -5 8 -10 17 -10 14
0 14 3 -5 20 -23 22 -42 26 -42 10z"/>
<path d="M1185 860 c-3 -5 -2 -10 4 -10 5 0 13 5 16 10 3 6 2 10 -4 10 -5 0
-13 -4 -16 -10z"/>
<path d="M1245 860 c-3 -5 -2 -10 4 -10 5 0 13 5 16 10 3 6 2 10 -4 10 -5 0
-13 -4 -16 -10z"/>
<path d="M960 821 c0 -17 4 -32 8 -35 4 -2 6 11 4 30 -5 42 -12 45 -12 5z"/>
<path d="M1270 840 c0 -5 7 -10 16 -10 8 0 12 5 9 10 -3 6 -10 10 -16 10 -5 0
-9 -4 -9 -10z"/>
<path d="M2810 835 c0 -9 6 -12 15 -9 8 4 12 10 9 15 -8 14 -24 10 -24 -6z"/>
<path d="M161 811 c-51 -71 -64 -136 -111 -536 -30 -260 -32 -275 -22 -275 10
0 21 52 23 105 1 29 1 30 9 5 l8 -25 1 25 c1 14 4 36 6 50 5 22 4 22 -4 5 -7
-14 -9 2 -8 58 0 42 3 77 6 77 3 0 7 12 7 28 4 71 9 112 14 112 3 0 6 19 7 43
2 75 15 167 24 173 5 3 9 18 9 34 0 31 15 48 24 28 3 -7 3 -3 0 10 -6 25 13
82 27 82 5 0 7 -10 4 -22 -15 -66 -12 -548 3 -533 3 3 5 103 4 223 -1 119 1
240 6 267 8 56 5 95 -8 95 -5 0 -18 -13 -29 -29z"/>
<path d="M720 822 c0 -5 7 -15 15 -22 8 -7 15 -19 15 -26 0 -8 10 -14 25 -14
30 0 33 16 5 25 -11 3 -20 10 -20 15 0 5 -9 14 -20 20 -11 6 -20 7 -20 2z"/>
<path d="M1071 820 c0 -8 4 -22 9 -30 12 -18 12 -2 0 25 -6 13 -9 15 -9 5z"/>
<path d="M1230 820 c0 -5 7 -7 15 -4 8 4 15 8 15 10 0 2 -7 4 -15 4 -8 0 -15
-4 -15 -10z"/>
<path d="M1336 822 c-3 -6 -1 -14 5 -17 15 -10 25 3 12 16 -7 7 -13 7 -17 1z"/>
<path d="M2850 822 c0 -13 21 -99 80 -327 16 -60 29 -97 29 -81 1 36 -29 208
-39 221 -9 11 -36 106 -44 149 -6 31 -26 60 -26 38z"/>
<path d="M1290 810 c0 -5 -7 -7 -15 -4 -8 4 -15 1 -15 -6 0 -8 8 -10 23 -6 12
3 25 6 30 6 14 0 7 20 -8 20 -8 0 -15 -4 -15 -10z"/>
<path d="M1670 811 c0 -6 -10 -16 -22 -21 -16 -6 -18 -9 -7 -9 19 -1 45 26 35
36 -3 3 -6 1 -6 -6z"/>
<path d="M1154 800 c15 -25 39 -50 48 -50 16 0 7 15 -25 40 -17 14 -27 18 -23
10z"/>
<path d="M1200 799 c0 -5 5 -7 10 -4 6 3 10 8 10 11 0 2 -4 4 -10 4 -5 0 -10
-5 -10 -11z"/>
<path d="M2810 804 c0 -17 17 -36 24 -26 3 5 -1 15 -9 22 -8 7 -15 9 -15 4z"/>
<path d="M1225 789 c-10 -15 3 -25 16 -12 7 7 7 13 1 17 -6 3 -14 1 -17 -5z"/>
<path d="M1394 784 c4 -11 -1 -18 -14 -21 -11 -3 -20 -9 -20 -14 0 -14 20 -11
36 5 17 17 19 46 3 46 -6 0 -8 -7 -5 -16z"/>
<path d="M1978 793 c7 -3 16 -2 19 1 4 3 -2 6 -13 5 -11 0 -14 -3 -6 -6z"/>
<path d="M1360 780 c0 -5 5 -10 10 -10 6 0 10 5 10 10 0 6 -4 10 -10 10 -5 0
-10 -4 -10 -10z"/>
<path d="M2681 772 c-13 -25 -14 -42 -2 -42 8 0 23 52 16 58 -2 2 -8 -5 -14
-16z"/>
<path d="M2911 774 c0 -11 3 -14 6 -6 3 7 2 16 -1 19 -3 4 -6 -2 -5 -13z"/>
<path d="M1282 769 c2 -7 10 -15 17 -17 8 -3 12 1 9 9 -2 7 -10 15 -17 17 -8
3 -12 -1 -9 -9z"/>
<path d="M1320 770 c0 -5 4 -10 9 -10 6 0 13 5 16 10 3 6 -1 10 -9 10 -9 0
-16 -4 -16 -10z"/>
<path d="M2411 764 c0 -11 3 -14 6 -6 3 7 2 16 -1 19 -3 4 -6 -2 -5 -13z"/>
<path d="M1250 755 c0 -8 7 -15 15 -15 9 0 12 6 9 15 -4 8 -10 15 -15 15 -5 0
-9 -7 -9 -15z"/>
<path d="M1846 755 c-8 -8 -21 -15 -29 -15 -8 0 -20 -7 -27 -15 -11 -13 -10
-18 9 -31 12 -9 19 -19 16 -24 -3 -4 5 -6 17 -2 21 5 22 4 8 -13 -13 -16 -13
-17 0 -10 8 5 25 10 38 11 20 2 22 1 10 -14 -8 -9 -8 -13 -1 -9 6 4 22 3 36
-2 22 -8 24 -7 20 10 -3 11 0 19 7 19 6 0 17 6 24 13 10 10 6 17 -25 37 -21
13 -36 26 -34 28 9 9 -17 32 -36 32 -9 0 -24 -7 -33 -15z m58 -3 c3 -5 -8 -9
-24 -9 -16 0 -27 4 -24 9 3 4 14 8 24 8 10 0 21 -4 24 -8z m-74 -32 c0 -6 10
-6 27 1 22 8 32 6 54 -11 16 -11 33 -20 39 -20 5 0 10 -4 10 -9 0 -5 -16 -9
-35 -8 -19 1 -35 5 -35 9 0 4 -5 8 -11 8 -5 0 -7 -4 -4 -10 3 -5 1 -10 -4 -10
-6 0 -11 4 -11 9 0 5 -13 14 -30 21 -16 7 -27 16 -24 21 7 12 24 11 24 -1z"/>
<path d="M1875 710 c3 -5 14 -10 23 -10 15 0 15 2 2 10 -20 13 -33 13 -25 0z"/>
<path d="M1772 748 c-7 -7 -12 -16 -12 -21 0 -5 7 -1 16 8 9 9 14 18 12 20 -2
3 -10 -1 -16 -7z"/>
<path d="M1172 732 c3 -12 1 -23 -6 -26 -6 -2 1 -3 17 -2 39 4 41 11 11 31
-26 17 -27 17 -22 -3z"/>
<path d="M1220 740 c0 -5 5 -10 10 -10 6 0 10 5 10 10 0 6 -4 10 -10 10 -5 0
-10 -4 -10 -10z"/>
<path d="M1330 740 c0 -5 6 -10 13 -10 6 -1 -1 -8 -18 -17 -39 -21 -57 -40
-46 -47 5 -4 17 2 27 11 16 16 16 16 9 -7 -4 -14 -12 -28 -17 -31 -6 -4 -6 -9
1 -13 10 -6 24 17 47 79 7 19 8 19 12 -4 2 -13 -1 -28 -7 -34 -13 -13 -14 -27
-2 -27 5 0 15 21 24 46 12 38 13 44 0 40 -7 -3 -16 1 -19 9 -7 17 -24 20 -24
5z"/>
<path d="M1414 742 c4 -7 2 -12 -3 -12 -6 0 -10 -3 -9 -7 2 -12 -14 -66 -22
-78 -5 -5 -11 -27 -15 -48 -4 -20 -11 -39 -15 -42 -4 -2 -6 -18 -5 -35 1 -16
-2 -30 -7 -30 -5 0 -6 -5 -2 -11 4 -8 9 -7 15 2 4 7 5 17 2 21 -2 5 0 15 6 22
7 8 11 18 9 22 -2 12 12 74 23 94 24 47 38 100 27 106 -7 4 -8 3 -4 -4z"/>
<path d="M1300 730 c0 -5 -8 -7 -17 -3 -14 4 -15 3 -7 -6 6 -6 18 -9 27 -5 18
7 23 24 7 24 -5 0 -10 -4 -10 -10z"/>
<path d="M2811 733 c-1 -6 -4 -20 -7 -30 -5 -17 -5 -17 6 0 6 10 9 23 6 30 -3
9 -5 9 -5 0z"/>
<path d="M1530 715 c-7 -8 -9 -15 -6 -15 4 0 14 7 22 15 9 8 11 15 6 15 -5 0
-15 -7 -22 -15z"/>
<path d="M2836 713 c-6 -14 -5 -15 5 -6 7 7 10 15 7 18 -3 3 -9 -2 -12 -12z"/>
<path d="M728 713 c7 -3 16 -2 19 1 4 3 -2 6 -13 5 -11 0 -14 -3 -6 -6z"/>
<path d="M1256 707 c3 -10 9 -15 12 -12 3 3 0 11 -7 18 -10 9 -11 8 -5 -6z"/>
<path d="M2026 703 c-20 -54 -56 -94 -56 -63 0 6 -5 10 -12 10 -6 0 -4 -7 5
-18 16 -17 15 -22 -18 -68 -19 -27 -35 -55 -35 -61 0 -7 -4 -13 -8 -13 -5 0
-15 -12 -23 -27 -7 -16 -33 -59 -57 -97 -24 -37 -41 -71 -38 -74 8 -7 32 24
53 71 9 20 20 37 25 37 4 0 8 7 8 15 0 8 5 15 10 15 6 0 10 5 10 11 0 9 75
129 130 209 35 51 42 70 27 70 -8 0 -18 -8 -21 -17z"/>
<path d="M2655 711 c3 -5 1 -12 -5 -16 -5 -3 -10 -17 -10 -31 0 -14 -6 -27
-12 -29 -7 -3 -14 -17 -15 -31 0 -15 -6 -36 -12 -48 -21 -43 -51 -127 -51
-146 0 -11 -4 -20 -8 -20 -13 0 -31 -67 -25 -90 4 -16 2 -19 -11 -14 -13 5
-16 0 -16 -25 0 -18 -5 -31 -12 -31 -8 0 -9 -3 -3 -8 6 -4 12 -20 14 -37 5
-46 11 -43 11 6 0 24 7 57 15 73 8 15 15 35 15 43 0 9 11 46 24 83 14 37 22
71 19 74 -4 3 -2 6 4 6 6 0 13 13 16 29 3 16 12 35 20 42 7 8 12 20 9 27 -2 7
3 28 12 46 9 19 16 41 16 49 0 9 5 19 10 22 13 8 13 35 -1 35 -5 0 -8 -4 -4
-9z"/>
<path d="M2507 615 c3 -55 7 -102 9 -104 7 -8 2 103 -6 154 -6 35 -6 19 -3
-50z"/>
<path d="M2543 630 c0 -47 2 -66 4 -42 2 23 2 61 0 85 -2 23 -4 4 -4 -43z"/>
<path d="M1220 690 c0 -5 7 -10 16 -10 8 0 12 5 9 10 -3 6 -10 10 -16 10 -5 0
-9 -4 -9 -10z"/>
<path d="M1463 650 c-7 -30 -24 -93 -38 -140 -22 -70 -42 -192 -31 -179 2 2 9
15 16 28 9 18 9 22 0 16 -12 -8 -9 16 9 60 20 48 62 225 59 246 -2 16 -7 6
-15 -31z"/>
<path d="M1170 680 c0 -5 5 -10 10 -10 6 0 10 5 10 10 0 6 -4 10 -10 10 -5 0
-10 -4 -10 -10z"/>
<path d="M2840 673 c0 -10 5 -25 10 -33 8 -12 10 -9 10 12 0 15 -4 30 -10 33
-5 3 -10 -2 -10 -12z"/>
<path d="M627 667 c-3 -8 -1 -20 4 -28 6 -10 9 -7 9 14 0 29 -5 35 -13 14z"/>
<path d="M1011 673 c-1 -6 -4 -20 -7 -30 -5 -17 -5 -17 6 0 6 10 9 23 6 30 -3
9 -5 9 -5 0z"/>
<path d="M1190 660 c0 -5 4 -10 9 -10 6 0 13 5 16 10 3 6 -1 10 -9 10 -9 0
-16 -4 -16 -10z"/>
<path d="M1250 656 c0 -9 5 -16 10 -16 6 0 10 4 10 9 0 6 -4 13 -10 16 -5 3
-10 -1 -10 -9z"/>
<path d="M1167 640 c3 -11 9 -17 14 -15 10 7 1 35 -11 35 -5 0 -6 -9 -3 -20z"/>
<path d="M140 641 c0 -6 4 -13 10 -16 6 -3 7 1 4 9 -7 18 -14 21 -14 7z"/>
<path d="M1220 636 c0 -9 5 -16 10 -16 6 0 10 4 10 9 0 6 -4 13 -10 16 -5 3
-10 -1 -10 -9z"/>
<path d="M1501 613 c-19 -40 -41 -116 -36 -121 3 -3 7 1 9 9 17 54 41 116 49
127 6 7 6 12 0 12 -5 0 -16 -12 -22 -27z"/>
<path d="M1270 620 c0 -5 5 -10 11 -10 5 0 7 5 4 10 -3 6 -8 10 -11 10 -2 0
-4 -4 -4 -10z"/>
<path d="M1334 616 c-3 -9 -9 -14 -13 -12 -4 3 -13 0 -21 -5 -13 -8 -13 -11 1
-22 16 -12 15 -42 -2 -31 -5 3 -9 1 -9 -5 0 -5 5 -13 10 -16 6 -3 10 -13 10
-21 0 -8 -4 -13 -9 -9 -5 3 -12 1 -16 -4 -3 -5 2 -14 11 -19 9 -5 15 -15 12
-22 -3 -10 -10 -7 -25 9 -13 14 -23 19 -28 12 -3 -6 1 -14 9 -17 9 -3 16 -12
16 -20 0 -8 4 -14 9 -14 15 0 29 24 29 50 0 40 12 112 23 133 6 10 8 21 5 24
-3 3 -8 -2 -12 -11z"/>
<path d="M2872 610 c0 -14 2 -19 5 -12 2 6 2 18 0 25 -3 6 -5 1 -5 -13z"/>
<path d="M1141 604 c-7 -9 -10 -18 -6 -22 4 -4 10 -1 12 6 3 6 9 10 13 7 5 -3
7 -12 3 -20 -3 -8 0 -15 6 -15 15 0 14 22 -1 42 -12 15 -15 15 -27 2z"/>
<path d="M1185 611 c-6 -11 9 -23 19 -14 9 9 7 23 -3 23 -6 0 -12 -4 -16 -9z"/>
<path d="M1246 611 c-4 -7 -5 -15 -2 -18 9 -9 19 4 14 18 -4 11 -6 11 -12 0z"/>
<path d="M630 580 c0 -16 -4 -30 -10 -30 -5 0 -10 -10 -9 -22 l0 -23 10 23 c5
13 12 21 17 18 4 -2 6 11 4 30 -5 42 -12 44 -12 4z"/>
<path d="M1570 590 c11 -21 30 -19 30 3 0 7 -4 6 -10 -3 -8 -13 -10 -12 -10 3
0 9 -5 17 -10 17 -7 0 -7 -7 0 -20z"/>
<path d="M1210 580 c0 -5 7 -10 16 -10 8 0 12 5 9 10 -3 6 -10 10 -16 10 -5 0
-9 -4 -9 -10z"/>
<path d="M1262 571 c2 -7 7 -12 11 -12 12 1 9 15 -3 20 -7 2 -11 -2 -8 -8z"/>
<path d="M1556 567 c3 -10 9 -15 12 -12 3 3 0 11 -7 18 -10 9 -11 8 -5 -6z"/>
<path d="M2071 564 c0 -11 3 -14 6 -6 3 7 2 16 -1 19 -3 4 -6 -2 -5 -13z"/>
<path d="M982 545 c0 -16 2 -22 5 -12 2 9 2 23 0 30 -3 6 -5 -1 -5 -18z"/>
<path d="M1123 546 c-1 -11 1 -15 4 -8 7 17 23 15 23 -3 0 -9 7 -18 15 -21 8
-4 15 -13 15 -21 0 -8 4 -12 9 -8 14 8 -19 62 -44 73 -18 8 -21 6 -22 -12z"/>
<path d="M1180 550 c0 -5 5 -10 10 -10 6 0 10 5 10 10 0 6 -4 10 -10 10 -5 0
-10 -4 -10 -10z"/>
<path d="M1235 550 c3 -5 10 -10 16 -10 5 0 9 5 9 10 0 6 -7 10 -16 10 -8 0
-12 -4 -9 -10z"/>
<path d="M21 534 c0 -11 3 -14 6 -6 3 7 2 16 -1 19 -3 4 -6 -2 -5 -13z"/>
<path d="M2413 510 c0 -25 2 -35 4 -22 2 12 2 32 0 45 -2 12 -4 2 -4 -23z"/>
<path d="M2890 515 c5 -21 6 -45 3 -54 -4 -13 -3 -14 5 -1 11 15 5 68 -9 84
-4 5 -4 -8 1 -29z"/>
<path d="M1206 531 c-4 -5 -2 -12 3 -15 5 -4 12 -2 15 3 4 5 2 12 -3 15 -5 4
-12 2 -15 -3z"/>
<path d="M1260 521 c0 -6 5 -13 10 -16 6 -3 10 1 10 9 0 9 -4 16 -10 16 -5 0
-10 -4 -10 -9z"/>
<path d="M1130 502 c0 -11 -7 -25 -15 -32 -9 -7 -14 -19 -11 -27 3 -8 -1 -16
-9 -19 -17 -7 -15 -47 4 -83 18 -33 22 -22 9 28 -9 34 -8 45 2 51 7 4 10 15 7
23 -10 27 17 39 36 17 9 -11 17 -26 17 -32 0 -9 3 -9 11 -1 8 8 6 17 -10 34
-11 13 -21 28 -21 35 0 7 -4 16 -10 19 -5 3 -10 -3 -10 -13z"/>
<path d="M966 479 c-8 -42 0 -50 9 -9 4 17 5 34 2 36 -2 3 -7 -10 -11 -27z"/>
<path d="M1230 495 c0 -8 5 -15 10 -15 6 0 10 7 10 15 0 8 -4 15 -10 15 -5 0
-10 -7 -10 -15z"/>
<path d="M2121 494 c0 -11 3 -14 6 -6 3 7 2 16 -1 19 -3 4 -6 -2 -5 -13z"/>
<path d="M1845 480 c-3 -5 -1 -10 4 -10 6 0 11 5 11 10 0 6 -2 10 -4 10 -3 0
-8 -4 -11 -10z"/>
<path d="M2072 460 c0 -19 2 -27 5 -17 2 9 2 25 0 35 -3 9 -5 1 -5 -18z"/>
<path d="M1200 470 c0 -5 5 -10 10 -10 6 0 10 5 10 10 0 6 -4 10 -10 10 -5 0
-10 -4 -10 -10z"/>
<path d="M2626 467 c3 -10 9 -15 12 -12 3 3 0 11 -7 18 -10 9 -11 8 -5 -6z"/>
<path d="M31 454 c0 -11 3 -14 6 -6 3 7 2 16 -1 19 -3 4 -6 -2 -5 -13z"/>
<path d="M611 416 c0 -35 3 -56 8 -50 4 5 5 32 1 59 l-7 50 -2 -59z"/>
<path d="M2123 430 c0 -25 2 -35 4 -22 2 12 2 32 0 45 -2 12 -4 2 -4 -23z"/>
<path d="M1130 443 c0 -12 -5 -25 -10 -28 -7 -4 -6 -14 2 -28 6 -12 10 -23 9
-25 -6 -8 19 -35 26 -28 4 5 2 11 -4 13 -17 6 -16 23 1 42 11 14 11 20 -5 46
-17 27 -19 28 -19 8z m12 -55 c-7 -7 -10 -5 -7 8 5 29 6 30 12 16 3 -8 1 -18
-5 -24z"/>
<path d="M2442 435 c0 -16 2 -22 5 -12 2 9 2 23 0 30 -3 6 -5 -1 -5 -18z"/>
<path d="M2910 450 c0 -8 -3 -26 -6 -40 -4 -20 -3 -22 5 -10 9 13 11 12 12 -5
2 -39 10 -80 18 -85 9 -5 19 -49 28 -117 6 -54 18 -56 18 -3 0 22 -3 40 -7 40
-4 0 -10 27 -14 60 -4 33 -11 60 -15 60 -5 0 -9 11 -9 24 0 26 -29 100 -30 76z"/>
<path d="M1220 440 c0 -5 7 -10 15 -10 8 0 15 5 15 10 0 6 -7 10 -15 10 -8 0
-15 -4 -15 -10z"/>
<path d="M2472 430 c0 -14 2 -19 5 -12 2 6 2 18 0 25 -3 6 -5 1 -5 -13z"/>
<path d="M1334 425 c-4 -8 -4 -22 0 -30 3 -8 1 -15 -4 -15 -6 0 -10 7 -10 15
0 8 -4 15 -10 15 -5 0 -10 -7 -10 -15 0 -9 -6 -12 -15 -9 -8 4 -15 12 -15 20
0 8 -4 14 -10 14 -15 0 -12 -15 8 -32 9 -9 30 -15 46 -14 25 1 29 5 31 34 3
34 -2 42 -11 17z"/>
<path d="M1495 430 c-3 -5 -1 -10 4 -10 6 0 11 5 11 10 0 6 -2 10 -4 10 -3 0
-8 -4 -11 -10z"/>
<path d="M1190 410 c0 -5 7 -10 15 -10 8 0 15 5 15 10 0 6 -7 10 -15 10 -8 0
-15 -4 -15 -10z"/>
<path d="M1225 389 c-10 -15 3 -25 16 -12 7 7 7 13 1 17 -6 3 -14 1 -17 -5z"/>
<path d="M1485 390 c-3 -5 -2 -10 4 -10 5 0 13 5 16 10 3 6 2 10 -4 10 -5 0
-13 -4 -16 -10z"/>
<path d="M2218 393 c7 -3 16 -2 19 1 4 3 -2 6 -13 5 -11 0 -14 -3 -6 -6z"/>
<path d="M1165 381 c-6 -11 9 -23 19 -14 9 9 7 23 -3 23 -6 0 -12 -4 -16 -9z"/>
<path d="M2413 350 c0 -25 2 -35 4 -22 2 12 2 32 0 45 -2 12 -4 2 -4 -23z"/>
<path d="M1026 323 c-8 -63 -1 -65 11 -3 6 27 7 50 3 50 -4 0 -10 -21 -14 -47z"/>
<path d="M1066 362 c-6 -11 28 -91 44 -102 4 -3 9 -12 12 -20 3 -9 7 -10 11
-4 3 6 -2 20 -13 31 -10 12 -16 24 -13 27 4 3 1 6 -6 6 -7 0 -10 3 -8 8 7 12
-20 66 -27 54z"/>
<path d="M1246 363 c-11 -11 -6 -23 9 -23 8 0 15 4 15 9 0 13 -16 22 -24 14z"/>
<path d="M1190 350 c0 -5 5 -10 10 -10 6 0 10 5 10 10 0 6 -4 10 -10 10 -5 0
-10 -4 -10 -10z"/>
<path d="M2748 343 c7 -3 16 -2 19 1 4 3 -2 6 -13 5 -11 0 -14 -3 -6 -6z"/>
<path d="M1216 332 c-3 -6 -1 -14 5 -17 15 -10 25 3 12 16 -7 7 -13 7 -17 1z"/>
<path d="M1276 331 c-4 -7 -5 -15 -2 -18 9 -9 19 4 14 18 -4 11 -6 11 -12 0z"/>
<path d="M1165 319 c-10 -15 3 -25 16 -12 7 7 7 13 1 17 -6 3 -14 1 -17 -5z"/>
<path d="M1127 313 c-4 -3 -7 -11 -7 -17 0 -6 5 -5 12 2 6 6 9 14 7 17 -3 3
-9 2 -12 -2z"/>
<path d="M1381 303 c0 -12 -4 -30 -7 -40 -5 -17 -5 -17 6 0 6 10 9 28 7 40 -4
22 -4 22 -6 0z"/>
<path d="M22 290 c0 -14 2 -19 5 -12 2 6 2 18 0 25 -3 6 -5 1 -5 -13z"/>
<path d="M1046 293 c-4 -11 -1 -22 8 -29 9 -6 12 -15 8 -19 -4 -5 1 -5 10 -2
12 4 15 2 11 -9 -3 -7 0 -14 7 -14 6 0 9 -4 5 -9 -3 -5 0 -13 6 -17 18 -11 1
48 -18 63 -9 7 -12 17 -7 25 5 9 2 8 -11 -2 -16 -14 -17 -13 -11 8 9 26 1 30
-8 5z"/>
<path d="M1245 299 c-10 -15 3 -25 16 -12 7 7 7 13 1 17 -6 3 -14 1 -17 -5z"/>
<path d="M2093 270 c0 -25 2 -35 4 -22 2 12 2 32 0 45 -2 12 -4 2 -4 -23z"/>
<path d="M2153 270 c0 -25 2 -35 4 -22 2 12 2 32 0 45 -2 12 -4 2 -4 -23z"/>
<path d="M1190 284 c0 -8 5 -12 10 -9 6 3 10 10 10 16 0 5 -4 9 -10 9 -5 0
-10 -7 -10 -16z"/>
<path d="M1842 280 c0 -14 2 -19 5 -12 2 6 2 18 0 25 -3 6 -5 1 -5 -13z"/>
<path d="M2552 275 c0 -16 2 -22 5 -12 2 9 2 23 0 30 -3 6 -5 -1 -5 -18z"/>
<path d="M1140 274 c0 -8 5 -12 10 -9 6 3 10 10 10 16 0 5 -4 9 -10 9 -5 0
-10 -7 -10 -16z"/>
<path d="M1215 269 c-10 -15 3 -25 16 -12 7 7 7 13 1 17 -6 3 -14 1 -17 -5z"/>
<path d="M1266 272 c-3 -6 -1 -14 5 -17 15 -10 25 3 12 16 -7 7 -13 7 -17 1z"/>
<path d="M1760 269 c0 -11 -87 -147 -101 -159 -13 -10 -69 -104 -64 -108 7 -7
30 21 60 75 16 28 33 49 37 47 4 -3 8 0 8 6 0 6 12 29 27 53 44 68 52 86 42
92 -5 4 -9 1 -9 -6z"/>
<path d="M1166 261 c-4 -7 -5 -15 -2 -18 9 -9 19 4 14 18 -4 11 -6 11 -12 0z"/>
<path d="M1901 254 c0 -11 3 -14 6 -6 3 7 2 16 -1 19 -3 4 -6 -2 -5 -13z"/>
<path d="M632 230 c0 -19 2 -27 5 -17 2 9 2 25 0 35 -3 9 -5 1 -5 -18z"/>
<path d="M1030 234 c0 -8 5 -12 10 -9 6 3 10 10 10 16 0 5 -4 9 -10 9 -5 0
-10 -7 -10 -16z"/>
<path d="M1237 244 c-8 -8 1 -24 14 -24 5 0 9 7 9 15 0 15 -12 20 -23 9z"/>
<path d="M1185 231 c-6 -11 9 -23 19 -14 9 9 7 23 -3 23 -6 0 -12 -4 -16 -9z"/>
<path d="M184 120 c1 -60 6 -113 9 -117 4 -3 7 46 7 110 0 68 -4 117 -10 117
-5 0 -8 -45 -6 -110z"/>
<path d="M1050 216 c0 -8 7 -21 15 -29 8 -8 11 -17 8 -21 -4 -3 -1 -6 5 -6 6
0 14 5 17 10 3 6 2 10 -3 10 -6 0 -13 11 -16 25 -7 27 -26 35 -26 11z"/>
<path d="M1135 220 c-3 -5 1 -10 9 -10 9 0 16 -7 16 -15 0 -8 5 -15 10 -15 15
0 12 19 -4 36 -17 17 -23 17 -31 4z"/>
<path d="M2223 190 c0 -25 2 -35 4 -22 2 12 2 32 0 45 -2 12 -4 2 -4 -23z"/>
<path d="M2618 223 c7 -3 16 -2 19 1 4 3 -2 6 -13 5 -11 0 -14 -3 -6 -6z"/>
<path d="M1005 209 c-4 -6 -5 -12 -2 -15 2 -3 7 2 10 11 7 17 1 20 -8 4z"/>
<path d="M1265 211 c-3 -5 -1 -12 5 -16 5 -3 10 1 10 9 0 18 -6 21 -15 7z"/>
<path d="M922 180 c0 -19 2 -27 5 -17 2 9 2 25 0 35 -3 9 -5 1 -5 -18z"/>
<path d="M1210 200 c0 -5 5 -10 10 -10 6 0 10 5 10 10 0 6 -4 10 -10 10 -5 0
-10 -4 -10 -10z"/>
<path d="M1020 187 c0 -7 9 -19 19 -27 11 -7 18 -18 15 -22 -3 -5 4 -17 15
-27 12 -10 21 -24 21 -32 0 -10 3 -10 12 -1 9 9 7 16 -9 29 -11 10 -23 28 -27
41 -4 12 -12 22 -17 22 -5 0 -9 7 -9 15 0 8 -4 15 -10 15 -5 0 -10 -6 -10 -13z"/>
<path d="M1116 185 c-3 -8 -1 -15 4 -15 6 0 10 7 10 15 0 8 -2 15 -4 15 -2 0
-6 -7 -10 -15z"/>
<path d="M1235 179 c-10 -15 3 -25 16 -12 7 7 7 13 1 17 -6 3 -14 1 -17 -5z"/>
<path d="M1401 174 c0 -11 3 -14 6 -6 3 7 2 16 -1 19 -3 4 -6 -2 -5 -13z"/>
<path d="M2192 170 c0 -14 2 -19 5 -12 2 6 2 18 0 25 -3 6 -5 1 -5 -13z"/>
<path d="M1185 171 c-3 -5 -1 -12 5 -16 5 -3 10 1 10 9 0 18 -6 21 -15 7z"/>
<path d="M2121 164 c0 -11 3 -14 6 -6 3 7 2 16 -1 19 -3 4 -6 -2 -5 -13z"/>
<path d="M2472 155 c0 -16 2 -22 5 -12 2 9 2 23 0 30 -3 6 -5 -1 -5 -18z"/>
<path d="M991 167 c-1 -4 4 -16 10 -26 10 -14 8 -24 -9 -47 -12 -16 -24 -45
-27 -64 -4 -33 -4 -32 10 8 7 23 21 49 29 58 14 14 18 14 31 0 8 -8 15 -20 15
-27 0 -10 3 -10 12 -1 9 9 6 16 -10 30 -12 11 -22 24 -22 31 0 6 -5 11 -11 11
-5 0 -7 5 -3 12 4 6 3 8 -4 4 -5 -3 -13 0 -15 6 -3 7 -6 10 -6 5z"/>
<path d="M1135 161 c-6 -11 9 -23 19 -14 9 9 7 23 -3 23 -6 0 -12 -4 -16 -9z"/>
<path d="M1096 152 c-8 -14 21 -48 32 -38 3 4 2 10 -4 14 -6 4 -13 14 -16 22
-3 10 -6 11 -12 2z"/>
<path d="M1260 145 c0 -8 5 -15 10 -15 6 0 10 7 10 15 0 8 -4 15 -10 15 -5 0
-10 -7 -10 -15z"/>
<path d="M1210 134 c0 -8 5 -12 10 -9 6 3 10 10 10 16 0 5 -4 9 -10 9 -5 0
-10 -7 -10 -16z"/>
<path d="M1160 130 c0 -5 5 -10 10 -10 6 0 10 5 10 10 0 6 -4 10 -10 10 -5 0
-10 -4 -10 -10z"/>
<path d="M911 114 c0 -11 3 -14 6 -6 3 7 2 16 -1 19 -3 4 -6 -2 -5 -13z"/>
<path d="M1235 119 c-10 -15 3 -25 16 -12 7 7 7 13 1 17 -6 3 -14 1 -17 -5z"/>
<path d="M1620 115 c-7 -9 -8 -15 -2 -15 5 0 12 7 16 15 3 8 4 15 2 15 -2 0
-9 -7 -16 -15z"/>
<path d="M1186 111 c-4 -7 -5 -15 -2 -18 9 -9 19 4 14 18 -4 11 -6 11 -12 0z"/>
<path d="M2971 104 c0 -11 3 -14 6 -6 3 7 2 16 -1 19 -3 4 -6 -2 -5 -13z"/>
<path d="M1135 101 c-6 -11 9 -23 19 -14 9 9 7 23 -3 23 -6 0 -12 -4 -16 -9z"/>
<path d="M1260 84 c0 -8 5 -12 10 -9 6 3 10 10 10 16 0 5 -4 9 -10 9 -5 0 -10
-7 -10 -16z"/>
<path d="M1205 81 c-6 -11 9 -23 19 -14 9 9 7 23 -3 23 -6 0 -12 -4 -16 -9z"/>
<path d="M1905 80 c-3 -5 -1 -10 4 -10 6 0 11 5 11 10 0 6 -2 10 -4 10 -3 0
-8 -4 -11 -10z"/>
<path d="M1000 71 c0 -5 -3 -18 -6 -28 -5 -16 -4 -16 10 1 18 23 20 36 6 36
-5 0 -10 -4 -10 -9z"/>
<path d="M1155 70 c-3 -5 1 -10 9 -10 9 0 16 5 16 10 0 6 -4 10 -9 10 -6 0
-13 -4 -16 -10z"/>
<path d="M1110 60 c0 -5 5 -10 10 -10 6 0 10 5 10 10 0 6 -4 10 -10 10 -5 0
-10 -4 -10 -10z"/>
<path d="M1671 54 c0 -11 3 -14 6 -6 3 7 2 16 -1 19 -3 4 -6 -2 -5 -13z"/>
<path d="M1026 51 c-4 -7 -5 -15 -2 -18 9 -9 19 4 14 18 -4 11 -6 11 -12 0z"/>
<path d="M1070 49 c0 -5 5 -7 10 -4 6 3 10 8 10 11 0 2 -4 4 -10 4 -5 0 -10
-5 -10 -11z"/>
<path d="M1185 49 c-10 -15 3 -25 16 -12 7 7 7 13 1 17 -6 3 -14 1 -17 -5z"/>
<path d="M1230 50 c0 -5 5 -10 10 -10 6 0 10 5 10 10 0 6 -4 10 -10 10 -5 0
-10 -4 -10 -10z"/>
<path d="M1853 53 c9 -2 23 -2 30 0 6 3 -1 5 -18 5 -16 0 -22 -2 -12 -5z"/>
<path d="M2161 44 c0 -11 3 -14 6 -6 3 7 2 16 -1 19 -3 4 -6 -2 -5 -13z"/>
<path d="M1135 39 c-10 -15 3 -25 16 -12 7 7 7 13 1 17 -6 3 -14 1 -17 -5z"/>
<path d="M1090 24 c0 -8 5 -12 10 -9 6 3 10 10 10 16 0 5 -4 9 -10 9 -5 0 -10
-7 -10 -16z"/>
<path d="M1255 31 c-3 -5 -1 -12 5 -16 5 -3 10 1 10 9 0 18 -6 21 -15 7z"/>
<path d="M1046 21 c-4 -7 -5 -15 -2 -18 9 -9 19 4 14 18 -4 11 -6 11 -12 0z"/>
<path d="M1206 21 c-4 -5 -2 -12 3 -15 5 -4 12 -2 15 3 4 5 2 12 -3 15 -5 4
-12 2 -15 -3z"/>
<path d="M990 10 c0 -5 4 -10 9 -10 6 0 13 5 16 10 3 6 -1 10 -9 10 -9 0 -16
-4 -16 -10z"/>
<path d="M1155 10 c-3 -5 1 -10 9 -10 9 0 16 5 16 10 0 6 -4 10 -9 10 -6 0
-13 -4 -16 -10z"/>
</g>
</svg>
