<?xml version="1.0" standalone="no"?>
<!DOCTYPE svg PUBLIC "-//W3C//DTD SVG 20010904//EN"
 "http://www.w3.org/TR/2001/REC-SVG-20010904/DTD/svg10.dtd">
<svg version="1.0" xmlns="http://www.w3.org/2000/svg"
 width="900.000000pt" height="837.000000pt" viewBox="0 0 900.000000 837.000000"
 preserveAspectRatio="xMidYMid meet">
<metadata>
Created by potrace 1.10, written by Peter Selinger 2001-2011
</metadata>
<g transform="translate(0.000000,837.000000) scale(0.100000,-0.100000)"
fill="#000000" stroke="none">
<path d="M0 4185 l0 -4185 1328 0 1327 0 18 128 c9 70 17 159 17 197 0 92 24
308 60 525 16 96 39 249 50 340 12 91 32 207 46 259 13 51 24 112 24 135 0 23
9 66 19 96 11 30 24 90 30 134 6 43 25 129 41 191 17 62 30 116 30 120 0 3 12
17 27 31 l26 24 -21 20 c-18 17 -19 24 -11 50 21 60 52 45 47 -22 -3 -35 -2
-37 22 -31 14 3 31 11 39 17 12 9 13 3 7 -41 -7 -52 -6 -53 20 -53 27 0 27 0
20 58 -4 31 -11 95 -16 142 -13 118 -13 1011 0 1080 5 30 13 79 16 108 5 35
13 56 24 62 12 6 16 17 13 34 -7 33 5 79 17 71 6 -3 10 -21 10 -39 0 -17 5
-37 12 -44 8 -8 8 -15 0 -24 -10 -13 -1 -142 12 -155 3 -3 12 2 21 10 17 17
21 82 5 92 -13 8 -13 45 0 45 6 0 10 -7 10 -15 0 -9 7 -18 15 -21 11 -4 15
-21 15 -55 0 -36 5 -54 21 -70 30 -30 44 -19 45 37 0 27 1 53 2 58 1 4 33 -19
71 -53 38 -34 74 -61 80 -61 14 0 14 23 0 37 -6 6 -9 23 -7 39 3 27 6 29 41
27 24 -2 45 3 54 12 13 13 12 15 -6 15 -14 0 -21 8 -23 28 -3 24 -7 27 -36 26
-27 -2 -33 2 -38 25 -2 14 -9 42 -14 62 -13 48 -13 106 0 114 20 12 -1 25 -21
14 -30 -16 -53 -4 -39 20 13 24 13 78 1 86 -12 7 -41 -34 -41 -57 0 -10 -6
-18 -12 -18 -14 1 -72 80 -84 115 -4 11 -15 31 -24 45 -9 14 -22 45 -29 70
-25 85 -34 102 -72 127 -43 29 -69 63 -69 93 0 13 -7 20 -20 20 -24 0 -26 -22
-5 -40 17 -14 21 -70 5 -70 -5 0 -10 6 -10 14 0 8 -12 28 -26 45 -27 32 -26
61 1 61 9 0 13 5 10 10 -3 6 -14 10 -24 10 -42 0 -68 92 -35 124 10 10 13 24
9 37 -5 15 -9 18 -15 9 -10 -16 -40 -9 -54 13 -9 14 -7 20 6 28 18 10 32 59
29 102 -1 15 5 35 14 43 21 21 19 29 -12 49 l-26 17 6 -45 c5 -36 2 -50 -12
-68 l-18 -23 -18 27 c-12 19 -15 37 -11 64 18 110 19 135 5 143 -18 12 -39 -7
-39 -34 0 -11 -9 -36 -20 -53 -17 -28 -26 -33 -58 -33 -55 0 -78 21 -86 77 -8
66 -9 601 -1 646 4 20 17 47 29 60 20 21 29 24 75 19 60 -5 75 7 85 71 4 22
13 51 20 66 8 15 20 65 26 111 6 47 18 110 25 140 8 30 19 79 25 108 5 29 16
63 24 75 8 12 17 38 21 57 4 19 15 49 24 65 13 23 16 52 15 125 -1 59 2 100
10 109 6 8 11 28 11 45 0 22 6 31 21 35 23 7 65 53 106 117 16 25 39 46 60 53
18 7 48 19 66 27 45 19 105 18 190 -6 87 -24 157 -26 166 -5 3 8 14 15 25 15
24 0 86 56 95 87 4 11 13 24 21 27 8 3 15 14 15 25 0 11 9 26 21 34 12 9 16
17 10 21 -12 8 -67 -30 -75 -51 -7 -17 -46 -17 -46 1 0 28 13 48 36 57 33 12
30 28 -6 36 -16 3 -30 9 -30 14 0 12 33 28 55 26 11 -1 20 3 20 8 0 6 13 23
28 39 26 28 30 29 62 17 41 -14 55 -8 55 24 0 28 -30 41 -59 26 -11 -6 -40
-11 -65 -11 -25 0 -46 -4 -46 -10 0 -17 -36 -11 -61 9 -21 17 -22 22 -11 38 7
10 22 33 33 51 24 37 39 41 46 12 6 -23 31 -26 59 -6 18 14 18 15 -8 25 -25 9
-27 13 -18 36 12 31 -7 43 -38 26 -17 -9 -23 -6 -37 15 -14 22 -15 28 -4 35 8
5 22 7 31 5 9 -2 32 7 49 20 19 14 40 22 50 19 10 -4 32 1 50 11 31 16 33 15
49 -6 9 -12 16 -38 15 -58 -1 -31 -5 -37 -35 -47 -37 -13 -52 -41 -26 -51 17
-6 110 35 237 105 41 22 149 126 149 143 0 3 -16 9 -35 12 -37 7 -122 -13
-184 -42 -26 -13 -64 -17 -157 -17 -67 0 -126 -3 -129 -7 -4 -4 -16 -3 -26 2
-23 13 -93 -22 -115 -56 -9 -12 -29 -27 -45 -33 -32 -11 -40 -45 -12 -55 13
-5 14 -9 4 -19 -9 -9 -16 -7 -30 12 l-18 24 -22 -22 c-11 -11 -21 -26 -21 -31
0 -6 -11 -15 -25 -20 -16 -6 -25 -17 -25 -31 0 -16 -3 -19 -13 -11 -10 8 -27
0 -71 -35 -43 -34 -60 -43 -69 -34 -8 8 -8 11 1 11 7 0 12 11 12 25 0 15 12
37 30 53 17 16 30 32 30 36 0 4 13 19 30 33 23 19 30 33 30 59 0 22 6 37 15
40 8 4 15 15 15 25 0 10 5 19 11 19 15 0 43 30 35 38 -4 3 -10 2 -14 -4 -4 -6
-26 -21 -49 -32 -22 -12 -50 -33 -61 -47 -15 -19 -29 -25 -61 -25 -23 0 -41 5
-41 10 0 14 36 47 108 101 32 24 61 47 66 51 6 5 2 14 -10 22 -18 14 -18 15 9
25 16 6 34 12 40 12 20 2 -46 17 -81 18 -19 0 -50 -6 -70 -15 -21 -9 -52 -22
-69 -30 -45 -19 -44 -44 1 -44 19 0 37 -4 41 -10 7 -11 -56 -29 -140 -40 -68
-9 -135 -35 -135 -52 0 -6 -8 -17 -17 -24 -24 -17 -7 -31 18 -15 29 18 35 7 9
-19 -13 -13 -28 -19 -39 -15 -12 4 -32 -8 -62 -36 -24 -22 -65 -54 -91 -71
-51 -32 -55 -37 -37 -55 22 -22 -58 -93 -104 -93 -13 0 -7 43 14 109 17 50 34
79 73 119 28 29 64 59 79 68 15 8 32 25 37 38 4 13 28 33 52 46 23 12 64 40
90 62 87 73 238 167 331 206 224 96 339 130 509 151 147 19 477 -17 509 -55 6
-8 24 -14 40 -14 15 0 31 -4 34 -10 3 -5 15 -10 27 -10 11 0 59 -15 107 -34
47 -18 102 -36 121 -39 57 -8 165 -64 236 -123 37 -30 70 -54 75 -54 17 0 150
-100 194 -146 11 -12 52 -50 90 -85 39 -35 89 -88 113 -118 24 -30 56 -63 73
-73 16 -10 29 -21 29 -25 0 -5 14 -14 30 -21 21 -10 30 -21 30 -37 0 -12 7
-25 15 -29 17 -6 20 -36 4 -36 -7 0 -9 -11 -6 -26 4 -25 3 -26 -32 -21 -20 3
-28 3 -18 1 9 -3 17 -10 17 -14 0 -5 20 -30 45 -54 50 -51 56 -66 23 -66 -23
0 -108 84 -108 108 0 6 -4 12 -10 12 -5 0 -10 9 -10 20 0 11 -4 20 -10 20 -15
0 -13 -6 22 -77 17 -35 50 -83 74 -107 23 -24 51 -61 63 -83 11 -22 27 -43 36
-46 15 -6 21 -42 8 -50 -5 -2 -20 -7 -35 -11 -20 -4 -28 -3 -28 7 0 7 -7 22
-14 33 -14 18 -15 18 -26 -11 -8 -24 -21 -33 -60 -47 -57 -19 -66 -13 -61 42
4 47 15 57 35 29 8 -13 18 -20 22 -17 8 9 -6 87 -17 94 -5 3 -6 16 -3 28 4 16
-1 30 -14 42 -10 11 -22 27 -25 37 -4 9 -13 17 -22 17 -8 0 -15 5 -15 10 0 6
-18 28 -40 49 -22 21 -40 44 -40 50 0 7 -10 26 -21 43 l-21 29 -29 -27 c-27
-26 -31 -27 -45 -12 -15 15 -14 17 5 23 11 3 21 12 21 18 0 15 -48 56 -78 68
-24 9 -26 29 -3 37 7 2 15 -5 18 -17 3 -12 13 -21 22 -21 9 0 32 -11 51 -23
19 -13 52 -27 73 -30 34 -5 39 -3 47 19 17 44 11 62 -35 111 -25 25 -45 50
-45 54 0 5 -9 13 -20 19 -11 6 -20 18 -20 28 0 22 -85 112 -105 112 -11 0 -15
-11 -15 -44 0 -25 5 -48 10 -51 6 -3 10 -22 10 -41 0 -27 4 -34 20 -34 11 0
20 -4 20 -10 0 -5 -6 -10 -14 -10 -8 0 -18 5 -21 10 -3 6 -15 10 -26 10 -26 0
-39 37 -39 109 0 40 5 63 15 71 25 21 17 35 -32 60 -43 21 -109 67 -171 120
-13 11 -32 20 -41 20 -10 0 -26 9 -36 20 -21 24 -35 26 -35 5 0 -8 11 -17 24
-21 16 -4 27 -16 33 -37 7 -27 14 -33 46 -37 30 -4 45 -14 72 -49 19 -24 35
-48 35 -53 0 -6 6 -24 13 -41 21 -49 37 -101 37 -121 0 -15 -3 -16 -15 -6 -17
14 -35 5 -35 -16 0 -23 -25 -11 -28 14 -2 15 2 22 12 22 38 0 -3 105 -49 126
-12 5 -20 18 -19 31 0 12 -3 20 -8 17 -5 -3 -25 11 -45 31 -20 20 -43 35 -52
33 -21 -4 -27 -39 -10 -52 23 -18 58 -73 52 -80 -4 -3 -15 -6 -25 -6 -10 0
-18 -7 -18 -15 0 -21 -25 -19 -52 5 -44 39 -133 115 -160 136 -15 12 -30 33
-34 47 -5 22 -12 27 -35 27 -25 0 -30 5 -35 30 -4 17 -11 30 -15 30 -5 0 -15
11 -21 25 -9 19 -19 25 -43 25 -33 0 -54 16 -107 78 -25 31 -48 42 -48 23 0
-5 7 -14 15 -21 8 -7 15 -18 15 -26 0 -21 46 -64 69 -64 12 0 21 -6 21 -15 0
-9 -9 -15 -24 -15 -13 0 -26 7 -30 15 -3 8 -14 15 -24 15 -11 0 -46 13 -78 30
-32 16 -69 30 -81 30 -12 0 -32 11 -45 24 -23 24 -50 31 -116 28 -45 -3 -31
-22 16 -22 54 0 81 -10 87 -31 4 -10 14 -19 24 -19 9 0 26 -6 37 -14 18 -14
18 -15 -9 -21 -15 -4 -40 -4 -55 0 -47 13 -152 17 -152 7 0 -16 24 -21 68 -15
28 4 47 0 63 -11 13 -9 35 -16 50 -16 15 0 32 -7 39 -15 9 -10 32 -15 74 -15
52 0 66 -4 84 -23 12 -13 22 -33 22 -44 0 -13 10 -25 30 -33 30 -12 39 -33 20
-45 -6 -3 -10 -16 -10 -27 0 -19 4 -20 46 -14 26 3 52 2 58 -3 6 -4 41 -11 78
-14 42 -3 79 -12 98 -24 33 -21 83 -83 74 -92 -3 -3 -10 1 -14 10 -5 9 -31 22
-57 29 -27 8 -58 20 -70 28 -16 10 -36 12 -68 8 -57 -9 -59 -26 -2 -26 34 0
55 -8 93 -35 27 -19 58 -35 69 -35 12 0 26 -5 33 -12 9 -9 18 -9 38 1 28 12
48 6 25 -8 -17 -11 -6 -31 17 -31 10 0 25 -8 34 -17 25 -28 61 -53 75 -53 22
0 53 -33 53 -56 0 -12 7 -35 15 -50 8 -16 15 -37 15 -46 0 -9 5 -20 10 -23 6
-3 10 -18 10 -33 0 -15 6 -37 14 -48 14 -19 31 -71 47 -144 4 -19 15 -55 24
-79 21 -57 46 -188 39 -206 -6 -15 23 -159 37 -186 10 -20 64 -228 73 -284 4
-22 11 -83 16 -135 5 -52 14 -129 21 -170 10 -69 15 -78 53 -112 22 -20 51
-37 64 -38 27 0 58 31 90 90 29 54 30 84 2 75 -15 -5 -20 -2 -20 14 0 11 5 23
10 26 18 11 10 42 -15 59 -17 11 -25 26 -25 45 0 71 34 85 45 19 8 -47 56
-104 80 -94 8 3 15 11 15 17 0 32 73 52 98 27 9 -9 15 -9 23 -1 9 9 7 19 -7
40 -10 15 -21 55 -25 88 -9 75 -36 102 -55 55 -14 -33 -45 -43 -37 -11 2 10
-1 45 -8 77 -21 103 -23 134 -8 134 29 0 39 -18 48 -84 5 -37 12 -71 15 -74
15 -15 21 18 18 106 -3 82 -6 100 -24 120 -28 29 -35 28 -43 -8 -5 -21 -13
-30 -26 -30 -26 0 -24 17 6 56 19 25 25 45 25 82 0 40 4 52 22 64 20 14 21 17
8 33 -8 9 -24 21 -37 26 -17 6 -23 16 -23 38 0 16 4 32 9 36 10 5 91 -72 91
-87 0 -4 9 -8 20 -8 17 0 20 -7 20 -45 0 -49 -10 -57 -32 -23 -20 30 -48 18
-48 -22 0 -41 38 -92 62 -84 13 4 18 0 19 -13 0 -10 2 -90 5 -178 2 -104 9
-174 18 -200 8 -22 17 -64 20 -93 3 -29 17 -79 32 -110 24 -51 27 -68 27 -177
1 -131 -29 -331 -62 -426 -11 -30 -48 -124 -83 -209 -76 -184 -94 -203 -188
-198 l-55 3 -13 -40 c-7 -22 -17 -74 -21 -115 -5 -42 -13 -86 -20 -98 -12 -23
-26 -112 -40 -258 -5 -50 -14 -99 -20 -110 -31 -56 -59 -147 -64 -214 -11
-126 -102 -399 -235 -700 -14 -32 -32 -68 -53 -110 -37 -69 -84 -187 -99 -246
-10 -39 -33 -102 -50 -140 -17 -38 -43 -103 -57 -144 -24 -69 -53 -133 -103
-220 -11 -19 -20 -43 -20 -52 0 -28 -31 -101 -52 -121 -10 -10 -18 -30 -18
-45 0 -19 -3 -23 -9 -13 -15 23 -25 -8 -11 -35 11 -19 10 -27 -4 -49 -10 -15
-15 -33 -12 -41 3 -8 -1 -32 -10 -52 -8 -20 -22 -57 -31 -82 -23 -69 -80 -214
-128 -330 -38 -91 -62 -151 -151 -385 -9 -22 -22 -53 -30 -68 -8 -16 -14 -35
-14 -42 0 -7 -6 -26 -14 -42 -8 -15 -21 -46 -29 -68 -8 -22 -31 -79 -51 -127
-20 -49 -65 -166 -100 -261 -35 -95 -84 -215 -109 -265 l-44 -93 -5 129 c-6
137 -20 193 -33 133 -4 -17 -4 -54 0 -80 5 -39 2 -57 -15 -91 -21 -41 -21 -44
-5 -81 16 -34 16 -39 1 -60 -9 -13 -16 -29 -16 -36 0 -11 494 -13 2585 -13
l2585 0 0 4185 0 4185 -4500 0 -4500 0 0 -4185z m4580 3355 c0 -5 -9 -10 -20
-10 -11 0 -20 5 -20 10 0 6 9 10 20 10 11 0 20 -4 20 -10z m-1239 -221 c16 -8
18 -13 8 -25 -6 -8 -16 -14 -21 -14 -13 0 -79 -50 -104 -79 -13 -16 -27 -22
-37 -18 -25 9 -21 25 12 41 16 9 31 24 34 35 3 12 17 25 31 31 15 5 29 17 32
25 7 18 18 19 45 4z m1697 -19 c12 -16 22 -34 22 -40 0 -17 -20 -11 -27 8 -4
9 -12 21 -20 25 -14 9 -18 37 -5 37 5 0 18 -13 30 -30z m-1595 -18 c-3 -9 -19
-29 -35 -44 -15 -15 -28 -33 -28 -40 -1 -19 -99 -94 -153 -118 -25 -11 -49
-25 -52 -30 -3 -6 -14 -10 -24 -10 -10 0 -32 -7 -50 -16 -17 -9 -39 -13 -47
-10 -14 5 -12 10 8 31 12 14 30 25 38 25 8 0 24 7 34 15 11 8 26 15 34 15 16
0 83 46 136 94 22 20 46 36 53 36 7 0 13 5 13 11 0 14 62 69 71 63 5 -2 5 -12
2 -22z m335 -34 c2 -11 -6 -18 -27 -23 -64 -14 -101 -66 -66 -95 13 -11 13
-15 0 -41 -8 -15 -15 -43 -15 -60 0 -47 -24 -69 -66 -62 -25 4 -35 2 -40 -11
-7 -18 -31 -21 -53 -7 -11 7 -5 18 30 53 80 79 89 95 89 159 l0 59 40 0 c28 0
40 4 40 15 0 32 62 45 68 13z m1467 -98 c0 -8 -8 -16 -17 -18 -13 -2 -18 3
-18 18 0 15 5 20 18 18 9 -2 17 -10 17 -18z m-2190 -29 c3 -5 -10 -15 -29 -21
-19 -6 -46 -20 -60 -31 -37 -29 -32 -5 5 31 31 29 72 39 84 21z m2133 -13 c7
-7 12 -16 12 -20 0 -15 -15 -8 -28 12 -13 22 -3 27 16 8z m203 -1 c-1 -12 -15
-9 -19 4 -3 6 1 10 8 8 6 -3 11 -8 11 -12z m-2621 -96 c0 -23 -6 -44 -16 -52
-9 -7 -13 -21 -10 -33 3 -11 -2 -28 -11 -38 -15 -17 -15 -20 5 -41 27 -29 28
-37 2 -37 -11 0 -20 5 -20 10 0 6 -7 10 -15 10 -24 0 -36 34 -20 58 8 11 12
28 9 37 -4 10 2 24 15 36 11 11 21 30 21 42 0 23 17 47 32 47 4 0 8 -17 8 -39z
m995 -71 c-3 -5 -13 -10 -21 -10 -8 0 -12 5 -9 10 3 6 13 10 21 10 8 0 12 -4
9 -10z m1653 -1 c-2 -6 -8 -10 -13 -10 -5 0 -11 4 -13 10 -2 6 4 11 13 11 9 0
15 -5 13 -11z m-2275 -21 c-4 -13 -15 -36 -26 -52 -18 -25 -21 -26 -29 -11 -7
12 -3 26 14 51 26 39 49 45 41 12z m397 -13 c0 -16 -35 -21 -44 -6 -8 12 4 21
26 21 10 0 18 -7 18 -15z m1869 -122 c0 -31 -2 -34 -9 -18 -12 28 -12 55 0 55
6 0 10 -17 9 -37z m-2703 -8 c8 -34 -1 -55 -26 -55 -16 0 -20 6 -20 33 0 19 3
37 7 40 14 15 33 6 39 -18z m137 19 c10 -10 -12 -44 -28 -44 -18 0 -20 21 -3
38 13 13 22 15 31 6z m2727 -65 c0 -38 -24 -35 -28 4 -2 19 1 27 12 27 11 0
16 -10 16 -31z m-2500 -4 c0 -16 -6 -25 -15 -25 -15 0 -21 31 -8 43 13 14 23
6 23 -18z m-190 -29 c0 -20 -26 -40 -35 -26 -10 16 2 40 20 40 8 0 15 -6 15
-14z m-211 -12 c13 -12 17 -22 11 -33 -4 -9 -13 -27 -19 -41 -7 -14 -19 -38
-29 -55 -13 -25 -17 -27 -20 -11 -6 26 7 104 19 111 5 4 9 15 9 26 0 23 4 24
29 3z m2831 -63 c11 -43 5 -71 -15 -71 -21 0 -28 36 -14 75 7 19 14 35 16 35
1 0 7 -18 13 -39z m-2685 -1 c8 -13 -13 -40 -31 -40 -14 0 -19 31 -7 43 10 10
31 8 38 -3z m-209 -134 c7 -29 -1 -46 -22 -46 -14 0 -19 26 -8 54 9 23 23 19
30 -8z m2994 -35 c0 -10 -8 -21 -18 -23 -15 -4 -18 -1 -14 18 5 28 32 32 32 5z
m-2880 -28 c0 -5 -5 -15 -10 -23 -8 -12 -10 -11 -10 8 0 12 5 22 10 22 6 0 10
-3 10 -7z m2897 -145 c-2 -13 -4 -5 -4 17 -1 22 1 32 4 23 2 -10 2 -28 0 -40z
m-3017 -1 c0 -10 -4 -15 -10 -12 -5 3 -10 18 -10 33 0 21 2 24 10 12 5 -8 10
-23 10 -33z m3000 -99 c0 -43 -18 -42 -40 4 -21 44 -24 65 -13 94 5 13 11 7
29 -27 13 -24 23 -56 24 -71z m85 -344 c-4 -20 -13 -34 -25 -37 -24 -6 -25 0
-3 71 16 56 16 56 25 27 5 -16 6 -44 3 -61z m-2965 -263 c0 -11 -4 -23 -10
-26 -6 -4 -10 5 -10 19 0 14 5 26 10 26 6 0 10 -9 10 -19z m420 -1506 c0 -8
-4 -15 -10 -15 -5 0 -10 7 -10 15 0 8 5 15 10 15 6 0 10 -7 10 -15z m364 -511
c9 -3 16 -12 16 -20 0 -16 -57 -19 -80 -4 -29 19 25 39 64 24z m2112 -1435
c44 -23 67 -29 92 -25 24 3 38 0 52 -14 10 -10 31 -20 47 -22 18 -2 29 -10 31
-22 3 -16 0 -18 -25 -12 -34 9 -58 9 -101 0 -23 -4 -38 -2 -50 9 -19 16 -71
29 -119 28 -26 -1 -34 4 -39 23 -7 31 11 66 35 66 11 0 45 -14 77 -31z"/>
<path d="M3950 7720 c0 -5 11 -10 25 -10 14 0 25 5 25 10 0 6 -11 10 -25 10
-14 0 -25 -4 -25 -10z"/>
<path d="M4520 7721 c0 -16 46 -61 63 -61 9 0 23 -7 31 -15 14 -14 18 -14 43
-1 l28 15 -31 1 c-18 0 -39 8 -49 20 -10 11 -24 20 -30 20 -7 0 -18 7 -25 15
-14 17 -30 20 -30 6z"/>
<path d="M4710 7610 c-20 -13 0 -47 54 -87 52 -40 56 -40 56 -8 0 18 -7 28
-25 35 -13 5 -31 23 -40 40 -17 32 -22 35 -45 20z"/>
<path d="M4830 7585 c0 -10 7 -15 18 -13 21 4 19 22 -2 26 -10 2 -16 -3 -16
-13z"/>
<path d="M3926 7521 c-16 -18 -15 -19 26 -25 63 -8 226 -7 232 3 8 13 -112 39
-180 40 -48 1 -65 -4 -78 -18z"/>
<path d="M4860 7505 c0 -10 7 -15 18 -13 21 4 19 22 -2 26 -10 2 -16 -3 -16
-13z"/>
<path d="M3743 7495 c-13 -11 -35 -13 -80 -8 -64 6 -82 -4 -40 -22 24 -11 37
-54 15 -56 -7 -1 -25 0 -40 1 -19 1 -28 -3 -28 -14 0 -8 -9 -20 -20 -26 -11
-6 -18 -15 -15 -20 4 -6 18 -4 35 5 16 8 38 15 50 15 28 0 86 32 115 65 14 14
41 29 60 32 40 6 69 32 39 34 -11 1 -31 3 -46 4 -14 2 -34 -3 -45 -10z"/>
<path d="M4852 7424 c23 -50 34 -64 50 -64 21 0 25 32 6 48 -18 14 -61 26 -56
16z"/>
<path d="M4435 7390 c-3 -5 3 -10 15 -10 12 0 18 5 15 10 -3 6 -10 10 -15 10
-5 0 -12 -4 -15 -10z"/>
<path d="M4465 7331 c-10 -17 33 -33 55 -21 11 6 18 15 15 21 -8 12 -62 12
-70 0z"/>
<path d="M4220 7290 c-6 -11 -8 -20 -5 -20 14 0 45 21 45 30 0 18 -29 10 -40
-10z"/>
<path d="M3890 7290 c0 -13 20 -13 40 0 12 8 9 10 -12 10 -16 0 -28 -4 -28
-10z"/>
<path d="M4635 7240 c-4 -6 7 -10 24 -10 17 0 31 5 31 10 0 6 -11 10 -24 10
-14 0 -28 -4 -31 -10z"/>
<path d="M4394 7230 c-46 -10 -54 -18 -54 -54 0 -28 -5 -36 -29 -46 -18 -7
-31 -21 -33 -33 -2 -18 -11 -23 -46 -25 -34 -3 -43 -7 -40 -20 4 -17 18 -19
73 -6 26 6 105 78 105 96 0 3 20 18 45 32 25 15 45 31 45 36 0 17 -34 27 -66
20z"/>
<path d="M4270 7175 c0 -11 7 -15 23 -13 12 2 22 8 22 13 0 6 -10 11 -22 13
-16 2 -23 -2 -23 -13z"/>
<path d="M4074 7146 c-38 -17 -50 -34 -35 -49 8 -8 27 -3 71 18 33 16 60 32
60 37 0 13 -62 9 -96 -6z"/>
<path d="M4457 7154 c-11 -12 3 -24 29 -24 15 0 24 6 24 15 0 15 -40 21 -53 9z"/>
<path d="M4406 7093 c-14 -15 -5 -43 14 -43 13 0 20 7 20 19 0 19 -23 35 -34
24z"/>
<path d="M4945 7090 c-3 -5 5 -12 19 -16 16 -4 29 -17 36 -37 9 -26 13 -29 20
-17 16 25 11 47 -15 64 -28 18 -51 21 -60 6z"/>
<path d="M4646 7073 c-8 -8 -8 -57 0 -78 10 -24 24 1 24 42 0 31 -11 49 -24
36z"/>
<path d="M4882 7031 c-20 -12 3 -61 28 -61 13 0 20 7 20 18 0 25 -32 53 -48
43z"/>
<path d="M5634 6979 c-7 -12 12 -29 34 -29 6 0 12 9 12 20 0 22 -34 28 -46 9z"/>
<path d="M4286 6962 c-3 -6 -1 -14 5 -17 15 -10 25 3 12 16 -7 7 -13 7 -17 1z"/>
<path d="M5664 6686 c-3 -8 -1 -23 5 -33 9 -15 10 -13 11 15 0 34 -7 42 -16
18z"/>
<path d="M4577 6222 c-17 -10 -47 -53 -77 -108 -31 -58 -57 -94 -73 -101 -14
-7 -28 -21 -32 -32 -3 -12 -10 -21 -14 -21 -12 0 -49 -90 -57 -138 -3 -23 -1
-56 6 -77 10 -31 16 -36 38 -33 24 3 28 8 32 51 4 31 14 55 29 70 l22 22 -3
-40 -3 -40 57 -3 57 -3 -6 52 c-5 46 -4 51 13 47 14 -2 20 -13 22 -42 l3 -38
65 7 c42 4 82 2 114 -6 36 -9 53 -10 61 -2 8 8 5 13 -10 18 -25 8 -28 33 -5
42 10 4 23 -2 33 -14 10 -12 40 -25 76 -32 33 -7 73 -17 89 -22 44 -14 51 1
29 60 -39 104 -144 191 -249 205 -76 11 -80 18 -30 53 29 21 48 28 57 22 26
-16 48 -9 63 20 9 16 26 31 40 35 13 3 27 13 30 22 5 14 1 16 -26 10 -18 -3
-36 -13 -41 -21 -12 -21 -51 -18 -72 5 -10 11 -24 20 -32 20 -7 0 -25 7 -38
16 -21 13 -30 14 -53 5 -20 -9 -36 -9 -56 -1 -33 12 -25 13 -59 -8z m208 -236
c30 -8 51 -19 53 -29 2 -9 9 -14 18 -10 19 7 57 -19 89 -61 32 -42 24 -68 -10
-36 -12 11 -35 24 -51 29 -16 4 -33 17 -39 28 -9 22 -56 34 -135 34 -56 0 -80
32 -37 49 30 12 54 11 112 -4z"/>
<path d="M3696 6183 c-16 -8 -39 -12 -52 -9 -32 8 -121 -21 -158 -51 -20 -17
-36 -22 -50 -18 -12 4 -37 9 -56 12 -19 3 -41 10 -47 15 -17 14 -59 2 -67 -19
-7 -17 -1 -24 40 -49 16 -10 16 -12 -6 -34 l-23 -23 -18 21 c-20 26 -54 29
-63 6 -9 -23 0 -32 39 -40 41 -7 43 -16 13 -37 l-23 -16 26 0 c14 -1 29 3 35
7 16 15 153 54 164 47 13 -8 3 -25 -15 -25 -8 0 -41 -18 -73 -40 -52 -36 -62
-49 -90 -113 -17 -39 -34 -84 -38 -100 -4 -17 -15 -29 -30 -33 -31 -8 -31 -34
0 -34 32 0 97 28 112 48 8 11 25 15 58 13 40 -2 46 1 46 19 0 15 6 20 25 20
28 0 35 -27 10 -36 -22 -9 -8 -24 23 -24 42 0 56 13 43 39 -7 11 -18 21 -27
21 -8 0 -17 7 -20 15 -4 8 -12 15 -20 15 -21 0 -17 37 8 59 27 26 42 17 35
-24 -4 -24 0 -36 15 -49 18 -16 33 -17 109 -11 83 7 89 9 89 29 0 32 24 61 44
53 21 -8 21 -45 0 -68 -19 -21 -11 -60 8 -41 15 15 65 16 73 2 10 -17 25 -11
25 9 0 23 16 36 25 21 10 -17 -4 -60 -19 -60 -7 0 -19 -6 -25 -14 -7 -8 -26
-18 -42 -21 -35 -8 -38 -32 -4 -41 16 -4 34 1 54 15 16 12 37 21 46 21 9 0 33
10 53 22 35 19 38 25 40 70 1 27 -4 61 -12 76 -7 15 -11 43 -9 63 4 33 0 42
-41 84 -25 25 -46 54 -46 63 0 26 -29 62 -49 62 -26 0 -71 38 -71 60 0 30 -30
41 -64 23z m-288 -130 c-4 -22 -38 -30 -49 -11 -15 22 -10 28 22 28 24 0 30
-4 27 -17z m221 -102 c11 -7 10 -10 -6 -15 -24 -8 -55 2 -47 15 7 11 35 11 53
0z m229 -142 c2 -23 2 -23 -13 -5 -18 24 -20 39 -2 34 6 -3 13 -15 15 -29z"/>
<path d="M4992 6188 c7 -19 38 -22 38 -4 0 10 -9 16 -21 16 -12 0 -19 -5 -17
-12z"/>
<path d="M3114 6056 c-8 -21 -1 -49 14 -54 8 -2 12 8 12 32 0 36 -16 49 -26
22z"/>
<path d="M5000 5740 c0 -5 7 -10 15 -10 8 0 15 5 15 10 0 6 -7 10 -15 10 -8 0
-15 -4 -15 -10z"/>
<path d="M5720 5722 c0 -25 19 -42 47 -42 30 0 29 23 -2 44 -32 21 -45 20 -45
-2z"/>
<path d="M5536 5454 c-7 -28 3 -69 34 -129 11 -22 20 -46 20 -55 0 -8 7 -24
15 -34 8 -11 15 -30 15 -43 0 -26 -32 -94 -61 -132 -25 -31 -25 -61 0 -61 14
0 23 12 33 43 10 33 20 44 45 52 48 16 73 43 73 82 0 21 -5 33 -13 33 -33 0
-87 92 -87 149 0 45 -34 121 -53 121 -8 0 -18 -12 -21 -26z"/>
<path d="M2936 5452 c-4 -6 -6 -29 -5 -50 2 -25 -4 -47 -19 -67 -26 -38 -42
-168 -21 -180 7 -5 14 -4 17 3 2 7 10 12 17 12 21 0 28 19 14 36 -10 12 -8 18
11 31 20 14 22 21 15 67 -4 28 -7 68 -7 90 2 43 -11 76 -22 58z"/>
<path d="M2801 5416 c-19 -21 -22 -31 -17 -61 9 -44 26 -85 37 -85 18 0 31
160 13 167 -5 2 -21 -8 -33 -21z"/>
<path d="M4472 5409 c2 -7 10 -15 17 -17 8 -3 12 1 9 9 -2 7 -10 15 -17 17 -8
3 -12 -1 -9 -9z"/>
<path d="M4532 5304 c-2 -93 -20 -105 -97 -63 -47 26 -52 27 -84 13 -47 -20
-100 -82 -101 -117 0 -41 -31 -89 -53 -83 -9 2 -30 -1 -46 -6 -26 -10 -31 -8
-64 28 -62 67 -38 83 43 28 19 -13 40 -24 47 -24 13 0 33 30 33 49 0 11 -52
48 -123 89 -47 26 -147 31 -166 8 -6 -7 -26 -16 -43 -20 -27 -5 -36 -2 -55 21
-12 16 -22 40 -23 55 0 31 -18 47 -31 27 -5 -8 -13 -30 -19 -49 -8 -28 -7 -37
5 -46 21 -15 30 -71 17 -97 -27 -53 -42 -101 -37 -117 7 -23 -46 -60 -86 -60
-46 0 -108 -32 -162 -85 -38 -36 -47 -51 -47 -79 0 -18 -12 -59 -26 -90 -22
-48 -25 -66 -20 -116 3 -33 8 -88 11 -122 8 -94 13 -108 35 -108 12 0 24 9 29
23 20 51 31 95 31 118 0 15 13 37 36 57 40 37 34 40 133 -48 38 -34 65 -67 69
-85 7 -27 13 -30 51 -33 24 -2 51 0 60 3 14 6 13 9 -6 25 l-22 18 22 6 c12 3
61 6 109 6 91 0 113 10 84 38 -12 12 -39 17 -102 19 -47 1 -92 8 -100 14 -17
14 -19 91 -3 120 6 13 17 18 28 14 10 -3 29 4 45 16 27 22 29 22 58 4 30 -17
31 -17 47 4 14 18 23 20 64 15 26 -4 47 -9 47 -13 0 -3 5 -13 10 -21 8 -13 11
-13 22 3 8 10 30 20 52 22 30 2 44 -2 63 -21 30 -30 37 -30 29 1 -6 22 -3 25
19 25 25 0 33 14 15 25 -6 4 -17 1 -25 -5 -11 -9 -15 -9 -15 -1 0 7 -32 11
-96 11 -52 0 -104 5 -115 10 -11 6 -25 7 -32 3 -17 -11 -216 -13 -223 -2 -10
16 -43 9 -54 -11 -8 -15 -21 -20 -50 -20 -21 0 -42 -5 -45 -10 -8 -13 -85 -53
-91 -47 -3 2 0 16 5 29 10 26 54 48 97 48 19 0 24 5 24 24 0 15 7 27 19 31 11
3 22 12 25 20 3 8 13 15 23 15 10 0 27 7 37 15 11 8 29 15 41 15 11 0 39 9 60
20 31 16 46 18 67 11 37 -13 66 -4 116 37 38 30 47 33 68 23 13 -6 24 -18 24
-26 0 -19 39 -35 83 -35 18 0 43 -7 55 -16 16 -11 34 -13 65 -9 35 5 48 2 76
-19 25 -19 41 -24 63 -19 23 4 33 1 44 -16 10 -14 26 -21 49 -21 19 0 37 -4
40 -10 3 -5 15 -10 25 -10 21 0 45 -34 35 -50 -9 -15 -41 -12 -56 6 -9 11 -23
14 -45 11 -22 -4 -37 -1 -45 9 -16 19 -98 18 -119 -1 -14 -13 -22 -14 -43 -4
-29 13 -57 0 -57 -27 0 -23 32 -46 56 -40 16 4 37 -3 68 -24 56 -38 60 -44 46
-70 -7 -13 -21 -20 -39 -20 -15 0 -31 -3 -35 -7 -4 -4 -28 -8 -54 -9 -131 -7
-202 -25 -202 -51 0 -13 9 -14 58 -8 31 4 75 7 97 6 22 -1 52 5 67 13 15 8 30
11 33 6 3 -5 19 -11 35 -15 33 -7 96 27 200 109 57 46 70 48 70 15 0 -11 9
-48 21 -83 21 -66 52 -107 69 -90 17 17 42 215 35 277 -6 54 -38 137 -54 137
-3 0 -12 4 -20 9 -11 7 -10 14 5 40 18 30 18 32 -1 68 -11 21 -29 46 -40 57
-11 11 -38 52 -60 91 -22 38 -48 71 -58 73 -26 5 -20 -28 13 -72 17 -22 30
-46 30 -54 0 -8 11 -23 25 -34 31 -24 32 -42 3 -62 -28 -20 -38 -20 -38 -2 0
19 -65 67 -96 70 -31 3 -51 31 -56 77 -2 24 -10 37 -25 44 -27 11 -29 21 -8
29 8 3 15 16 15 30 0 13 7 37 15 52 16 32 20 100 6 108 -5 3 -9 -15 -9 -40z
m-177 -173 c-8 -13 -35 -15 -35 -2 0 5 8 11 18 13 21 5 26 2 17 -11z m-59 -58
c-11 -11 -19 6 -11 24 8 17 8 17 12 0 3 -10 2 -21 -1 -24z"/>
<path d="M2776 5156 c-20 -48 -20 -61 0 -80 21 -22 41 -20 54 4 8 15 5 30 -14
67 l-24 48 -16 -39z"/>
<path d="M3665 5180 c-8 -13 4 -32 16 -25 12 8 12 35 0 35 -6 0 -13 -4 -16
-10z"/>
<path d="M2930 5091 c0 -28 21 -37 36 -16 16 22 10 35 -17 35 -12 0 -19 -7
-19 -19z"/>
<path d="M2934 5032 c-26 -17 -34 -49 -20 -77 18 -33 28 -33 32 2 2 16 12 35
23 44 15 12 17 19 8 28 -13 13 -27 14 -43 3z"/>
<path d="M3551 5000 c-13 -21 -34 -43 -47 -49 -13 -6 -24 -17 -24 -26 0 -18
16 -20 29 -2 6 6 27 31 47 55 22 25 33 46 28 52 -5 5 -19 -7 -33 -30z"/>
<path d="M3067 4574 c-10 -10 -9 -54 1 -54 4 0 13 -18 19 -41 9 -36 8 -43 -10
-60 -11 -10 -16 -19 -11 -19 6 0 15 5 22 12 7 7 12 8 12 4 0 -5 7 -3 15 4 10
9 12 17 5 30 -5 9 -11 41 -13 71 -2 38 -7 55 -18 57 -8 1 -18 0 -22 -4z"/>
<path d="M4065 4450 c-3 -5 0 -13 9 -16 21 -8 61 -1 61 11 0 14 -62 19 -70 5z"/>
<path d="M4360 4252 c-8 -2 -25 -14 -37 -25 -19 -17 -30 -19 -70 -12 -58 8
-54 8 -130 -1 l-63 -7 0 -33 c0 -39 -11 -44 -25 -12 -6 12 -22 31 -38 42 l-27
20 -16 -22 c-20 -29 -42 -28 -56 3 -13 28 -26 32 -34 10 -4 -8 -18 -15 -34
-15 -31 0 -60 -27 -60 -58 0 -26 35 -52 61 -45 10 3 19 0 19 -6 0 -6 -4 -11
-10 -11 -5 0 -10 -11 -10 -25 0 -29 14 -33 29 -7 10 16 12 16 25 0 7 -10 19
-18 26 -18 21 0 99 54 106 73 3 10 8 16 12 13 5 -5 -1 -20 -28 -76 -9 -20 -2
-40 16 -40 8 0 17 13 21 30 7 36 8 36 40 10 30 -23 56 -26 72 -6 7 8 28 17 49
21 20 4 42 15 50 26 9 13 25 19 48 19 20 0 43 4 53 9 12 7 30 4 61 -10 24 -11
47 -16 50 -12 4 4 10 27 14 51 5 36 3 46 -17 66 -31 31 -78 55 -97 48z"/>
<path d="M4803 4155 c5 -53 5 -55 -19 -55 -24 0 -27 -5 -37 -73 -4 -23 0 -30
19 -37 13 -5 33 -19 44 -30 24 -24 40 -18 40 14 0 15 -7 26 -20 29 -23 6 -27
37 -5 37 8 0 18 15 24 35 7 28 5 45 -12 85 -28 66 -41 64 -34 -5z"/>
<path d="M3392 4098 c-7 -7 -12 -21 -12 -33 0 -12 -5 -26 -12 -33 -9 -9 -9
-12 3 -12 28 1 84 35 87 54 6 31 -41 49 -66 24z"/>
<path d="M4914 4069 c-7 -12 37 -52 46 -42 3 3 -1 8 -7 10 -7 3 -13 11 -13 18
0 19 -17 28 -26 14z"/>
<path d="M4254 3993 c-11 -12 -13 -18 -5 -21 19 -6 41 6 41 23 0 20 -14 19
-36 -2z"/>
<path d="M3376 3949 c-13 -21 -15 -34 -8 -41 13 -13 71 -3 97 15 17 13 17 15
-6 35 -32 31 -61 28 -83 -9z"/>
<path d="M3993 3949 c-17 -17 -4 -39 22 -39 30 0 49 22 33 38 -15 15 -41 15
-55 1z"/>
<path d="M4872 3936 c-23 -11 -27 -46 -6 -53 9 -3 17 9 42 60 5 9 -8 7 -36 -7z"/>
<path d="M4590 3880 c0 -19 3 -21 12 -12 9 9 9 15 0 24 -9 9 -12 7 -12 -12z"/>
<path d="M4941 3878 c-5 -14 -22 -32 -38 -40 -33 -16 -42 -43 -16 -50 25 -7
43 1 43 18 0 8 11 20 25 26 28 13 31 26 11 54 -14 18 -15 18 -25 -8z"/>
<path d="M4316 3883 c-12 -12 -6 -41 10 -47 23 -9 54 -7 54 2 0 18 -53 55 -64
45z"/>
<path d="M3957 3843 c-11 -10 -8 -43 3 -43 6 0 10 11 10 25 0 26 -2 29 -13 18z"/>
<path d="M4413 3840 c-12 -5 -24 -17 -27 -27 -12 -37 40 -153 62 -139 18 11
25 86 12 132 -13 47 -14 47 -47 34z"/>
<path d="M3835 3819 c-4 -5 -4 -22 0 -37 7 -25 8 -25 15 -7 17 41 4 76 -15 44z"/>
<path d="M4995 3821 c-7 -12 12 -24 25 -16 11 7 4 25 -10 25 -5 0 -11 -4 -15
-9z"/>
<path d="M5192 3808 c-7 -7 -12 -18 -12 -25 0 -7 -12 -21 -27 -30 -37 -24 -93
-80 -93 -93 0 -5 -7 -10 -15 -10 -18 0 -30 -24 -20 -41 5 -7 16 -3 34 15 14
14 59 58 99 97 40 39 71 76 69 82 -5 16 -21 19 -35 5z"/>
<path d="M4197 3803 c-11 -11 -8 -82 5 -102 19 -30 3 -54 -32 -47 -29 5 -30 3
-41 -41 -10 -39 -14 -44 -24 -29 -17 22 -45 20 -45 -3 0 -11 -9 -22 -19 -26
-11 -3 -22 -12 -25 -20 -3 -9 -18 -15 -36 -15 -23 0 -30 4 -30 20 0 11 -7 20
-15 20 -8 0 -15 -9 -15 -20 0 -11 7 -20 15 -20 8 0 15 -8 15 -18 0 -10 5 -23
12 -30 23 -23 47 -13 70 31 16 31 23 37 26 24 2 -10 -3 -26 -12 -36 -9 -10
-16 -22 -16 -27 0 -5 -14 -27 -30 -48 -30 -39 -39 -79 -20 -91 12 -8 60 24 60
40 0 7 8 23 18 36 10 13 27 50 37 81 21 64 35 67 35 7 0 -29 -7 -47 -25 -65
-28 -28 -33 -75 -10 -94 20 -16 32 -6 39 35 7 36 22 46 32 20 4 -8 12 -15 19
-15 24 0 40 -30 27 -50 -6 -10 -8 -21 -5 -24 11 -10 61 -7 69 5 4 8 28 10 71
6 67 -7 113 4 113 25 1 34 15 39 61 24 24 -8 44 -14 45 -13 1 1 6 16 11 32 6
18 16 28 24 26 57 -16 59 -15 53 18 -6 28 -4 31 18 31 13 0 30 -6 37 -12 10
-11 15 -10 25 5 7 9 20 17 29 17 8 0 27 21 41 46 23 41 26 56 23 132 -2 90
-17 116 -35 63 -8 -23 -15 -28 -31 -24 -20 5 -24 -6 -33 -86 -4 -33 -32 -50
-57 -34 -16 10 -22 8 -35 -12 -12 -18 -25 -25 -50 -25 -28 0 -38 -6 -55 -36
l-22 -37 -23 22 c-12 11 -33 21 -47 21 -14 0 -30 5 -35 10 -15 15 -59 -6 -72
-34 -9 -19 -10 -20 -17 -3 -5 11 -1 24 9 36 9 10 16 30 16 45 0 14 7 43 15 63
15 35 14 36 -15 70 -23 25 -30 44 -30 73 0 44 -13 52 -31 19 -11 -22 -12 -21
-36 10 -25 31 -34 36 -46 24z m3 -272 c-13 -26 -27 -34 -35 -20 -4 5 1 17 11
24 27 20 36 18 24 -4z m210 -202 c0 -5 -9 -9 -20 -9 -19 0 -27 20 -13 33 7 8
33 -11 33 -24z"/>
<path d="M4094 3772 c-11 -7 -39 -54 -50 -84 -4 -11 -17 -18 -30 -18 -30 0
-42 -26 -21 -47 20 -20 47 -10 47 17 0 12 15 29 40 45 27 17 40 32 40 48 0 29
-13 48 -26 39z"/>
<path d="M3895 3610 c-7 -12 2 -30 16 -30 12 0 12 27 0 35 -5 3 -12 1 -16 -5z"/>
<path d="M4500 3568 c0 -18 27 -44 37 -34 4 4 -3 16 -15 29 -18 17 -22 18 -22
5z"/>
<path d="M4930 3545 c0 -13 4 -14 20 -5 11 6 20 13 20 15 0 3 -9 5 -20 5 -11
0 -20 -7 -20 -15z"/>
<path d="M4887 3513 c-4 -3 -7 -13 -7 -21 0 -12 3 -12 15 -2 8 7 15 16 15 21
0 11 -14 12 -23 2z"/>
<path d="M3734 3415 c-3 -13 -15 -27 -25 -30 -23 -8 -25 -23 -2 -32 11 -4 22
1 31 15 8 12 22 22 32 22 16 0 30 19 30 41 0 5 -13 9 -30 9 -23 0 -31 -5 -36
-25z"/>
<path d="M3838 3394 c-37 -19 -81 -61 -71 -67 4 -2 22 -7 38 -11 17 -4 38 -14
47 -23 25 -22 52 -13 56 20 3 26 2 27 -17 15 -27 -16 -39 -3 -18 20 20 22 23
62 5 62 -7 -1 -25 -7 -40 -16z"/>
<path d="M3270 3362 c0 -52 34 -102 151 -220 86 -88 188 -182 197 -182 4 0 17
-10 28 -23 12 -12 43 -33 70 -46 27 -13 68 -37 90 -53 25 -18 51 -28 65 -26
35 5 30 32 -6 36 -16 2 -34 8 -39 13 -6 5 -18 9 -28 9 -9 0 -21 6 -25 13 -4 7
-27 25 -51 40 -23 15 -71 55 -105 90 -35 34 -82 73 -105 87 -23 14 -42 30 -42
36 0 7 -17 24 -37 39 -40 30 -82 75 -83 88 0 5 -12 24 -26 42 -15 20 -24 43
-22 57 2 15 -3 24 -14 26 -14 3 -18 -3 -18 -26z"/>
<path d="M3585 3371 c-7 -12 12 -24 25 -16 11 7 4 25 -10 25 -5 0 -11 -4 -15
-9z"/>
<path d="M3709 2721 c-21 -17 -22 -20 -7 -26 28 -11 53 -1 56 23 4 28 -17 29
-49 3z"/>
<path d="M3876 2711 c-10 -16 5 -39 30 -45 29 -8 44 -1 44 19 0 26 -62 47 -74
26z"/>
<path d="M3590 2671 c0 -15 16 -22 34 -15 25 9 19 24 -9 24 -14 0 -25 -4 -25
-9z"/>
<path d="M3774 2665 c-3 -8 -3 -19 1 -25 9 -14 45 6 45 25 0 19 -39 19 -46 0z"/>
<path d="M3960 2647 c0 -19 21 -37 42 -37 23 0 24 35 2 44 -26 10 -44 7 -44
-7z"/>
<path d="M3655 2620 c-8 -12 20 -24 35 -15 5 3 10 10 10 16 0 12 -37 12 -45
-1z"/>
<path d="M3844 2615 c-8 -20 4 -35 27 -35 24 0 37 29 18 41 -21 13 -39 11 -45
-6z"/>
<path d="M3737 2583 c-14 -13 -6 -33 12 -33 16 0 31 18 31 36 0 7 -36 5 -43
-3z"/>
<path d="M4044 2575 c-11 -29 4 -46 38 -43 42 4 46 23 9 42 -37 20 -40 20 -47
1z"/>
<path d="M3557 2566 c-7 -16 1 -26 20 -26 7 0 13 9 13 20 0 23 -25 27 -33 6z"/>
<path d="M3924 2545 c-9 -22 4 -35 37 -35 34 0 40 24 10 40 -27 14 -41 13 -47
-5z"/>
<path d="M3627 2533 c-14 -13 -6 -33 12 -33 21 0 45 23 34 33 -8 9 -38 9 -46
0z"/>
<path d="M3807 2524 c-11 -12 13 -44 33 -44 25 0 35 17 20 35 -13 15 -42 20
-53 9z"/>
<path d="M3401 2478 c-17 -24 -34 -47 -38 -53 -18 -22 -43 -92 -49 -137 -5
-40 -4 -48 9 -48 10 0 20 -15 26 -37 15 -54 14 -71 -9 -83 -29 -16 -25 -27 20
-49 l40 -19 20 32 c28 45 67 79 75 66 4 -6 1 -17 -5 -25 -10 -12 -10 -18 0
-30 18 -22 29 -19 36 10 7 30 47 35 63 8 8 -14 14 -16 28 -7 38 23 19 56 -39
69 -16 3 -28 11 -28 19 0 7 -9 21 -20 31 -11 10 -20 23 -20 29 0 7 -9 19 -20
29 -21 18 -26 37 -10 37 5 0 14 -9 20 -20 6 -11 19 -20 29 -20 10 0 25 -9 32
-21 17 -24 49 -17 49 12 0 14 -7 19 -25 19 -15 0 -25 6 -25 15 0 8 -16 29 -36
47 -61 55 -84 82 -84 100 0 24 17 31 28 12 12 -21 37 -12 45 15 4 17 1 21 -18
21 -13 0 -27 5 -30 10 -12 20 -34 9 -64 -32z"/>
<path d="M4126 2481 c-27 -29 -6 -61 39 -61 19 0 35 -3 35 -7 0 -14 -61 -43
-90 -43 -16 0 -35 -7 -43 -15 -19 -19 -10 -55 14 -55 29 0 32 -19 5 -30 -14
-5 -26 -13 -26 -18 0 -5 -11 -7 -24 -5 -16 3 -32 -3 -47 -18 -17 -17 -32 -22
-56 -20 -28 2 -35 -2 -43 -25 -10 -25 -11 -26 -29 -10 -26 23 -65 5 -56 -25 4
-12 2 -19 -7 -19 -23 0 -39 -16 -32 -33 8 -23 40 -21 47 2 3 14 11 17 31 14
16 -3 33 1 44 10 9 8 29 19 45 22 15 4 31 14 36 23 7 13 15 14 42 5 l34 -11
-33 -7 c-19 -4 -36 -14 -39 -21 -3 -8 -16 -14 -29 -14 -13 0 -24 -5 -24 -10 0
-6 -11 -15 -25 -20 -14 -5 -25 -16 -25 -25 0 -8 -11 -17 -25 -21 -39 -10 -51
-31 -30 -54 10 -11 22 -20 26 -20 12 0 89 77 89 89 0 6 7 8 15 5 9 -4 15 -19
15 -36 l0 -31 20 26 c11 14 20 34 20 45 0 10 9 31 20 45 11 14 20 30 20 36 0
6 6 11 13 11 9 0 8 3 -2 9 -8 5 -11 16 -6 30 7 22 29 28 40 11 13 -20 45 -9
71 25 14 19 35 35 45 35 10 0 20 4 23 8 4 8 22 8 88 3 4 -1 14 -15 23 -31 12
-24 20 -29 39 -24 27 6 39 -6 56 -59 6 -21 19 -41 29 -44 9 -3 24 -15 33 -27
15 -18 18 -18 18 -4 0 9 -4 19 -9 22 -4 3 -11 18 -14 33 -3 16 -23 47 -44 70
-21 23 -58 67 -83 98 -61 77 -186 185 -213 185 -2 0 -12 -9 -21 -19z m37 -173
c-10 -19 -23 -5 -23 25 l0 32 14 -25 c7 -14 11 -28 9 -32z"/>
<path d="M3703 2475 c-17 -13 -17 -14 -1 -20 22 -9 50 -3 55 11 6 17 -34 24
-54 9z"/>
<path d="M3536 2455 c-15 -15 -12 -45 5 -45 9 0 39 40 39 52 0 14 -28 9 -44
-7z"/>
<path d="M4000 2443 c0 -26 19 -43 48 -43 20 0 23 4 20 28 -2 22 -8 28 -35 30
-27 3 -33 0 -33 -15z"/>
<path d="M3891 2437 c-18 -18 -13 -37 15 -47 30 -12 56 2 48 24 -8 21 -50 36
-63 23z"/>
<path d="M3590 2399 c0 -25 33 -22 38 4 2 12 -3 17 -17 17 -15 0 -21 -6 -21
-21z"/>
<path d="M3770 2390 c0 -26 45 -49 63 -31 17 17 -4 45 -37 49 -21 3 -26 -1
-26 -18z"/>
<path d="M3667 2354 c-12 -13 4 -24 34 -24 20 0 29 4 27 13 -5 13 -50 22 -61
11z"/>
<path d="M3955 2329 c-4 -5 -4 -21 -1 -35 5 -18 13 -24 36 -24 33 0 50 31 30
55 -14 17 -56 20 -65 4z"/>
<path d="M3850 2305 c-10 -12 -9 -20 4 -40 19 -29 29 -31 50 -10 18 18 11 41
-15 55 -23 13 -24 13 -39 -5z"/>
<path d="M3744 2265 c-9 -21 14 -45 42 -45 24 0 30 14 18 44 -8 20 -53 21 -60
1z"/>
<path d="M3644 2225 c-8 -21 4 -35 32 -35 26 0 32 18 12 38 -16 16 -37 15 -44
-3z"/>
<path d="M3278 2164 c-5 -4 -8 -19 -8 -33 1 -23 2 -24 11 -8 11 19 9 53 -3 41z"/>
<path d="M3280 2083 c0 -15 22 -43 31 -38 16 10 10 32 -11 38 -11 3 -20 3 -20
0z"/>
<path d="M3671 2076 c-15 -18 -3 -46 20 -46 25 0 35 26 19 45 -15 19 -24 19
-39 1z"/>
<path d="M3502 2038 c2 -17 10 -23 28 -23 18 0 26 6 28 23 3 19 -1 22 -28 22
-27 0 -31 -3 -28 -22z"/>
<path d="M3587 1998 c-25 -13 -22 -58 3 -58 18 0 40 26 40 48 0 15 -24 21 -43
10z"/>
<path d="M3935 1977 c-4 -10 -5 -21 -1 -24 10 -10 18 4 13 24 -4 17 -4 17 -12
0z"/>
<path d="M3740 1961 c0 -22 25 -45 40 -36 16 10 12 42 -6 49 -26 10 -34 7 -34
-13z"/>
<path d="M3654 1916 c-10 -26 4 -48 28 -44 29 4 29 26 1 45 -20 14 -23 14 -29
-1z"/>
<path d="M3870 1899 c0 -20 33 -39 47 -27 23 19 15 38 -17 38 -16 0 -30 -5
-30 -11z"/>
<path d="M3511 1891 c-17 -11 -7 -45 12 -39 13 5 23 48 10 48 -4 0 -14 -4 -22
-9z"/>
<path d="M3802 1859 c3 -24 33 -48 44 -36 11 10 -17 57 -33 57 -9 0 -13 -8
-11 -21z"/>
<path d="M3562 1838 c-17 -17 -15 -47 3 -54 21 -9 47 15 43 40 -4 24 -28 32
-46 14z"/>
<path d="M3730 1815 c-10 -12 -10 -18 0 -30 21 -25 42 -18 38 12 -4 32 -20 40
-38 18z"/>
<path d="M3870 1752 c0 -20 36 -46 45 -32 9 14 -13 50 -30 50 -8 0 -15 -8 -15
-18z"/>
<path d="M3625 1750 c-9 -15 14 -40 35 -40 19 0 30 17 23 38 -6 15 -49 16 -58
2z"/>
<path d="M3507 1734 c-11 -11 -8 -44 3 -44 15 0 24 30 13 41 -5 5 -12 6 -16 3z"/>
<path d="M3790 1701 c0 -28 26 -47 45 -31 11 9 12 16 2 31 -15 25 -47 25 -47
0z"/>
<path d="M3552 1671 c-20 -12 -10 -46 13 -46 14 0 20 7 20 24 0 27 -13 35 -33
22z"/>
<path d="M3705 1660 c-8 -14 13 -50 30 -50 21 0 27 17 15 40 -11 21 -35 27
-45 10z"/>
<path d="M3467 1612 c-10 -10 -14 -21 -11 -25 4 -3 8 -21 10 -38 5 -39 8 -43
29 -36 19 8 20 51 0 67 -9 7 -13 21 -10 31 8 24 3 24 -18 1z"/>
<path d="M3866 1623 c-13 -13 -5 -42 14 -48 21 -7 40 0 40 14 0 12 -47 41 -54
34z"/>
<path d="M3615 1584 c-15 -15 -15 -18 -1 -33 12 -12 21 -13 33 -5 25 16 27 31
4 43 -15 9 -23 7 -36 -5z"/>
<path d="M3773 1554 c-8 -20 21 -49 41 -41 21 8 21 43 0 51 -25 9 -34 7 -41
-10z"/>
<path d="M3525 1499 c-10 -15 3 -59 18 -59 21 0 40 39 26 56 -14 17 -35 18
-44 3z"/>
<path d="M3684 1485 c-4 -9 -2 -21 4 -27 16 -16 47 -5 47 17 0 26 -42 34 -51
10z"/>
<path d="M3410 1465 c-12 -15 -5 -55 11 -55 5 0 15 -16 23 -35 16 -37 25 -42
44 -23 19 19 14 37 -14 50 -15 7 -27 23 -31 40 -7 35 -17 42 -33 23z"/>
<path d="M3862 1471 c-8 -5 -12 -17 -10 -27 4 -22 35 -31 51 -15 16 16 -23 54
-41 42z"/>
<path d="M3603 1423 c-7 -2 -13 -15 -13 -28 0 -27 17 -36 43 -23 21 11 22 44
1 52 -9 3 -16 6 -17 5 -1 0 -8 -3 -14 -6z"/>
<path d="M3764 1395 c-9 -22 22 -53 37 -38 15 15 7 47 -14 51 -9 2 -20 -4 -23
-13z"/>
<path d="M3677 1334 c-4 -4 -7 -18 -7 -31 0 -20 5 -24 23 -21 16 2 22 10 22
28 0 24 -23 39 -38 24z"/>
<path d="M3324 1315 c-8 -20 3 -48 16 -40 13 8 13 55 0 55 -6 0 -13 -7 -16
-15z"/>
<path d="M3507 1324 c-9 -9 -9 -48 -1 -57 3 -3 17 -1 30 5 17 8 24 18 22 32
-3 21 -37 34 -51 20z"/>
<path d="M3837 1313 c-13 -12 -7 -32 12 -43 23 -12 54 12 45 35 -6 15 -45 21
-57 8z"/>
<path d="M3380 1281 c0 -5 -8 -17 -17 -27 -13 -13 -17 -31 -16 -67 1 -27 5
-52 8 -55 11 -11 19 11 18 49 -2 32 3 42 23 55 30 20 32 54 4 54 -11 0 -20 -4
-20 -9z"/>
<path d="M3577 1237 c-8 -22 17 -51 37 -44 25 10 17 51 -10 55 -12 2 -24 -3
-27 -11z"/>
<path d="M3750 1240 c-20 -13 -1 -44 29 -48 19 -3 22 0 19 25 -3 30 -23 39
-48 23z"/>
<path d="M3435 1219 c-11 -16 4 -59 20 -59 16 0 31 43 20 59 -3 6 -12 11 -20
11 -8 0 -17 -5 -20 -11z"/>
<path d="M3255 1151 c-3 -11 0 -30 9 -43 8 -13 20 -45 26 -73 13 -57 36 -99
50 -90 15 9 12 42 -4 48 -10 4 -17 28 -22 66 -4 34 -10 61 -15 61 -4 0 -9 10
-11 22 -4 28 -25 34 -33 9z"/>
<path d="M3667 1158 c-21 -11 -22 -47 -2 -54 19 -8 45 13 45 36 0 22 -21 31
-43 18z"/>
<path d="M3500 1140 c-13 -24 -4 -60 13 -60 22 0 39 38 27 60 -14 26 -26 25
-40 0z"/>
<path d="M3825 1150 c-9 -14 4 -50 18 -50 28 1 39 17 28 39 -12 22 -36 28 -46
11z"/>
<path d="M3916 1152 c-2 -4 -1 -14 4 -22 7 -11 12 -12 21 -3 6 6 8 16 5 22 -8
13 -23 14 -30 3z"/>
<path d="M3366 1101 c-9 -13 3 -39 20 -45 17 -6 29 17 20 39 -6 17 -32 20 -40
6z"/>
<path d="M3743 1073 c-17 -6 -16 -38 1 -52 11 -9 18 -8 30 4 19 20 20 27 4 43
-13 13 -16 13 -35 5z"/>
<path d="M3192 1058 c-16 -16 -15 -33 2 -47 8 -7 12 -21 9 -31 -3 -12 1 -22
11 -26 9 -3 16 -17 16 -30 0 -14 7 -27 15 -30 9 -4 15 -19 15 -35 0 -34 25
-40 33 -7 7 26 1 38 -20 38 -11 0 -14 6 -10 21 3 12 -5 40 -19 66 -13 25 -24
57 -24 69 0 26 -10 30 -28 12z"/>
<path d="M3570 1055 c-18 -21 -5 -47 22 -43 31 4 40 58 10 58 -11 0 -25 -7
-32 -15z"/>
<path d="M3438 1043 c-21 -5 -34 -41 -20 -55 17 -17 47 -4 50 21 4 27 -6 39
-30 34z"/>
<path d="M3645 970 c-8 -25 11 -51 30 -44 20 8 27 34 14 50 -17 20 -37 17 -44
-6z"/>
<path d="M3817 984 c-13 -13 -7 -42 10 -48 21 -8 36 6 31 30 -3 19 -29 30 -41
18z"/>
<path d="M3907 983 c-11 -10 -8 -41 4 -49 16 -9 41 20 33 39 -6 17 -25 22 -37
10z"/>
<path d="M3490 949 c-10 -17 -9 -24 4 -37 12 -13 18 -13 31 -2 20 17 16 54 -7
58 -9 2 -22 -6 -28 -19z"/>
<path d="M3363 933 c-15 -6 -17 -49 -3 -58 18 -11 51 15 48 38 -3 22 -22 30
-45 20z"/>
<path d="M3142 878 c2 -12 10 -23 18 -23 22 0 19 39 -3 43 -15 3 -18 -1 -15
-20z"/>
<path d="M3726 887 c-21 -15 -12 -47 14 -47 23 0 44 26 36 45 -7 18 -26 19
-50 2z"/>
<path d="M3562 858 c3 -36 16 -44 42 -25 15 11 17 17 7 35 -6 12 -21 22 -32
22 -17 0 -20 -5 -17 -32z"/>
<path d="M3414 846 c-8 -21 -1 -49 12 -53 16 -5 44 25 44 48 0 23 -47 27 -56
5z"/>
<path d="M3897 836 c-10 -26 -8 -94 3 -101 5 -3 16 5 25 19 15 23 15 27 -3 62
-15 29 -20 33 -25 20z"/>
<path d="M3170 814 c-13 -34 -13 -34 9 -34 20 0 37 32 26 50 -11 17 -25 11
-35 -16z"/>
<path d="M3306 817 c-22 -16 -18 -50 6 -55 20 -4 40 30 32 52 -7 19 -15 20
-38 3z"/>
<path d="M3802 808 c-16 -16 -15 -33 3 -48 12 -10 18 -10 30 0 20 17 19 37 -3
49 -13 7 -23 6 -30 -1z"/>
<path d="M3639 794 c-15 -18 -2 -47 24 -52 20 -4 32 35 17 53 -16 19 -24 19
-41 -1z"/>
<path d="M3489 771 c-22 -18 -23 -21 -7 -37 18 -19 45 -13 55 12 3 8 -1 22 -9
30 -13 13 -18 13 -39 -5z"/>
<path d="M3200 754 c-11 -29 -6 -44 16 -44 9 0 14 -11 14 -30 0 -23 4 -30 20
-30 22 0 43 31 34 53 -3 9 -14 12 -30 9 -26 -5 -33 15 -13 35 6 6 8 16 5 22
-12 19 -36 12 -46 -15z"/>
<path d="M3348 743 c-6 -30 4 -63 18 -63 23 0 40 46 24 65 -17 20 -38 19 -42
-2z"/>
<path d="M3100 721 c-16 -31 -12 -41 15 -41 21 0 25 5 25 30 0 35 -23 41 -40
11z"/>
<path d="M3710 705 c-10 -12 -10 -18 0 -30 7 -8 18 -15 25 -15 19 0 36 25 29
44 -8 20 -38 21 -54 1z"/>
<path d="M3555 690 c-18 -20 -18 -21 1 -41 20 -20 20 -20 38 0 14 15 15 24 6
40 -14 26 -22 26 -45 1z"/>
<path d="M3867 704 c-9 -10 2 -24 19 -24 8 0 14 7 14 15 0 15 -21 21 -33 9z"/>
<path d="M3406 654 c-9 -35 5 -49 33 -35 13 7 21 22 21 36 0 37 -45 35 -54 -1z"/>
<path d="M3140 655 c-16 -19 -5 -47 17 -43 11 2 18 12 18 27 0 29 -17 37 -35
16z"/>
<path d="M3285 631 c-7 -23 2 -61 14 -61 16 0 32 29 29 52 -4 30 -34 36 -43 9z"/>
<path d="M3878 625 c-9 -21 -9 -29 4 -42 28 -27 49 6 32 51 -9 23 -23 20 -36
-9z"/>
<path d="M3793 621 c-10 -16 -9 -22 7 -36 17 -16 19 -16 28 2 7 12 7 25 1 36
-13 22 -21 22 -36 -2z"/>
<path d="M3625 599 c-8 -25 6 -42 31 -37 12 2 20 13 22 31 3 23 0 27 -22 27
-16 0 -27 -7 -31 -21z"/>
<path d="M3482 598 c-6 -6 -12 -23 -12 -36 0 -20 4 -23 28 -20 23 2 27 8 27
33 0 32 -22 44 -43 23z"/>
<path d="M3183 593 c-15 -6 -17 -49 -3 -58 18 -11 51 15 48 38 -3 22 -22 30
-45 20z"/>
<path d="M3353 568 c-6 -7 -13 -24 -15 -38 -2 -19 2 -26 18 -28 16 -2 23 4 28
24 9 33 -14 63 -31 42z"/>
<path d="M3067 563 c-13 -12 -7 -51 9 -57 23 -9 34 2 34 35 0 21 -5 29 -18 29
-10 0 -22 -3 -25 -7z"/>
<path d="M3226 524 c-12 -32 -6 -54 14 -54 21 0 38 40 25 59 -9 16 -32 13 -39
-5z"/>
<path d="M3707 533 c-4 -3 -7 -17 -7 -30 0 -16 6 -23 19 -23 24 0 45 25 37 45
-5 15 -37 21 -49 8z"/>
<path d="M3864 527 c-3 -9 -2 -29 4 -44 l9 -28 8 33 c8 37 -9 69 -21 39z"/>
<path d="M3551 506 c-15 -28 -8 -46 19 -46 25 0 33 15 26 46 -8 31 -29 31 -45
0z"/>
<path d="M3117 493 c-11 -10 -8 -51 3 -58 16 -10 40 15 40 41 0 17 -6 24 -18
24 -10 0 -22 -3 -25 -7z"/>
<path d="M3402 476 c-8 -19 -8 -27 3 -36 30 -25 69 16 45 45 -18 22 -35 18
-48 -9z"/>
<path d="M3282 458 c-7 -7 -12 -22 -12 -35 0 -18 6 -23 24 -23 26 0 40 23 31
51 -7 22 -25 25 -43 7z"/>
<path d="M3774 435 c-8 -21 4 -35 32 -35 19 0 24 5 24 25 0 20 -5 25 -25 25
-14 0 -28 -7 -31 -15z"/>
<path d="M3870 425 c0 -15 4 -24 10 -20 6 3 10 12 10 20 0 8 -4 17 -10 20 -6
4 -10 -5 -10 -20z"/>
<path d="M3617 433 c-12 -11 -8 -40 8 -53 20 -17 45 3 45 36 0 18 -5 24 -23
24 -13 0 -27 -3 -30 -7z"/>
<path d="M3160 415 c-16 -19 -9 -49 12 -53 19 -4 42 33 34 54 -7 18 -30 18
-46 -1z"/>
<path d="M3477 413 c-4 -3 -7 -19 -7 -35 0 -24 4 -29 21 -26 12 2 27 11 33 21
9 15 7 21 -8 33 -22 16 -30 17 -39 7z"/>
<path d="M3035 387 c-27 -42 4 -77 39 -42 10 11 13 22 7 37 -11 31 -27 33 -46
5z"/>
<path d="M3342 381 c-22 -13 -11 -55 15 -59 17 -3 24 3 29 22 10 40 -12 58
-44 37z"/>
<path d="M3218 349 c-10 -5 -18 -21 -18 -34 0 -17 6 -25 18 -25 28 0 44 16 40
40 -4 27 -16 33 -40 19z"/>
<path d="M3695 346 c-16 -12 -18 -19 -9 -32 15 -25 29 -27 48 -8 35 34 0 69
-39 40z"/>
<path d="M3545 320 c-15 -16 -15 -22 -5 -35 25 -30 67 -4 55 35 -8 25 -27 26
-50 0z"/>
<path d="M3098 319 c-10 -5 -18 -21 -18 -35 0 -22 4 -25 28 -22 22 2 27 8 27
32 0 33 -11 40 -37 25z"/>
<path d="M3403 294 c-15 -23 -15 -27 0 -41 13 -13 19 -14 31 -3 20 16 21 56 1
64 -9 3 -21 -4 -32 -20z"/>
<path d="M3267 284 c-10 -11 -8 -62 3 -69 20 -12 51 15 48 43 -3 26 -34 42
-51 26z"/>
<path d="M3770 261 c-12 -23 -4 -51 15 -51 6 0 20 8 29 19 16 17 16 20 1 35
-21 21 -32 20 -45 -3z"/>
<path d="M3614 234 c-8 -29 7 -49 31 -41 22 9 29 35 15 52 -19 23 -39 18 -46
-11z"/>
<path d="M3147 243 c-4 -3 -7 -17 -7 -30 0 -26 30 -32 49 -9 22 27 -18 64 -42
39z"/>
<path d="M3470 214 c-14 -35 3 -58 31 -43 23 12 25 55 3 63 -23 9 -24 8 -34
-20z"/>
<path d="M3000 205 c-12 -22 -12 -28 1 -39 17 -17 59 -4 59 18 0 49 -38 62
-60 21z"/>
<path d="M3338 203 c-22 -5 -25 -58 -4 -66 22 -9 48 16 44 43 -3 25 -12 30
-40 23z"/>
<path d="M3196 155 c-12 -48 21 -62 49 -23 14 21 14 24 -2 35 -26 20 -40 16
-47 -12z"/>
<path d="M3697 172 c-13 -3 -17 -11 -15 -30 2 -21 8 -27 28 -27 20 0 26 6 28
26 3 28 -10 38 -41 31z"/>
<path d="M3544 139 c-20 -22 -11 -51 19 -57 24 -5 44 42 27 63 -16 20 -23 19
-46 -6z"/>
<path d="M3065 134 c-9 -9 -14 -23 -11 -31 3 -8 6 -17 6 -19 0 -14 41 0 50 17
23 41 -11 66 -45 33z"/>
<path d="M3400 122 c-22 -18 -23 -22 -12 -47 15 -33 43 -30 56 8 8 21 6 31 -5
43 -14 13 -18 13 -39 -4z"/>
<path d="M3257 79 c-7 -26 1 -49 18 -49 19 0 48 38 42 55 -10 23 -54 19 -60
-6z"/>
<path d="M3766 85 c-20 -20 -20 -26 -2 -50 12 -16 16 -17 30 -6 20 17 21 45 2
60 -11 9 -18 8 -30 -4z"/>
<path d="M3124 59 c-20 -22 -11 -51 19 -57 24 -5 44 42 27 63 -16 20 -23 19
-46 -6z"/>
<path d="M3615 60 c-22 -25 -10 -55 21 -55 15 0 19 7 19 34 0 41 -15 49 -40
21z"/>
<path d="M2977 43 c-4 -3 -7 -15 -7 -25 0 -14 8 -18 35 -18 36 0 46 15 23 38
-13 13 -41 16 -51 5z"/>
<path d="M3466 25 l-16 -25 35 0 c36 0 46 15 23 38 -17 17 -24 15 -42 -13z"/>
<path d="M3325 10 c-4 -6 7 -10 24 -10 17 0 31 5 31 10 0 6 -11 10 -24 10 -14
0 -28 -4 -31 -10z"/>
</g>
</svg>
